<mxfile host="65bd71144e">
    <diagram id="_1M_LwudpTgx3ctnXBYT" name="ページ1">
        <mxGraphModel dx="571" dy="717" grid="1" gridSize="10" guides="1" tooltips="1" connect="1" arrows="1" fold="1" page="1" pageScale="1" pageWidth="827" pageHeight="1169" math="0" shadow="0">
            <root>
                <mxCell id="0"/>
                <mxCell id="1" parent="0"/>
                <mxCell id="2" value="" style="shape=image;verticalLabelPosition=bottom;labelBackgroundColor=default;verticalAlign=top;aspect=fixed;imageAspect=0;image=data:image/png,iVBORw0KGgoAAAANSUhEUgAAAZQAAAGPCAYAAAB71Cb4AAAAAXNSR0IArs4c6QAAAARnQU1BAACxjwv8YQUAAAAJcEhZcwAADsMAAA7DAcdvqGQAAP+lSURBVHhe7J0HvHZbUZ9fMAWISKJCiqErRVCiooDSBARFKSIC0kFAepUO0ptSVKRXUZAWivQOQaqgEgtBILQLBhIREEyP4dne5+N/h1lr7/ec8333Uv6/35y11sysmVllr7Xbeffp/v7L2J0Msqc73el2H/3oR3ff9m3ftjvLWc6y+9KXvrTwKtD9f//v/x1L/8k/+ScnS05dECvxmF/DFh0RXTUE9rRp3/zf//t/d6c//emXPtIGOuQtb7F9VNB3xnAi/Qv7CgLE4NgdFtrcgqrLWP2v//W/juVrjKcG8EsMHnPC2DI+qcK2iGoLOVCnyiu+5Vu+5VidihqDNmuciYztICBe26h988YpH6pAVwKdLrKttpzLxqTdETo7HdbsdGAN+j//5/8sMZ3hDGdYYtrqT9imf/pP/+nuH//jf3wy95Q43Wc+85m/Z2KwgeAARx//+Md33/qt37o761nPuhgYdQZBGhQ2DtLQ4wljOzXjIgb66bTYP4l9J9dRofbJUcVx2L52bmOHsTu1YSxfb3C8T8225ZzbMh9Tp5MD+Llon9pjRxxsKGC0GWwFtjg+Kmjj6b68eXxZ/vfLBsKmwsHzsY99bCl/53d+51LRHbbif//v/70Exwb0b//tv130RsDHWqceVsczlM997nNL5xE/MS4N/TJRF8xsyEfHzXTWrg7pj7rE8l//63/d/et//a+P9WfGIoH0JQ9oD8r6IuOGLJsC8vhnzP76r/96uQL9R//oHx2rsxXapH/0ZdzVjuWRHD5Xwf/9v//3U8w3gT7k2IJsUyJPfkY6HVIXX5SZ04yXJwLq1PhHQN/YRfpJ6LPzQZuI4b/8l/+yHJOQ7Uykr+y/BHLrznQSXczwOK7+5m/+Zne2s53tq+qAjAdoJ+0Zj0BW/WlHmSRPOXZOOumk3bnOda6Ta54S6liP9pNWoAMhH/WRi+nIhqB/0OE4Yw1gHPEvMt9B28ZtPJ1PbalTbcP/u7/7u90Xv/jFZcyIR12QvsCsXSNQ5/Q0EsIRTmDWRuukwp3ORWmEmSxxVHrcrqBNgE4jTyrZWaSV1CevTtqwPKO0BYjXmFNmHhLw9Z+kLVDrWif5IOXK0AP1Vqa6a1R91HYlJeRlfXW4hGbugZRB6IM8qKoOBLKfDwv6iXmtv32gPulaPF3Mtin9kvc2XKLTXUMdw4S8NZssqsaj7kFJG2vIscgUcg1iowPknTOg2rff1aM9I33lkj5rfckY6B/KwOPOuhXyO9oiF50cAqzXxpaybj5kP3TUycDp6QwAQyMVMxnQRofs9DVs1dFmRfLMZ4O7jksZlDBu9dWzjnwx4ie6OgnLpMZEXlJW5fLtm+SZSodB9jGo5Yot+skbxee4g5nPHK/DYC3OrViLeS1W5aTmO1vIZr6SN4pFrMV0VDBmxqzO9Rqv1CHjNa+dis4OevgGM7lUUeXqpF0wiyd9opdUZR1qzB1GdRM1lhGMKwmconfWDK3JE+kk8zMwsWbQTiXRddioE5M/yq8hfYNaFjXOfWFMaWcUJ3JlNU1kPMglkb7AFh1Q5ZmCtKNuZydR64wI5MFcZaD6SlmiiyltKa+2Rr66uETamEG9mY1qq+pukUui6hw1OrvJI1/j7lDtUO5sr2Hma0sciapvTMZV4xvFW8cjoazqJAHk6lRZRcqrXtoR8k6xoXSwYjUyygv11+rUdCvQT5KXKaj5JGBHZYeJrCvkpQ3Q6YqteoktA1l1quyg0E/1V7GmsyYXyD2ZSN3MZ3tmbZv5Qpa0htTp9NPWSJ5pjTvLXX1QbYyAvFJizVetK22Bel1aeSDzCWI0zsyP9MVMvkWmr5lP+QCZ8s5GoupV1Po1jzx1EsqSDos1G9WfpOz0FjqkoiBv2UWANHWrPvKqU1PlpklCO5AY6Zqvcvn6EeYzTZJnKhlPJxMZc5Vbt/JrOdHp7ENgFFNHVaeW5QHLabumSWAUSy1voa1tgkZ6ADvmM60k39Q8qDprJGZ80yrPvKBsOzI1X0nUfKXki+SbJiUv8yPeKM6q1/HFSJ480PHNZwzCsrwsd3yRcmk2HlKNoctn2bTK9AWqDKzFAYmRbNMVyozWdGyE+ZmcHdhy6mZ+xoMynsxXUsZDs85n0lZZp6Ofmt9iUzLGTlcS5K2nrJbV20qd75GN6ksa6cunjvkRrckhdUw7UtbFCaXc/Iyqjg9n961vWmUgyynvCL+1bdbrZCmf0dZ66nWyjoxJgjeqW3Wl1AfwzMtPqvWllNe1IY/D5FdCDjKv3UrKqo2kKs/6STMZZH19Vn7Nj2iG1Q0FbDUmOv1at8osZ17Iq7KqJyp/VN5iq2IfvTXdNZ0qS/2UyZ/JR8g6W9DZB105dTO/FVW3s9HpJHXo6qxBna5uUvJElYNRXsiraWKNN8oLePIzDyx3/Ap5VW9UL/NCnvU6ncSanvwq78pSYsZPZHlUB8z4pinvdEHqjXTASKerM7IDP+0kjbBpQ+HKId9eWIP3AL3nV/M1xa5l/VgG5JMqT6QskXwpyzUvqqzqdDwx45tCXZ8qq7qVRCdLu/I6jGQz/iwF5HMMSTu9RCevult1kio6fqdXoU7qaitJftd+y2AmAynPNJGyTq/GYFop+ZlPqvxEyk2T5IlO1pHIPKh6KTdfU5H8pOwrUPlZZkFNXkfaEMlPpG71JSnveDVdk1U+yDxInZpPXofVHaIaSKPyK29GM30utUiFfDo6y+pkah5UnU5uWuWjsujkpt2EUGYeWO7aNaLUy/xBaEt9QX400SF1JHU9i0lZR+okqo40k1Ua6QriHLULdPlKI5n/RySqPKlipNPlkwcs27ZuDCybdjSTQSnPfCWxVVbLHZ92ZVk5yPxobJPU62zCy//tSnnlCeUpq/lKQpvyUmeNUj/zSckXlvG9j3+RebG6oRwWawEAA62UGJWTX3UqkNd68pJEzY/KyV9D1Z3V1YckZnXEqO5WbK3X6cDLg24L1J3VWbO3xR86W/S2YC3WrX72janTHfEqX14nEyP+vljzkTLLya+pyMVPEl0+eYmq25UrdbJZPDNU/SzLSyQ/5aN8xah+xVad7tbX5g0FAx2lLPMdT6RcPunorFZUfkepB7rBlpAJeSL1On7mRzwxk2d5xk9e5me8EaVu5kdUdcSIZzqSV36XPwjtW3+kn/zMbyVhvsqTnIPkRdVJnhjJu3KlRCdfo6yX+X1IdLIZiY6feZFl5UkdvyL5a/mOl/kk+aZrlHqZTxIzvmknq/wRb4RNG8rMwBqy7pod5AfxNavT7aJHgYPEuYbjYfMbCfv0H/Pia62/jfegcR+2/kFwvI6/442uj5J31H24pZ86/0cdR+IgtjdtKB58MwdVpn6lEdbkIO0kCfNrg4NcAmkjUfU6bLGT6OIl3VJ331g6m/JGtjr5LLbOjvqk0gxbfFUfFdYb6aUcGvlZixWg01HFmlwgW2ufcYPOVrZL+cjnyJd1KyUsk47sgE5ebYGtscx8CXRmesqq7UTHS6RM3apvmXTWPrAWM0BefYD0I60h+6DDmnwNqxvKWmPBFp0TjbWYtnQsNOtYdaQRZjKxdTJssbUFa/EmjbAm3wdrfrYAPfqx04dXaQ1bdI4CW+JZ01FGSh9088m+mdk5CDp7+jmsP2Pu2lOxxc/WWNb8Id8S02FhvKO494lhre1b5NIIm65QAG9g1X/0gQAOkJHKpwzxK7KQ+dRRjzT1Ug7ZCOXaylQbxiPgKzdVnjwp6wJ9K1OPesqkmS3KgBiVoy9lO6injnppq8oheBJl7KVNibJQH556ytNetSFfpC5y/SZZL+1A1hfZP1C1PSJ8pK76+oaqPGUSPEBeaCt1IPu46+eq18nVwb7ofFXUPhLW1a8kj3r6Ik1fqW+8kjrqUc9UW8pSVx+dXD6oMvIQcWRbtWOaJLSZOsmTr4/OL2RfKVNu3xib+lUPmIKUZZqxwZOvTMo65qGMg9R66kkCGVC36qSv9Gcc6piv+JY73elO92eXQ+FMZzrT8hPHfE+EnxSnrDENSwA+r9bxu/9nPOMZF55BZGreQDLQ1PPbJcoq2XGWqy3k/Iw1P8XPw07i5yeka/yUQeUrMwZsk8cW/NEggJkt6hET37Kgjepm282DlJkH1APYxI5ySF9ZThsSsTBmjPGZz3zmxV6nJypfGb6sR/9AlCX9qwNILUPGTFv4Hgrx5HiRQtaV0kblAWKpcwXSFkh+EnXQ+/znP798HwjAS1uWk9cRcuKwHZ0OhIx+sC+qXeb03/7t3y7t4mt7tY9ENz/V02b6yj7KtPpPQoaN//k//+dCfuuj0xXGkGTcyZvFApi31Kv+4NE3zGmOMcpZlzLttS5p1pesgw7QTpWbl18JGbF+4QtfWFLWoVEf4QOYr7LkZT7jkChry7JE++Hx2QrmdV0XATrka13IWNTrAH/zQ/mOhGUGNeXy5Ge+ypNSnpQy8x0vMbIHOj5UIa/qyQeVn36VwxvFM6O1dlV58qu/TrfqVHlSrZ9Q3tnreBJgsnYySJAf2YcSnZx6opNL2t+iN4tHWpMnOt3EyB8gHcnlJVJvlB8ROqKTQ6KTQYI89vSbafLVTVIGpTz5Uso7yjpdfXjyO3lHopNBovLT/kxeY8p6kjxR5ZKwnHZTx42lw/LFRiqwC33Hd3zHspt+5CMfWc4WKXPGxC6LzlIhjFIHGd+gP/vZz77khU7d4UDaES4k6LBrcmWkjwp3ThuHrVyIkOODr9txVle/OGnMEHn46CMD2gK0m7MKynwLXn7qakdbyGwfPACPL6XxhUT6iDqpI8EHfrSsA/2DXu0jfZESt+0C6FVdyv/5P//n5SubtA2b6mWbADzbBqxPajz4Im756mkLdO3SFv3DFy3Pec5zLnVqHzKGtAsbjGsHdNGhfjdea+0SxsRXS/liI7bkCe2kLSmBT2Ii5s4XwIbzzLalv25O1z5CFz3swJeEtqjHmCFzPJTZFlLz2lAH6O9//I//sfvMZz6zO8c5zrHYVSftERNp2iGvfUD/UM4xowxRxrZkP4KqC585zTGWc007wPmBbh73aQs5cacvoS/z1Ks2gGP26U9/eknrl0jRpT48/JFHD0o5QM6YIcsxyzi0AWbHGVeUzKN6nAHt0EfwaT91qq/MV6B7yh4bQMOQWCpHB6UMyEMHSv2E9VJvBOXaylQ5UAekvOqnHqj5jgT5GoP+Qepnvupk3ZR1SHsJypW0Rz6RZfOpl/WShPkqr/y0Q9qh1gGpKz9phE4XErVNlivkqWc+oQwbUtUBqdPJgTop7/Kk5tEXVTf9ZR1Q+SlLXrWRsJyyTteyxIKIXiezvkhezUtCufmUgU6XWNStckmbCfmm5qGEdZVn3jLpmnxEKadeUodaB1RdZZC21E2ZPJB50UcQoFLuTCNUuXXcPaUR1uQg7VRSnuka1vRm8pRt8dvpkJfoJ2iGrDtC2uz012xkvZp26GTaSNqKTnfLHExZpyfvIHoVyDqqWJOLmUykzpotj7mKLfOrow4jvqjyfW2pP6tXsUUPndmaJK/rq6yjjvmE5cpPzGQVnS48yBhMZ7CO+Qo3iK32OqxuKImDOEis1Ud+WB+AjsnOEeaVQyOfqbOGNZ20c5j2bYlniw7YamuGrb624Kh8rekpWxuHLf4OM5YVI1/6yHhG87VipDfyJWbt2qfNW3yBrTojveyjNcx09mnbProjZNwje9nukc7WWNLWYTGKedOGshbEUQZ5FMCOttJm5vOSboTOhkjZmp3EProVa772iWVNb6utfXyOsGZjqw/1ttha0wOHle+DkS35pJmvSLkYlbv6iTW52KJ3VL62AFsze4eNJeVrumKrzZlep5O8Wd3Emq5ydapulXfYfIXCblSpwxYd0OnM9EHWmemmfC1vGWR+hK5+1ut4iU5/BHXVqfVmctHpgU73qKGPNV8ZW81nuoaqp63kJ09+LYtaTmSdjtQRlZ/lDlWny1seIfVS3xRU+RolLI/SfUG9pBk6va5eLSeUWW+mC1JP3axTZfsg7Y1sJD/15CU6eZevPFH5STO0G0o11N1PBFUvIW8mE+T1oSwpYVmZ9/rMp8y8aaXKt1zR6YwoYTlllZcykHIx0qnIukmJqpP5g1BXP++/VlklYb5La35Egnyds1U3KWE5ZeaTOr4YlSsf5JwVXT7rzuSVEmtlMeIDZalD/qAkar7KQS2LWld0NoSykX6mM0od0fHNJ1VUXtWzXEnUckXVTWTdTFPPcvIqTu/lC0rdQsCrbb7eVqnqJiXfPHZ4tZGUsnZ4VQ0+IC/Bg3htDqIeoA751JFEjaGSMlNj0S6pl3fYRZb1t5DIsnn9Cfm2Q3nqO1bElnJS6tg/6FkPmE8esH7Xl3UMKp/x0B52Ul972ofQTx1JOQSyTH1sQbRJux1py74wX6na7yjjSFhWllT52Em+SJ0k22k9KG0A88og2mr7lUHYSj1tKfN40mfVq7wk7UDCvHz0LFdUnZyvIwLo2y7JmEDVNW8f1bqSNpKX/Vr7qNarhAyoZ75C+aj9jo/HPTzTmpeIFzIOKXUzD9W4AflRu6UO01teWakaS1nFmhxssVNRdeloOxvUjhdrPowj9dIuUFZtZd2U1fK+qHX3sbevLqjtrX27Bu2kvS6Gyut0KrbGgS39arfzN5J3vK2oNrMMahlYtq8t13qZgsx3yDpdXqRMqJckyOdYKKupqGWRbRWUpRG6OmtInVHsnZ0uxkTWr5jJ1lDrko7sdPxs4xqyfrVlmTRpDV+1oRCQJJKXVCFvpEc+33E2zXfUyUvqZhmknUrKoVE+eSB52MAXeTuw2jbtSHTlmlY5pC8odfUPlFV56myZANrI+mvkWPhPeID6lB0jCX6VVx1InUwB+bRDvqsvoZd1an6NUheYJkZ9WutJ6qdcWM55lnpreYg69knyslzJOtmXKTMdyaSK5HXyhLb2Qa1DXhLVJmXq0daq15GwTraZPMR4ZZ1K6ADyM6ifsKwd/VdYN/WhtTpCffPW6XQ6GuErK1CDrFgNSinLfPKAZQPPBmQnmM9yHdhKqa+vhHoi890Bn7ZA51tUfiV1EsqwW2FbgHpVl7Jp5k0rrx4AIMuSvqHk5cKT1NVVt/qocnnqJbKeeqbaqFT1tZ1IndSzrE6mCfU6GX0saTOhTHR566Sf5InM0/Zsb9aDKt98tlu+qGWRuqljPtuRuiPUeiDrpA3S7NcqyxQol7IfMoXf2YVGMnmVKpLfyQXtV7cSvkTyLSeUdfGJmodspzzTmk8eyLw4Fm1VrCR/X3T1045yyI4VnZ6wnPwqzxRUXcjOF5lPqC8sJz/lFSOdrJ+Y8Wody7SFPpz1YwfrZz6popNlmbTr11pOWB7xc9Hp0NkmlYwnqSL5I52EOpWUJVIGUq/LiyxXvU4GqryWwag8oxEcm05nVC9tdmO7pR6o5Q7KR6nIMvlKopNVUm+EmUykrYr0kTojfbCm56aSGNmD343bV1v4MlCWcJKLQ8oqL/PJ61B1UjdlM76UMvNC/og6HXmgW5xHVOWi5lOeMpD8pIpOnnp5kFdKfuZHZdDxRNUzTRIdv8tXnumMgOPVyUDlZVleRSdPXiVR8yOq6ORd3jJInvzKk5/odNbIeomRzog6wM/xE/IT6lQ9y508MdKVl0h+1TMFVQZSr5MnOp1MZ7KK1E29mrdckfKORmg3lDp4Xyvo4k4e+RklahkkL+t1uiPso3sYzAZ9DUcRY741ssXePjpHEd9R2ZCON9LHzF/GU+t09VK3yjv9xBb5mo5wvtZ5e5h5fDyxtV0zZJuhfforsbXOFr3DtqvdUACvjCVo8Oi2QXepdFBos0P1W9OMQx4d1L361uVTDxKWO50ZCerVWEHypBn20ckry6zT1bcfkirk065MlVmeEUi97CPjqvog25D8iq5tI6TNDvRd5yvrma92Km9Lfg3oztoO7DeJ/pUsA/2mnnmoyjobpGvxI9/SRvVmtAXoGX8H7dg2qNrWX+UDeaQeW5Y7jPgAmbTFVkXqb60z6xuR9tJu1u3kot0JmCw20rdzusoCGfoJePIzP8KaHGgndckL8z6oBepC+QATSlnyoO5hZ+rpI3lQ6gnyvhWFPKE/682g3gzagWa6jivQrnXlg5QpN8WGduRL8OFJ8EDqkQf2JUh5opYrrDPSg5+2Z3oA3e6nwAE6tjmp2u3kIPVIlXeQjz/n0Ew3qcbomHS+IfWB5bShPnDcASmyJOtkXahCH1m3kjGQ7yAfPfuoA3rYMXbyFbNYgbKkCu1mH3V68JBDI1sAe8aVsI429DWCdsDMFzJTKcueVHQb1Ok+8YlP/L1K/+Jf/Ivli2d8V+Cf/bN/tvuX//JfnuJKJQ1olLqf/OQnd2c961mXBqmTKbqkdnDaySD5vX6+SEc5Ydl/MsrGAfPY4LsKf/VXf7WkfIcAm+rjVxLaSKQcpJ8EetkPkkBGma/t8aU0vj/CP0upl/Foh0VMmSAPj7ro8T0UeSknRYf2OrnUAdpE/vGPf3z3b/7Nv1n8ydcGPiDy2EE/5eqbAmTKLTNWlm2XfQLfOnyt8b/9t/+2+67v+q5ljOEJfdMu4XiC1KUudvUFMkbylpFLqQNoM3Oa+Y8t2qGeutUWMFb48GgrcTPvsw8T6NpmfFUg45jgOxbYONvZzrb8U2LaIU+M6OoLXufL44HjowK5Y0bdbg4B6vM9FGLi+yP4FepiIyG/po4rcY9AP9o2Y0rgCxnfsGHM/IYNwI++sAG/tssUmWOGDdqZdgBl+ghoWxLYoH4dM+qqS14SaUMgpy4xZx9lPfxB1HcOpRzAZw3iu0PnOc95ljZWf9SBT5pzCMI+gC/JE4uuGwqd9O3f/u3LB7ZYbDDKZ33tPMo1SA8WPpDEpMcJUM86Ep0CKQf4BgRHx3Uf2LJMLBBlGyzIY5eUBZwNEVvYTKRvkDYS6DlI1ZdAx3iShDaoz6JJTNpUDuBBwMWwi5P+Rs8NJWEddPDXHXjAevQRH1BL36KzLVJGPcrIHfuEtpGPJrr1/Iy0+oL5BdEukeNBCmHXBSMXZvXgS8B61k097PsZbGzlnNWGpA1gKmiLC2HqVdA2ZBm3wAeLE4sBi7hzSFDPhcY+0lf1hy3max6HUIW8Wl/Ap11sTpyAWk5U28YDwScFxmwbEupmPzqvrS8YKz5ih07a0id9iw2P1xGM200J/YT2gLoV8IiTdRG/zGt4+K91rZ92E8jdUKDUsS79Y945lHbJwyf97Gc/u3wCuPaD9h0Pj0vqeEwSP21hg0Q35yFAZ9lQqIwDr1D4YiP5f/7P//liMB13+NSnPrWc7R4WTvYZtsTDLkwHEv9hQAfSN3buQcEg8XU7zsAPCwZxFs+W/gGcgR82HnwxZt1iILbEw8LEmHEFN8OaLeRgS/vXcNJJJ63GswVr47UVW+b0lr5mvIjnsH2EHeY0X7U8EdjSj5wIM2aHPT6OaszY4PDFifphQDzYOeyYsQ55VTnCFl/o0I8eb4I6w15jwgAW1Y4wCgFS9XGiQ/k0hF1WfYNJXfTUSTkk8IsO9shTB7IOPPWMR91KtS5kHqBDXUieeupSXx1tpg4EkKEPUkcbyGkXZB111CNNnY7Qs386OZRxQKDKjck26V+yjm2v/rStbNQueeoD9NO3eraLVFnKiTF9VdrSLvWA9hLKO1s1FlJ4xms9dVLXtnXABkAPOwBe2pNX+yf9kVcHkqeOcmjULglgAxmgbiLtpZ30pS1jrrJMsWG74CXUAaTaqj4B9W1/ypPUQUY97ZvCRwea2QDKQepL+oKqTUh/tAlKvjKI+urYVuQZP1AfdD7RM57kSfL00eHYj0NWyF92nS/v1pXgZ92qr9yypE7KMu1IaAOe+axHHmS9qltJXfVqPWXyOhrZg7IeqDprdSB1Rj4k5TMdKO1nPmlmJ+t0OtZVZpr1pOSZz7pStdXppHxEo3pJIvOActbVVrXZ6VR+ys13kJ862rSuPPI1lWpZXurXfPKS0p/5BPxad5SvvC5NgpegnDzLXR1lqWOaupWSX3UzTUp/5lOuLEl+6iUvZZWXKTAvCfOk6NS6mVdeCdkIwysU4S739YTapq+39n0TX99wvnZzuM7lER/U+iPqMOIfDxzG16xulVke8QF5yXLFTLYP1vwcL6Sv6p9U6jaWTRvKCOnkawl2CJdx2YavtXaM8PXUlm/iq5Hjm2mOeZdXR0peoisnyftaQ9cO0PFHqai6SUeNNZvHy6d2azrD6oYi0gEY5U/LyDastUVdSVT+jE5trMVwWohxhtmldYd99U8rOMq4c/5J8iuSl7rAcvL2xWHqioPGkfVGdUcyeV1a9WsZdLx9xlg/UvI8CU5K+ai8BbM6nazTazeUrGi+IxqnTqIrSxXyZjKhjUqiy1e9Lg/54CnlInVm8o4qKk+bMyhPm10deT48A50eSP7I1oifGOllu9bsVBuWKykzTT7oeBWdfKZfkbraSkpUfsqTl/yKTs+5KinLfJL8rFN5qZvl5HUyYJpIORjlhTzrWdbnFnQ2pIxfWuN3aa1Ty/JA5q2bBNhooE6eBDId0UiefDGSkXZtShphuqFYMcvVAfl8+k+aPMvyMq1vNVQa2UkbVQ5IiQVkzJXfyWoZkK/+txI2jA+Yl6q+fTJ646OmUK2DT/KQNpMyDuRpa0bUzTL17LOqk3ZHclLrZ18nwZcsVx1tK4fSVyevdZOA+ao7qtPZq7xRHh/COknJBxkTpL1sW9VJ+Uiv4yVVOX6B/juyjaN8pa4u/kSNLXUyvsyrK7/yZvnKg2b+pIwVpEz9jqqOqDqZQuoQW+cj6wDS5GU5aSQD3VXXoZ6hJBxYHNeyNij7Shpp8tGzTiUWBuWAepZrvVm8ng2MQF1IP7zRAGxDR8Iyuvogn/HVWCH1rE9bXQjr4lvTJF8DxAb+820M45LShvK0pVwdCNuCfI4fqf6NWZ9Vrj0JGXFqKwE/26AeVONLX0npB7IesD5209aI0odlKfVqO2e2sZWosZCX38E2kTpfQbUrKp8ytrPuCOoai35n7ZtRbWfKJNDNZeXkoYqMlXzaSiAD6WMEdNWvGPHTpvGYF9RVlvwu1pkfCLl9ot0ZtKndGkNCmXLrJE530kknHftPef+x8cMf/vDuLGc5y/Kf1PzTmf+hOnL0iU98YvnHRv8pUUcZqMiAEnQA71F3/ynf2dMOZfPYIIb8JzB4OTC1s7t/ytNHBfpCHdKMIXWEPy3CPxTRz8ZTbQBtpE35LMrEzn/xJrK+aT1AzGuXn6ngHxtpv3WAtuShK4nUgW+a+dQDKc/xgJf/2Jj1BTzmBmM7+sdXdFjI7Z/OBoQcmTF0esjoH3+aJqEdifraqLbwRUzEXMcjgQ6ybi5ig7rMH+xwjOoXkDc1j0xKYIs5hL3aLqANKOtXOyDHzBiFccBfs0Xb0eniAciwA9E/6Ufog39s5B8tZ2Mmupj0xTHa+bK+tjobwP6gfxgz/rFR/YT+IPTSlvrInPujMauofgR2Pv3pTy/rkDEK7ZhmLCJ1pAS6p08DNZBF4ctOK7+i1rUMZdDktVdJWSdPPqiyLCuHD0xF6pivkO8C1enKgzKGDimr8VZCDuUiBIHUS7IONNIT5tf0lc9kwP6R54Ehga1y8xV1jo5I5ETv9KA1mfFWpB7yLI9oTW+GTp68rXaAcXTtAtqp8XZARzvVXtY9auqQ/E4Hnm0S5CWRvNomoK5ybcoXqSeqTiL1a92aVsBnvnMceixuwWjMsJXH275YrOYBWKGjg0LbMx8iG3NYzPzaJmjkj8HhTMVL5Q4zHyOM6lCGDtrXtT1rdvR3UGiffgJr/rbEk2mCutIM6swOdHlV1mFN5zD9dxiM/MKfxaRsLe41OdhXZ4v+icDWONb0kB+2TdZfm2czuXFwHG6JZ02H9W6ms1b/q7fhCUbG4FeZZWWdzkGwxU7qpO6WfGJtIE2TOqSs6lmu/OMFfRyFv7TVQR9rfrbogC06M2T9w/pDlnS8oO0tflI3U6GNyhcpT+ow4ldUWyPqsCavWNNLe0lixBfyqp58YTllazrQaFNwHUpZ1uvqdFjTS/nI7trmt9eGcryxFuxBkDZH+cPieMT9TXw1jqKfsbHVzjfquG5p9759c5i+PC2Ow4mK6XiMxfHEpg2l7lSWux1M5A6X+YotOiJ1agpmPEBe6s4G1soV2lrTG2FrXXW26G+1uYatdmY6yvaJZ4u9EdLfSHcmq9iqN8M+/jpYN+109pSPdLo6iVo3yx1mMjGykTzzM3szWcWabue7Yi0WaYRONtOvSN0t9dTZR3eGzh55aYZNGwo7oGS5puaFD62Sqg5IG/mmQ4e0U1PlppUH4Mm3c5JnCsj7YLyD9Sp1SFnqYttYzXew7kxHrOloyxgq5GtnpAeQd2NWbUAzpI9qC6S9EayX45pIOdBmhTzSkT/rVqqA5xzq5GJUHxgDaeYr0peUNvWhrEJZ6ljuMJMl7G+AfhIYjRdQT1+dTmJNp9qqbZA/WoeUpw0pgRykTJ7Iuh2J2n8idbEtzaD+CGnLvLBs/ZGdYx/YInBeSeQDPh/60IeWV2754iGvmmm4No4ynf/Rj3702CuWPqRVN+uALiB0qu1MQWev6uGb1475Pguvjhp/2gH6g19lIH2A6gdoA5/akRL0HR9H4rXPc53rXKfoT1B9gbRBXl8JdbbIE+jxSiRf5eS1YcYs645saUeZemm/85VQnnrMHz5ExCuW9A+vtXZ26DfiRr8DOj5QnL2Cmqh+ADr4YU77WrVzWqCTtmq71uQVtrmOBaBNzmnazhcJc06rv8UfOrZFWZ2LW+xQh4998b2Pc5zjHMfiz7rmSZFVG5YdM8dVftYnZoixqHJAnr7jO068NuzHsTpbCeWpN9Pp7FQbgFiJgS/H0leMWTevRfWZMCbqdutG1lWvi4m6/PsCrw2f+9zn3rQOpVykj1oH3lfXKKCS5MBCTAQpeZ1OLXc8y/JqOamTjXhVBtkRtU1StVnLlZR3OrN60Ei+Vq+jrGP+IHYg6o3qVn6WuzpVPtNfqz8jxjMPojq+8hz/lB2EbMsovq1xS2v6ylOPvJTlTi/zWe7kKetInVE/Zj/nOFhPGUh5JfRrPPI62UhHUlb1K410ttqober0bbt9QVr1lIFqU6p1Ol9r8SLfYifjAXm8gfYKxX9s5AyfnZWzBytWA4Cv23GF0u1oGQTyrj5AhwZwFjKCHaoN7MGzbJ6zXc4QaEPKQXYO9Uf+1AEjHWxDAB/pJ8HZHFco/hNY6lnfdHQGDugf9GbxaL8biwT/BMYZeOcPO8Yza5fxIE878ohFO7N2cbbEmBGPdSuch7N2YYeYGPs617ALOabIZ7ZmcxpoD+inxo0viLi7Ngn/sXE0FshG/9goats6f+jQPyNfAB3tdzYEfc0VSv1iI3VNnR/Z16Spw7gCrsI6oOM8mq0NIP+xEf0av3aA8XQ6szGjvjaUdzawz5iRjv6xMeMByCWADB36ETu1/dYlNT8aV8CY8cVGriqxq5/05/zAn/xE+sJGYql3cv5QSCdCnkSga+DAmgE7NMKGUO5SkPkEjU4agfr+Y2OHap/yyGfKOh142a4RkM/6kfYgn9nJOEaxJH+kB/DjfzpXWA+dUX2h7gjK13TA6EAQW8Y90w5rsSQcj4Pakz/TEfiROn3Ks/mRdcxb7pC6mQr6uY6HOo7DbLzQTdvVfsUWee2bWofy6BjrdDOtgD+SiZmO/SNSzzxpjvsMXf0K7SCvOskb1d+0oYwq7wM6Z2YH2ZrO8QD+Rj5HE73iRMVMPGsxbY35qHCi/c1gLLN+StnauB1WDmaxHA+cSF8z1HbXvjpex8xh7FqXuI9XfGKr/S3jqc4W3Q41loPaAUdyhbIVs0AP2yn7Yu1Mdh+sxQ4/dWr5qHE8bH6jgYNs7aD/Ruxn+6Trn5zXyuR5vI3oMKi+zO+LtTqHjXOE42W3Aj/6Mp+8ihF/hk0bykEMV3QTMKF8i475Ldiqd1BkTFtwmL5c86V8n3hOBE5UPPqZ+TvK/jlqW4eFc6um++KwseBXWsMWX/bzmu6azzUba/ZTvqa7D7bEdFidilE/YeMg9sTqhqLR2WB1MnkpWwtwq7za1n6mlVfhfcLUTazVT/5a3DMfSdjZ2gcj2KYRlOmzQn6lDiN55e/TP6YJ+6WTCW2MfNW66lckr5MD+elrZCvpILBe2hjZgp9XAhXw7MsO1qtXEwnLKas6AF76Sv2tsM5aPeVbdIF6VX/EF1WelLCcspEOoI/UrXog5SL1fc4yGleRNkw7qFd1Ol7F5ltea8HOQN21+sq36q01bARjkQ6DtHFQe9bbUn+r/a16a9hiZ6RTH+zVdISZfEvd9JP6lpNmmM2vrL/V3gz71h/p7nNMzPxtjWXNn3ZIRzZnssQ+eiNsqX8iYZukUX8qHyFlM71E1dOHdFB8y53vfOf725AznvGMyyuXn/3sZ3dnOMMZdmc605lO8cYDjvItAFLqos/rxuSV+TZJ6ruTVj4poA6vvVU5BJKXOvKs//nPf36Jhfh9C6nqAtJOBlHPt7yw1elCQnkl6vLa8Be/+MXln0UzntpHgPiVJ8kjpR+rTGDTcupIyKnvmFVbxlRjw2YlXvnUn31kXfMQwI/15EPU43XGv/3bv/2q/iEFpPDNZ33JeIHzLHXJaw9YVqYedqjPK7HZP+pnHZH8JGwZt3WqDoQe/QBRTj1kzmn4xNTNIdOkkT99pZw8NtbskHfMmNO8mp/xVALIqpwySL2UQxkL+r4SmzoQeoxTzmnr6geo38Uij7ZAtDHrSFv6CHmOGd+Y4lgZ+ZUqH8g3L8GrsQDarjz1aQ/fsPnCF76wvHqeY5Z62pFPmqQesI8E5U1XKOnMfEepWymRfGxWpFwCNqCTreWTl6jy1OlkSRWdjtTJkwdygFIv5V0f5LiM+qgj9epEMW8ZkK/jL39GCcrVF2UIyK8EtrZrplchv7ZLSp1KFZ3OVkpQnvVz5i0D8i4uKU+ynwU801m9pFlslRIHkSclRvJRuWt3pa3tB+iu6YOOXwlsmbPmSTvfiSrbQuAga0fFpg2FXc8UpzPqdBLy0EvdhLwkYAM6ubZSnvnkiX3a0+lWyEdXsqyskjKQA1T1gINZZcrBSC51sczik9DZogelXiJ1JM7k1uxmv4x05atL3lSqoI6kjvlMqw5UkbJOf0aJkbzLQ/ipfZj+Kz/7ElSdGaVdy9roqGIkt1zjsKyOaaVaL/nWSSgzlayX1PFrncxL+lmjxExuufoyn6i66mS9SiDnRqcDJWoZbNpQgAYzyAx0NKkl+ZU6ubbkd/WVVwJdPkkbwHz67Gjk0/rKR2XywHqdrjqVJ3X6+8ilKt+in9TpJKlT68lPPWA588prXdOOOv2ZrJbXdDtZ8mt9y1sIjOqALl9Jv8B8tVl5nc6I1E0CqZPrQNYxX49tkHJllRIjeZaxlfbSV8pqeUS1XWsEunxS+pbWZJlPSj0JkCpXF5hXprzKpLo+jtBKDAaY16mUyHKnl3mQ8uQnqjzLyUvUssg6oObtoC31Mw+SbzrSEVWn6q7RVr2OOqzJ6Z/UqXqVn+kadZjpdTJImemIEjP5qOwBpUx+Uu2vkZ6kXIzk5kEtA3n6J02+eSG/0kwGpTxRZbOy6HSkROXXckXK1ak8KMcqdczXNOWg5lOeedDJTUckzCe/8pJol21LZLnqy6upeZD5DuOtpqAaqo5G6IIZ2ZISHQ/IW6uTsqpby8DyTAZSnmnqJKouUD9pC7bojXTkj/zJT+owko/4M6T+rN7M7j71pQ6z+hUz3ZSt2VROuqYLOtujeiPdkT6YyTp09uSNbM1kotqoqUh+lXUY6SQ/bXaAv6aTqDq1LmlnJ/lVt8rMj5DyLq+NLCdSDtXbp2DzhiI0Zt605kckKi/LSYlODqVslO8oMeMlP3kddUh+1a11kp+UvMx3PJHyKkt08lE5eaDTM00SI77o5JkHKU9Zx09KHZHy5INaTtR6SaKTdaSuGMlr3jKovEw7mslmJDIvRnodiU4miVoGa3pb5ZlPSiSv6nT8ysv8iETldeWKjjdC2pEqkj/T69BuKN2Du4MibXU7WgL5ms5WaKf6l/bppA5pCzotYWu71KttgfJNFnUqDtJ/6aOzeVhos/qRtrRrC9KW9jpak0MnCvpa8zmTbxnzrH8i2weq75l/ZerVcUqZ5HhuGVNTkHnQ6YzQ6TAOUN6y2zI2M2gPf5WUi04HajcUKnbKSSDTmu94IuXy1+Sg8qWUAQZb1E62rO4MaXOEar9D2tBmUsJyp9PlZ7yORJZTnnwwk+WBJaqulOj45nk/3vfr8x37UT5JvnU7qvqdHJCv/1/R6Y5k0kwG1fZ2ZDw1LxFj5UHVt+W1mNbk9gl5kPrka9l8llOv6owIvfSdBNTp5KM+2pdG9isZj/ms09kgvkpglAL1OtkI6uCfvKmotlJHmqH9Hspf/uVfLt9C4Xf8aSxP+GfgOwRnP/vZh4urgfjgZwT++Wf0tT1B4/AzW8j5pzS+HcA/XaGffo0F0k5nCzltRzZqv3bAyA6gXXwpje+hjECcYNZH+EJvNh61vSN8edyXeEYx27Y1W+iMbIA1OeAfrvgnsLOd7Wwnc0598E97/EPaaQVbjsMTDb4AyD9Dn1bAP8ee+cxnPrl06oOThbVvuGyB69Da2gBmxxrx8BVJ1uoRXIewM7KFHaBPsdRxQ8HQd3zHdyz/Kc/nYVFmcKis4WqACc6HcfiQDBOLsjqZYpuUzkXHoIX++e/b7kM7+qdjs3PlA/L4wD4Ti//0Z0Fg0qdcEtpIWyDLqZ9IW50d8/ynPIsm/wlu/MC6tN0+YUNFXn3CY2NCjz7q5PDQoW9Giw866LJgMt7YIyZlwjy6ArvwlWnLNEEZu+p6opD1AfHyiwave93rdu9617uWcaOv1FE/63RATluIkXlW46l2kEvw1CePDTY44gK0Ax5IPSEPmCclHo4f6lJOvYT8tCmMh88k0y5/vSLrdPWUp0/icX50J27agqjX2QCUiYFji2PMBWYf2CfOkdGJpG0jJf4OxkofcUIsrAsyn6htIx7ItaqzkTzrpx3k1CUe+KyNrG3VFzr0HZ8I/tmf/dnlhIq577GLfo4ZfHhQxgKhBz+PswTrOu36m7/5m+XCAZsZD/Yh4qGu46N9QH3awjpG/1QfS2x5hcIVCRX4pjwB8MU6Ak3jBqEjGvDJT35y6Yx0kik2SB2kOjGwCe+wGwo2iIerAXyxYNbJThzGBrRRbamX8qxnvtpKO4A4OfDY5P7Vv/pXSzzqpA3aBYi/+gLwmAS08TAbimDMiAc96kGdX2C8iVoHnwl4jjvIiZ712Gw5cbnVrW61fCn0xje+8bETFOtLMyBHnzgYe+0be7UDX6p62ODAY7GEz9jYvtSrtswL4mG8cyHYF/igPvOHdrFgYlcYgynoYgHocIxhD1sVyLfYoUy7WDC5C8Cc2wfUl+hbfDo/KozH2DI+gR3GxysUyiD1R/UqXGOIxzHPumnT+tUOcvqXkzZknAS4oaiLDj4+85nP7J7znOfsXvva1y53DDgeHBt00aMusdR5ZBzMBwh+HmcJ6jJefBn1nOc85ynWobTpWFLu2k9slOu6ChY73S2vD37wg8tEYZMwUB0K9Ol4HHD7hM+3GkACPWyQdpM4QcexkY2gTxvbxQSPQULObTt8Z1zoQEIb1RZIXxXaqLY6O5x1sECxgHfABnECBn4E4kFvdPABBpp4u5gTH/vYx5bPpY7623jW7NT+raBtXZ8IJjDtudOd7rTMt3ve854nS05dcPB5hXJawFo/nxpg8eOK8rSCL33pS6e4Qjm1sTb3AeN6pStdaffc5z53OQHmGK9rAMcIdtxQKrDhOjRbPzixZW1kQxkB/wA/o/mGL/T0KZY6J+e/CgbuIiZhBCKfqMZTz3zVSazJQdqppDxTkDrZhhqXJJDb9kTqrtmCgHJgCtRBLs2g/gxbdIB+hfXkS04cqILNi8lez1bUtf5ITqqMlE0XMPG1S33yLPAQMjZoeJyAoANRRoaOdUmT0KcuRH6kR9x8ext75Ks87WhLexJ24bHIpb+ObJdtSaIuIB6uvEHaQoc+gpf90/mDx1mzvjq5bdJGZwd/tMt44GnPNG11dtCDiAXCZkfoUNdxTb4EH3D2jT/mlTqZsgHWPqpxoUPb4Kd9Cb7t0kbKIfiAMSMmAD/tkQIWeHwSH2C+EX8eI8lLfspMZ7CO+Q7YqTZTt5Yr2g0ld8FZ5Zmsw5r+WrAnEt2ZwNcrss8dgy3tn42VdqqO5a6uZ1dcyXLVQgqPVJ781ElKHfOpV8udHmdm8smnPKnWTepsj4irRFLrJMEH6mYeQoc+qrwsV37aPgilP+NJ28osJ1W+bcdmR7VO8pOAeeauOplqZ0ToZV7q5EkdH9R82iMFpLNjrTtODoO14zrlW9YAdCQw3FC2GPtaRQ7S2oAdVn5aw9Z4T412fa315VEdI9luz1SPCtjGJuTZJ2Q5gS5t8sx7rX3GvWXc0he2vVLguUeN49TCqbXmbem/Gfapf5S6tb/QbzeUwzbwtAo6QBLmt7YZ/aqbdrUn0JWynFirp36Xn/HkJ6qfEbbqndbQtXkLRv0FlO1D1jMdkTDPmTSLveXUESzALMqSt1nIV5uMI1dZOcfkeY8cPXWxzQsRPBtxc1OehF7exslNy/hJiQk5tkkpc1XC8ynfGFqDPhPyKn8rsn5ShyrLcqZJ8k4EHNfE8faNTyivAKHhM5REdlSllGd+RCMdJmLHl0b1KnWQX/VMmfgcHHmAEs9ooDwYOUDS3gjIteVBSIrfCvsBaPsoCfsdkCWynPVHfJG8pE7WtTXzWa5InUqzuTSTSWlfpHwL1X7udKDsA/I8R+LAZL7IB6mHnEVZ4hYKGwAPpK0LtMF8o74x6Zc5SB49yuhR/4//+I9373vf+5a8m4OELoS/c53rXLu3vOUtuwc84AGLLsRxYUpcbBq85POkJz1pKRPva17zmt3DHvaw3UMf+tDdU57ylOW5jnElVV7GXwkQqzqi06u8Sp2OPOxXGaS8ltdinpX3IVHzKe/ylWf7Zu0UzB9er+fDZp/73OeWZ0+rG4pGOoNixN8HHgRbkXFVZKzmKwk6jonOq7iQBygHBZuLOrWDKaPvWZ7xp211gZsHdbAPUZczy6yTvgBpLUuJ5CurOhW1zojU7VD5Wed4QR+dnzXfjlM3XsBy2h/ZVCd1geNFCpSljrAuxG2gX/qlX9r9/M///O5P/uRPlhhZ5AG2vO/+kY98ZHef+9xnoXvc4x7H6Jd/+ZeXL/Ixbzm4wXve857dZS972d3P/MzP7K585Svvrna1q+1+7ud+bneZy1xm9xu/8RuLDxZ07LNAgHvf+97L/wUBjwHiQ5fFA9mrXvWq3ctf/vLlf4fe/OY379797nfvXvnKVy6yD3zgA0udF7/4xbu73e1uuwc/+MGLL+L71V/91d2v/dqvLXFik7f69FGBPFNgnyaQQxxjbiqm8t1U01bmQZbRzTpJoPLkVzjPDgvtd35SRry1nVugvvHO4kYXOePGLUvmLfONubHpCgWw+Ll4ii3O15CdkaAsHQbElnFK2KXjOUjf+9737n7v935v9zu/8zu7l73sZbs/+IM/WM4U2Vy8kiD1jRQmGikHEZ2IjE51EkN0Nm9vkOKLOn/2Z3+2+/3f//3dS17ykt1LX/rS3ac+9anlTA+ZMWGLTQZb2X5vaWAbGVCuTkLeSJ59ISUqr8rX0PnskHEmjFs+7QbGVeMDaaujTiYv0xlmOvvIapkx5f9envjEJy6vT7P4snGg53xwk+A4RJfbRdAFL3jB5dX9Zz/72csJC7qcEDGvLnKRi+ye//zn7575zGcu9NSnPnX39Kc/fXlN9WY3u9lij2MAXa4meHOLX5q4ylWussjgGyv9/f73v393+9vffpm/L3zhC5dNhWMBm8zt+93vfsuGBIiLY+uSl7zkcmz9xV/8xRLvec5znmUj+d7v/d7dTW960+V1eo4f/CSBTM2DzIOcD6bqKJO/Ffvqd6jxJ8nfFwepsxU1LtJKgrkB7NvlynThbICVKqWs5g+KDHpkK/1V1BgsV3KResELXrC74x3vuBwUj3zkI3e3vOUtl4Pgj/7oj5aDjQOUA5X7vtxWoC4H9W1ve9vdRz/60eVAlA8Rv/psGGwE/F8Pi8T1r3/93ZOf/OTdgx70oN3FL37x5dIfXWLxoKYeVzDAKyX4LCL4RWYf1b6S1lD1su6IOlT+TLdiqx5t1G6lw6DWT5s1L6q8EmDMspzy5AHG03HnH9w4QXnc4x63nHT4z8LMDzaDN73pTUsd/o/AKxLSG93oRsvJCmf+2KG/SNkY3vnOdy6vrvLzSJwksSnxSxjIuJLg1pbzj5g4mcLv+c9//uXk5tu+7dsWn8bLXLzc5S63bHzExJXOWc961qUMPfCBD1zmOrjABS6w/Ac4+P7v//7lGLnFLW6xzN9XvOIVy20wrsjYMDl5q8i5LWr/mQLySZ4Ak69jArqyIE99dZKUd/zjBe13vrKsfKSXvNRL/gy57nS0aUPR2SiAWhY4WIP1OntVlvbMb/Eh0M162uX+H7cD+G9VNhcOTv7pj4OVic6mwBkgl/O8W85BztUHBxsHAwctBymTlgMTOXpveMMblv9I5x9GsYMuZ3fcGnjrW9+6e9rTnrbctuDWAAcZ9bHDLQTvpWOPDYYFgV8wIG5jAHnQ1D6rvET2BXLzIuUdlHU6nc/U6+pWfW2s2UqoV+tKM5k0wkiv8iUXIyE/8xBtYSzZVLgi4crg1re+9TK/GH/ssCFwZXHe8553qe/VMvMWPPzhD1/m2NWvfvVF5tzgZOexj33s7iEPecixE6Wf/Mmf3D3iEY9YbkNxUsPzDOLwBIa5ebGLXWzJc/WBDnFgFxAvv2QA2Hx43sLVBZsg4KqbTQc86lGPWjYs5jq/hEA78E3bOBbsA2G5UspElYnKU08SlZ8y0MkyL7KsXF6XT5I/Qs7z0ZxPdPZB56PjAfmZVhLEZFyme12hJNJ4dQTkJd981QVbO8y05i2DkbzjC87oOKg4OwPnOMc5jl3ScUXBfWcOzCtc4QrL/WPOtlj0f/EXf3F317vedVkIuE/MwczZJf/9ytUHKXz0aaMHOwcUMs7QOLMDv/Vbv7W76lWvunv0ox+9nAVyRsrBDJ8rppvc5Ca7y1/+8ru73/3ui362ZQuyzZkHljtKuajyEZSnfuXtg1pfZH42l5BJHdJ250ekfIRRvQQbhlfK3CpiEWfMuXrgRAb5da5znWX+cUXLnPQKldtHr3/965fbRze4wQ2WK1gWfq842Bg4QYK47cVi/kM/9EPLCQw8fPGMA1vY5HYXt7SY4/Coz0bGxoFNoC7gCunHfuzHdm984xt3v/3bv72cCHEi5nHzgz/4g8vzGzaxS1/60svtLfyz4eDjWte61nJChW3rVIzGSeQ4jMaj8md6aauWRSdLecL419oh0o52k4T55IFZmXyVV2yNd2Rn84ZSsRZcys2nvvmtHQ3ShnnLIPOiyisBFns2gete97q7a17zmsuB+6IXvWg5u+OhE5P+Dne4w3LAcHvhNre5zbIh8MudHCycgXHLjLdd2GQ40HiwysHOIsEBz3/EeiYK9H2+851vuc3BVdF973vf5QDmXjR2qceVCekTnvCExQ8/ccNvXonsv2xT7Vf5InXBmlzUOlXPfPJTDpRV/lZk3c7OFrupo42ZndSRX3lSRZXVMvOCTYQzd65CmHcs1Dws52E6t7iYG5zhe0LCVevznve8ZaPhSoCTFk544LNgM/7cqmX+MvcAzwc5UQJcVUBsQPglFk6UmI/Mf8r8lh+3pbAr2EyI6+Y3v/nyjIT5jS6x8NYWJz9sbIBnI2w0XPnzNhhXMfzWFnyuZDhBwj9XZmyeW2C/SRXyZjogZVt0RdWdyRIdLzGyIz/TjrcFXd0t2GeNPvCGgpN9HHX6NrA2LsuZTxsz3yO9mrfMIs9C/cM//MO7H/mRH1kOKA7wk046afeOd7xjkV3jGtdYdDlb5J4xDxi/53u+Z9k4AFcbF77whZeHjxw017ve9Rb+T/3UTy33kjnz46DxbNTbArx2x4HJJwM40LzdwL1nNic2pe/7vu/bXfGKV1z4nIl6mwtb2Ye0x/wasv0d1uQA/1v01uTCuLfEf1DYP1ti2hr3YcHCz3xwUWWBZWHm+cSP/uiPLs/2WPQBMTFff/3Xf305ieFlkjvf+c673/3d312upLkK4Yyf+Us7OVniqpvngTy0v/a1r73Y4Yocf+igywnSM57xjOVBObex0OVKmasYbvVy+xZwqw3dG97whssVOHORjenc5z73snF4FQU4fr77u797eTbE8xauvrkFTHxsKDzH4bacLxt0cLzEUc21DidqvPcBMUkjbI17zY6wz+337P81HOoKxeBcJCvQYcIZUNeYUbDwq8z6aTf1qj5w8QUpz1g4mDkj5AcKuQXAwcrBzG0C//FKfe4fc+8afr55w0Emn7MuZIA8BxwHNrH4kJNNCbAgsGhw5snZpDFii+cu1GOz8TYDByELAMBe9i+p1PUPMN+NBej0s7wF1rFe+kpZ6iRGshEfJA9/qQvZH8aSsoRl9Lb0kXnLiao3An5YZLnK4ASEFzdYnHnF9l73uteiwxxlDjD+nFxwRc0VK8/+mF889OZZHnP38Y9//LE6XE2w8HOL6f73v//uEpe4xLF5xhxl3jG/sIntt73tbcuVNpuIvnjewhUSoB/5VdxLXepSy6u/gBModLHHFZbHBHOdZ49c5bBB8cYX7eQY4WqfW2DYYdMB9ldHjgf5EUbrkKg2JTHiiyqrZZFykboSqHOsygXlLcf6DPbhFqT9zvbIzqYNxUDSCIPnAFYZkKdeyqsuUL9Dyki1l3yQOplPZNwu+mwGTHzAr/ACvlHAmRpXLNxq4OEkZ4m/8iu/slxJ8E9d3KbioOdBOg9GWeg5c+MMjYWAA5rbBQw4Vxnco+btFg5Wzto4Y8MmVzm83kmeg4/NBD9sNBzQXMVwm40FhIM7NxRBO7u+HiF1aj77t9qTv0b0rfFYr5bVAaYJ62gz8yMoU1dQlpf5jkDmq25nK3VE1VNeyXnIh4+YP7yOy21Pnpe5aLPwo8tJBreZWJBZiJm73OZiEef5Bbet2FwAVyCcADE/edjO8z70fJ7nPGIT4AoCm8//8kkUmxVl5i5z9Ha3u91yyxfQDuYjac4/5ixvcHHLlpMxwebFLVo2LY4jNkXi4QqcV4+5osIO8YxgP5mvfUlZpJ4k0KuUelDyxUie+aoDlAHG2HyF9cyDaruWwSgdoasrlEEZt+j8d2h/vp63iTiL4OffWRSVC8s4YNJy2coiy2RRzzSD8F4xvArk+OIMpgM+qcdiTR5yIlpGzgHHW1D44SoAm0584xDGz6U9/Lvc5S7LAcyZFbcQuNXALScejvM6JL75ienHPOYxy20ErmbQp/28KonORS960d3b3/725UE9fulH8jyg5MwPe9ggPm4vcKCyOQEWAzcM7l/zGiiLDBsXb/6wYNDHLBKvfvWrl8XERcF2ZfvslwRyxoGNkzGjv5js6iFPGyDtIKNdlL0Swx6UYw0oQ8SY8oyJTZQzXDZMFkbazG0V55Jj5zhmLGkHXW+10KaMA70si6wv0CFe+odbncThgi+0pT3t5DyDR3vpI9pu7B20lXOftsDDN3OU5yDU55gkRWafYB/Qb/QhoJ5zQxALdu3bjNvYkTOvKFMfHeyry2bC5sH896fQqYM/yvjnu0roo8v4cnJmXexyK4xjEz1ixo++KoiTfsQ+caMDT5l1iJFbhR4j1El75IlTvu0lr176wh4x6QuQl4D10gbABnOQE0hiye8yUVddfNBnbK68JEHs9Jfjpl3GDRBz9YU9/GnXsTJGQJ44uFrFH/8HlOui+qT4Mq8/y5Ag72vo2U+rG4qTC1gJkIfcUJg0NAae9oCNhRwkeBXI1zYUBhoib2MFeexSPzcUBsj4K6hDB/ruPp1jG+AhZxB4yAiPA4k+ok+AsXrWhy31scOEYtGGR97XPhMe5LSLviTFHgcb7eGhPLcq2Lz8RzDaxk9W8DCfxZjYRObtH1OAnMmFXcbMg09k/QQ2lGmPehD9m3NEPVLk6NMf8hL0pRsK7ecBM+0nLuphlzr0C8i2gPQFIfeATFS/I6BHrHVDSfvmLRtTjY22M7bYS72EdoiZvkAfPeaWbSfP/KHMvOAkhgULPscMMSIjTsr4pS9dxOABfKBHah/hSzn1lcPP2NChHdjGL7fZmH9sKMiMk5RNAlDP+Yw9jhFS4iU25wZ18DsCegB76lEnQWxsKBxv5JFjG5imT+xUOXWQEzM28Jd+zJNqv9oA9hHrEOPEhuKmkKAfGFeez3JlSOysV/gG+AfW1Z9kHJDtwiaAl8Am48CGwgksY4Y+SJv4oq79kzoJ5N2GcvrquEKjEEaS0knqJak3o7RVZdCajZRXpF4nZ8DpXDqSTYSOh0eZAxweeSYjVyHo0oEQgw8xiOjSl+jgh0nJWRz1sMkEww762ICQETv+IGxgi0UDXcAVCrY4i+H2G1crbC7As9EOtc1ZhojVsU9+19fyTAF1ydMPpJ2tRPKltAfMK09UXtWtstqOUbtGhFykrmV55g9L9B/jyckIqf0KCfLw0WE+ATYOFyBsMH/goeu8Qh+S79hpG1voIae+7cIXtinrB11lgjz1mKcuphD14HMSxgkqefwA8toyDmA5+VnGpnFB5NUDqWe6lbDV5TteJ08yju64kADyHI8qT8hP+5lfo7SR+crT5sz2CKf78pnq31ORRnmFwj1PFkZveTFwGjFFnwWRicHZLmdzdHIFE8xOQz4KBjm+mGQjoMOkxYaNTSCH59kcVyj4J68846kdJh+ghy90iFtZtkEdUvgpQ9fNhE2Eh5Y8zNS+egI7kH1d5bwVw3MensWw4LDh4C9hjAIbXT8Bb1OyUCSobx+BtAFPW52vKtMOfNpVgczbNFyhcKXCsyjaxrzSPnboS+zkmIH0ST10WbRqu5FDyAFyaITRFy21Yx5oJ/0BfBETba/xJJj3oPoCzAnGmTlNyjGJ32oLPfqozsME9YiHWLrxALYJjOIFxMxr81yh0M5RX2pvZIu6Wb/TQ46dUcyCKxRuFY/WEH3hYzQeyPM47KAN0Ok4PjwzImXMqNP1kVco/JsCdwycL9qgHn1NXeZH9YceOurXNSHhFQpv5NmGao+2Y8v+qXKADnxuYULGC9pZoFAYbGccbJHNdMBMdhCM7NWOSj3yyNUR5BmoOsnUR9bVYVEklYB9WaFOtQMYfA4UXil2wrhoWCdJvrQPap0sVz5tYXJZFtbJWDqkrNNRjp0sy0v75kXmQZVVeYdOB57xAHVmujW2DiP5Wj2BnsS41GP4eGIUowvdDMqznzra0iZ1jzeMZw0ZT86ZhPJMoZwz+JJ/GKSNkb1921XRt7IBk8MJIq0hddf00/YIaauS8oqqV3Usd7IZOt1Z/ZTt4wc4GbnScQFPYE8S+/jI+pLoeAKe8yKh7qxuh1E909lETn2QedCVKw8kb81XpYo1+UExs+lx1GFWDyjbcpyP+AltJVWb8kZQv9ZLzOonqi1JjPiiypMSlpNfddaQdrt5qLzSYdHZhETyvFJJbN5QNJoGNTY68PbBUdgQ2JrZW5Mnsp0dttrK/jsouOJZO9MBxrQlrop94jtMWypm8Sqj7dLxxiyeo8a+frp+N960ddDxOap2p/8aC2V5szj3iaW2f1/s62sL1vQOGzPYJ5a1Y2eLrZnOpiOzmwxfi8iOIG/5sO3ZMggnCrbl1I7peMyRr9V5t4av13YlZvPxtHT8HCVOa+3aN56DxL9pQ6mGKXMQeCBkHliuxOVtosrTblKnO6LUzTyUl9yS6HhgFFNHYMYzX7EmTzgW1qlUZQcFfvQltthUXm9lmNdGUvIzvy9VHEYn84luDlUS5qu80gxb5VUv+VIi+fuS9UUnq/nDULVTUXUyb7mi063rE1DW6aasEshjoMo7fldOzHwK8528y1sGNb/FX8VeVyjVYOUDg+iCgQdx7y31JOtL1kt9YL1MpTWkbpIgr81cvDtYV/lIL4EO9qFsl3WVVVKHmCgD64Csry5U61tXwDOVarkj7dhH1UduRsk3L+0D9O2zjtLezPZW31WHct1khTahGk/KOqqYyUTqdLodn3zO6ZQlRvwRtAXZbtMZoQOIqZN3BLbwR/1f0fGMJ9twopD+ap54ar8qM4WqDpRyoI42s84Ma/LVDSUNjIzJJ818BgrI1wUh9dQZkXaA9UirjRnygBqhyma21TWODikjxVbXDymrxCuhyLShPVDzHWFDXxXIE1nPcqLaQS6v1pOUq5PyrUgbHaXdEVK2ppf2tJ98kDz5NR6QcmA++VUH1DKovNr2rk5Fje8w0GftIyjlWbaPRC13daVEV666I9sdlGV90fGOCmm386FvKXmZt63yQdUxr551oDWsrZ+brlAABjAmJSxXWacrZjKhDlQbkLIsr6HriKyHvPN1VMBW2u/8zWAsGVONr9qjPGsDsko8vKu8EZSlbhcDmNnZB/qpOCr7FfqbjZW+1RVd/9fyCDN/ovpL7Ms/KDKGGrP8kU8WsqwPOt2qM4Pz177fWi9xkDpHgZHfLXNhi47Ifsn8DOqM/KxuKDra4gykfi5KgP+d4E0l/p8DmUTZ/68wDym3nnaqffWglNc8MG/dCvj1/03S9gjVTwK+9bWfbbQeKTL7SB3ImBhI47Gu9s1DiVpOdPoVytU1pgTlGkMS8UM1bmgLUh/SRvYPvLUFJPkjHTCyMWujlDrGA0wT6pmvmNVRpj9QZQl4LgTUgTp0dWeo+rWPQM07ZpahWq+jiuSnXqXaRyLzgHLOIUlZ5o8SIx/pZ0v/5HGWfFDzpupmH43g/BnprW4oAgOVCCBl5jMVVafmseVAkq+25ZMeBFnftKME8WQHJhlj5VeqgNfVFeZTL3WNZwbrWqeSSFudnjaUJyxn/wjyUpYrRjrmk+RX1D5KZH0p+ZlPqjioLJF6lRJr8oqRHH6dAx1SvpWsl6jyRPLMV92uXqLWS6roeBVZ1zz9lUg7Nb9GIOdklXf8xBbeljpgVMd8V49ynT+VOmzeUDqMFretzpPf2ZrVG1HKa7762Oqz41F31P6KjKFixB9BW5WAB8Q+ce2D9DWC8pGeNqSDIOs7DvuMxxaM4kvfKa/8lJ0IdP5m/XE8Yqw2LXckzFd5JXU6pLzqdLwRsr9mNrfiIPMx/XXxAHVSt6KT13zKMy8OEn+7oWD4IMYOgmzQPlirt8Xuvj4T1N2n/iie49XP+8bX4TCxnYh2HbZ9h4WxdHEkv5MfBmnvqG2DrWM38g0/SZ7IPKjlhDZmOqLqbamT2OoDbOmjff0fLxgHaebFUcbZbih0VnXSdaA6s87dJ3DkazodZnV8k2FGVUeQx7a81Mm3IpKfJMh3urU84ycv8x0v85U6jHSyXzt5B+Wpn3VG/ITzQP9ZTj6YyQ6LNVuj+IGyWTvFlrjTxhZ7mYo1H2KrnnO6wjZL8kaYycCaXKS/w2KtD7b00ZZYtNPZg1cp+Zm3vBUZ2759pn7nc7ih8AuXvqoKwTNfy+R1UvUqpU5NJcodpTz15UHat7HI8pXZfA3XfBJ8fvGTFDvy1M98lpOXZFzejqryLr6M86BU40n7kP2TOtAW39imj8irb58pV3eNqA/oo5rPMiSUQdrBZ+qkjSRtme/kgP5J3Y62yNZsQOqAqisfjHSAusnPfpZSPtJZI/xAPPw1nzblpWyk08mS8Nfxk6gv0q7xqpN1ktRTN/OWZ7qVD4lch4xNAuh67IBOrxI6I0Je7ZCvSDvmU5+4lCcB2+Qxkmh/vv4DH/jA8k0Ov3u+Bj7pyVfADgsCduE9DPgQFm+R8HPopwUwYfgpa34x+LQCPjlwjnOc4+TSqQf6hrfa+CIl84/Pzp4WcFT9w3HlAXgY8LEmv2tyGBzVMYYdfgqdTyCcVsAnGfz66QhbxuOo+ogPkDG3Z+sQP/9+5StfefnkMx/i6nBUc4hNgnnEp0YOAy42aBfrbP35+mMbCp1Ig/jNfTYIQBm+yuRF8vhyF7os4vIz1QaO1VEO6Cx0CLR+y8COJPXMlzwxpwxgE/vE48eKsIkc0m/1XZHyROqqk7pOQlNktItvfrBw8l0Ez15qPPatr0enXfLwsIEefSQv5aT0ETqUIWNRFyDnM8KcMCBPX4Cy8WQ/C+S1Dqh62DAW2gWyHny+Oc4Ev+Md77joPuEJT1gmPXNFHerkFQg8+ZapS5l854t8loF2EujQZr5fw0kVsC9EtaWNaouxJm7mZNePADvYR4c22w5BnvFmvMiz6WIzfVIXwAeOeQX1mUP6kifIZ3nULsr4Yuz4bpK8xJotU+IBxtOBPsGf60cF7YX4PgvxoJf+8UU9z7opQxmfQA75bRryM2DDtgh4xMBiy/eGOEl33UpdYuJE80Y3utHuyU9+8nIc8IvittEY6SPy8LO+8ROj+W7uA/oHHvOIeW08AtvE7Hg4h6ijLerwwUE2SHRZZ/l6qP0Nhh/YokMZHBykcYPQAMY4UyFI8g6AclIbjJzAySsH2ETHDYWycv2RMqnsCGJKGYQNfDBINJxvw/MVRPVAZzehLfx44LrIg4ybvO21nkh9JgkHH2dz2lQGsKGdbkMB8BgL9NxQEtbJyZdIn/QdH/bhgz7wc3KlXfLyU27eeJyMALk62NXeqF1stnzI6na3u91SfuxjH7tMeu1ZB1/4ca4ag4Cnv/QFiSwjrzYEPphDbLj4zHYA82krU+Ecoi0zfznPQNqlf1mU2ODI8+VDx1gdjynteLxWUB8dxyvbBCgnL30ksM9xxYLCV0mpU3U6W1Lq0xbgeCfUNW50iF0oB8g++clPLv2TbUOHeKmHDWxl/2SMADnkHCI/Q/oR8IiB/nEdxXcFMo7Da1/72rvf/d3fXe5gzDaU2kf6JkbzdQ4B6tp+ji2/JJsx0ycQvqirLFPmMzFwsk7KFRjr2in6e7ShkGeTqAOQ0DEDuXYZlUGOQMA5YTpssUOn0bGePR0UtB1fa/7WwCCx6c76yIk76mtA29Gb9dFsvBJ8/ZEvSB6mbfhyko3srPUhfcNYsaFwAsAtr64NW9u1ZX5swUknnbT0z2GxNe41bLl9sgWMF/Ecto9YkJjTR3Ebd8uYbelHblMyZoft76MaMzYU2sUmNwLjevWrX333kpe85NgVccVRzWnG/ihuedE/gPZ98YtfXNYjYgRtryHEOSkHPJNHgg+RRwYsA+pYXz5XHhBldQgqU2ToWE4S2jImfVjHGOQB9SiTUk6yrqlAV18drKOdjCMJYAMZ0Cf6EnJJG6SStu3H5GWetOpIqQvk46vKidF4sm3Kja/GrVwb9p/xdL6QCeoA6mhHX+ghr32ThE76ItUONGpX6kCA1HgS2K22yeszdahv3OpZN/PoEFPWFRmPOiOftk05aeaz/dav8tSxrK56QDmAZ9xQtUcegq9cXezUMaspNuxH6yWhA8hjj1Sf5AVl4zaeSsZjXe1L8Lt2JSED2EIOlGnPuNCljC4w/vRNPPZR2tC/MUPaVU9doD5IuSCPDeOG0EuCZ52sK9oNhd1QYqeG2IU6AuqAWi/zqZOyqkM5SaS80ycPsl7qkBpz6gP1Ex2vA3ojAvoH+DeOjCup8rJOrd/JR2UJmMdXlUNdPfkZX9XJsnnT6su8QG6qDvlaNp9U+ZbxUX1mOXnyZ8BugnJS8tKHlHzzCeuKzAvrawNYTx6UbTId5atukroSINW3eSl1laVO5i1XvUyTrCMl1Cc19qojrG+dSp286lqufAgoA1U3+TVNqnVMZzKQedO6AcBXBixL2NAOJLDTbSZgfvScjDRgvuNVVHlXHvGSRCertAZ07Bz1u3rZgR3s5E6vxpJl8508+TNe5me8EaVu5kdUdcSIJ0byGT/zhyHRySAxk22ZAzN0tjvaCv11dZMnv/KSRCebkfAMF1SdLSTMV/lWGqHTSV7KOj5UZbU8o9TNfFLlr5WTRjJRyyDn62zupr2ZjQ6rG0oarPnqDMhPEplPjPTFjDeSdXL5I1LHtPKA/BGtIXW21qk4SJ0OMztrsSmrOtab1U2k3lqdfeTkO335naxCndRN3hqJzI+gTtaXkm9+DalfsWZnZr+T7asP4Ctbq9/J5ac884mOJ1I206vYoruPvRFGNkZxV33K8qpeUvI6VN0R2g2lqySvM1zLwLKy1Kk8+WAkG/FMkw9qflSufKFO8hIpn1HqipQfhA5rI+tnPkmQ92y0yjOt/H3IOqLKpZms0khXkO/aBSk3D6rMNPkVKUvdjtSZIeVd3Ur78qWZvMpE8pIOKpNGOjN0upV3EMr5smYz5ZlPqvxaHvEqpU7ms2xaeULZjNSbYdMtL6BROtWOJQXJk9+lQB35WQ8C8pVVHXlVB7I+PPOV8taBKfxMk1ImURbYs2ydkX7lVQKkqVf1Z7JZfShtdHopz7K8KjOfVPWTOl1BGaRelc8IzPxUUn9Nb8RP6mx09jtK3U4fpF4nB9Yd2bG+8qSqO6OsM6qrDgTkVbmQ31Hqpo0kYF79lMursixXfsdb05GAfFDl8gW6IOXw5JtPWU1HlPWznLbkg5SlTuqmfmLTLa/O4IjnWwDJT6Ru5hPyk0BuBEnVlzyQspQL5OpkOuNJlAF5U9tfqdqredBtdElg1AfKAXlsp31p5D95VQfq2rWlfiL1RnJQ7Qrync+kLf0jaqyQZWW1XPVGlOjkSYmRnBSfoPOdUFfqdM2PdDpKm1lnS/302fGrzUqJTl7jsQzI+zaVOqk7m9u1DuWkTgfSr/kqly8sj3TIp08pfYiUJclLnSTRyZJmWN1QOEAhn/gnbeFbX4zqJJKf9W2MvNSTQJdP0h7p6E2WNTIGYTllXZ3Kk5DZPstVB6Azsp3yLe3ap93qVt+1XG0mkj+Sm3Y65GcxE0vOkU4uqmwrYaOzXSnRyaWMaWQbdHkpbVgmpa+yv7QPzCtLGvFnfd+RPmZ+RI01ddTL42NE1Zf15fM/UymH9FvrVtLOln7IODOfBHK+gpTLAzW2riyS31Gns7U+eqlb8Q/WV4AhB1zin6z8r0wGyX9uUy4PomwgUGdvJoNsDCk28V19kBqPsZF2durCW+VpP31L6sMHyZOsN4pH++qqD6kjpWzkS51OLuEP6Lv6gpdtN586+kKmXJ42MjWm6ksS5qknWW9Lu9Qd6aV8FAt2jIG2qZ+knmRd5dYB+km9JPipqw0JOSAlHkBqfesC6zgm6QeChw/9dHL9mIeqTvoAGU8SetmmKlOe/ErGMIpZHUBKLFVPvnFqU0o9aWYnU6nqAXVA1YGA42E59WofIVNuXh/qZaodCJ51ALy0bwpSN23IQ65uRbuhjJQTLMjuriPk7rtmc4vPhLa7GDK2Tg7oQDCSa2MkT2hrBu1Ue5a3tH9rH23VG7UNftIII/msToWxdjFXO1vbNcPMX2LUNqF8poOPrTGP9LSfvjqf2a5ZTFuwpX7qjPS3tn0LZrb0TzqLfU2eGOnJ32Jni85h+2hrewC6a/rEY0xVl7K3zEZxr66EVDSQdJDlKgOdbK3ztshrPGk/08oDmRepuy+q7ZGdlNU6ppDtm2Emz/4ZofqskF+pwxY5mMWcOuarTesnryLtdP5q3epDJK+TA+tWqsi4O/kWWC9tdLZst3qdDrxZ/4woYTllnY689FX1gDGPMLJ1EGAnnyekbZC85At5VU++sJyyqpPY2kcpswzNFvmsV/MjpF6FseizYv3UegAMdw0YYU1f+ZqOMN/pd3pgTbfDSF47fM2O2KrXgboHjbfDTHeLL3BUOmAtni1Y00O+xdbsoBJrcrDV3xbo77D2uvrJ22J/pn8YWxXIpDVsGbMZ1nykfEs8R6GjfKa3RQdk33T9RP2kEWbyTRtKV/kgA7dWB/lB7B4Us07bFycy7jUcZbtOSziKdh3lOB1VP2+1M9PrzrpHbT2KPthq40T7Uvcgftfq7GvzIDEcT+T8mc0lZZ2ObRrVP/AVylGDQE/kAOCLg5COmXXuKKasc6LiPtF9dCJxVG0b2anjtTbuR4WjaNMWbG3LiYoHVF9djEcZz2HHNOsexs4+oP2zPlB+lP10PHGoW15bsHWQDtNxnd2Rr339zOyYbrE1a7uymQ7YJ+6Dghgyji1xHwXW2rXmC7n90/VTlVV5BfYO0z7t+4bN8Qb+fFNHf9Uv5Wz7Wh/MsKVN2PfKyXKCsjTDFl9bgJ18m6mDOl1M+8axRX+t/SlPe+b3jWkNM7vw1vy130P50Ic+tPyGP18Y5EM6vsWUjXOi8JGYj33sY8t3EXiFLS+9Uw/y1TN4Fcj46WTs8Y9GCRsBH6JcJwZ57PLxqU996lNLLHwgCZtVz9hA5gFyyJ+oJk9M2kj9aqsrQ3/3d3+3fKOFz5Py09DVFnHbJ8Rd7ZCnf+xL+tDYhHWwT9+g38H6H/nIR5ZvR9TxQA4lsF19AfqWuvgibpD1bRf6KRfw+aAQ30G5zW1us4zdox/96OWjPeqjQx3aRazOxQr9IrdN2a6MP5HxAMrU56ulfDeCODqd5GnbdE1eQduAbU7QBuc0cfFxpJzT+kl/oPNpfzBeEHXgpY2009lATh/zYTQ+QsacrnNRdDzt4x85xzMxkEfW1UGOjxz/jJM8MuY0H2vjeE1b5FNfKE+9TEHqrMlFjhnt5EN2dR0CxMk3ZX72Z39294IXvGD5AB/HA21B17bSdnzC00bGAtmH9TgzxRZrOd9D4XPtuQ4JdF0/IP1pQyCjXXwP5Utf+tKxubTIlr8F6UijVIJoLETg5meUeqM6eSDhq9PZSjSWFJvmq9z2pW5HKUsbkrYg8tk/HY3kI/sScuoKfK3VOQwdT9tJzilhvtPdQvSLcGxTBm0dL/vgRPXFjLIttV0zqrFTdu5vnbMj2tIv2dfVF+WMBd4+fY1uUvKqrrKOn1R11sozon3qk69yyPYD+ib7h3z2UbWh7a0xpV4dc2RJHU++cY0wlpwMJwSpjU4CBgbQ7fSkzg519NHVV05eX+YzhUCXT9IXlHVTBt9O1L8xVP2Or0xbUI1Hfs2P/GALjOSV15Fx6AubVV7LlYcvSD6pvFrHNOVJ8IBxgKwP1XJHyLXV+VGOn04uoQfM1/6RD1W+hMy5A/A304dmcqAcpAy+RKxdvEnqENOon9bK1iNf45G0r79qJ+XaW6NqI/nY6WQQcuvqz3K1iQxYR0odSX6VUwaZ72wA+yf9KocH2bbOhqTMOpWfNoByKOsgl5Spl7agDqsbCqiXT4B88lOWqHoVVdbpCGQjUm5aeSD5ouMBeHk7oCLrmd+qK+QnzTAbSGD9mZ3U6fTkV+owkievymbIOlnPcvIqZjKQ9c13dapOB2VJHeA7h0Y6YM2GaeYrlFcStVyhTL0sJ6qe+UTKxIiXaQfrSR3kp06nLy9lqSN/dNwrT5KfSP5IZ4Q1W1k2rbJE8mu+gzqdfMRPbNpQRovYbHFLzPSUkUojpCzriRkPkJfclUdQbwuws1V3q16HtZiUHUUsa77EVl9r2OJvi6/ZWOhjNu77QHsjf2BNDtbqC/OdfpVVneRXGUjeSGeEqmv9pA5rcqBsptNhzW6HLb60u6/tEdZsOZ/V6XRnMtDJR7pgJlvD0RxZG7HWiMM05Jv4JrbgtDjH1s76TjS2xrOlL09r/f31uMYc5fw5bP9svuWFo3RW8zUQeSmbNRzZWsco1161X/lrqPYqZnZSthb3yI68kbxiax/NdNJnB2Op1EF+lScf2hJPwnoVa3ZmvrSnfORD3kgOUmZ+pAu2yLfA2Ls2dry0O6pLOWVd/iDQ95qNLW1HZ2ZHG6SZr6h6UmLEB1t1Laes6lRs0UsZecmrmK6P1BGZH6HWEfDW7sasbiijgRw5rVAHO2uTa00O1FnzrbzTy1hGdmb1hTa0N7O1Zk8b2hxhJlc2i1lkTBXJn9ma2RBrbVKWOtXmmg3R2eqwxd5a27a0HRzV7TWgv85vtkd5xwO2X0LGK6U+OyAF+SxBXUEdbabtipkM6H8G5DwQXutL9LbYmukoG+mkfGYHbNGp/VqxJtf+mh7IeEZxrcULZn5Ov8UAMGCJyZYTzzxIuQQvkbYsm26hzj4pkGe+1p2R0IZ2RFcHAtWX8P9nQOpov6uTPPlb5FC1mYQM+P4/qHJl5lMOidQT2pDUz1RKOTCvXfWE5Y7QB8xnyqDKszwi7ZASB+h0su1S1SEFnbwSMK++BLo8/5/ARsD/hJDyPwzmIf73AR2IeFmQJfoJcpHm/yZctH2bxzL1+f8E7EH6IsWuPpXrzzg7Qg4Jy50ufUIcWU6CB1KeeskHyUs9yBiMLWVQ1st4qw5Qx3zqQMA063RyeVnWvnXkm6qTtkfxpB6o8tSb4XSf+MQn/t6DcPaPjW486JliPP+xkQmoXMeU5TlRkdXAsM9k9J+ShH6Jgc6wQ+ArA+Sx6T8UYYf4sZl6oLMvtIsf/8mHV0BF1gWWtUNZG4B09o+N5EntD+KGV/sIHjGhSzxVRpzItE+5AzqMA/8Elv+4Byk3L7AHqk36ljgYU/vI+tQhRU5eOeW0z/z61m/91uUfG89whjPsHvWoRy3/LIV+tmNLu+yTGguwDVnu8qT2D3Oa8ah9XdugbdMEurOYTdHBL/oSIKVfPvnJTy72v+M7vmOZT4B2nulMZ1r6fwbmDXb4R7STTjrp2HHKwk/dz33uc8v8xDZjgS7xYJv0HOc4x+6MZzzj4j/b+MUvfnHRF9ijLhsM44Uf9J3TEr61Qx6yDeQTykHaSFj/ox/96PKPjfQLPH0J+xRUO7QTXdcYYsdm1geUk6eNtIUf1qG/+qu/WuyO/rGROD/96U8v/9j4whe+cJlv9J39Zkz0JaBsahwZD3Wc+8Qgn5S2cBLQ/WMj8sxbT39CProQ86b+Y+PqhkJHpGH00CdgO46BZHHygFAvCSDHljoV+MKe+gnr2RESMM9E6DYU49euqfWFdiDPyqiLLYB/62gjedZNUD83FOPJWLBBCt+DofpCRkzk0enkAB1gucaDrgefYwYPQtc8BOBJQj36x4MPAtYjXWsXYJK7obBoPfKRj1z6S33qou9YWDdtAHSJBbgJwFOPMsh6nQ1A/+SGW2O2HUIZabVJTNhLHeprQ5+0jT60DfSL9uCzGbCxnOUsZ1nkggXp85///NJn733ve5f/vKYuG8eXj+1lMeOEj3mBDzcBbOELHosYCwN8jh/iwic89L/92799mb/88gR9Qj3WB/S+//u/f3e+851v8QMxhjVGxg7/kIuPc8bjGT7I/gH4sK+zH4F5dB0z/1NePlCPuLFFmXYD8mkHOXEy7urATx3sZL3MA+RuKMTFrxvQToCeceHDDeXf//t/v8TO2NEv6OjfurX96CQhy+MsgS1s448NxQ2u2iN2gL5ybacf6MAbihXQE5QJmsGb/fSKeqR0FLZqY7ELzw2lQr801sG0wUIbxMAuTFwcCEyO1DMe4IABdUgh/LiIYRNetgukLetBwrIbyjnPec42Hsh26avrI+KB3226yOEZM/3cAR3GgYNv9NMrmYLsJ2D8jBd18UXcgHrWRQbZLpB2AYuZGwpnxL/2a7+28NTXF+3CT41FYJc+JLVuQr+m2NV2Arn9012hAHS0A7RTU+oRE/Y6f9phTgDaxxUb+vU44OdoPv7xjy8/CcPJwH/6T/9p2WRY8Nk4WCSIlZgh5/53f/d3L33GVQb2iYHjmoV/Dczbv/7rv17iYYPCF/XpG8YevyxQHP/o8BM6xMY85+QJ38Ty0z/90ydbPCVYjOgf4vIKiP4wBc4hYPzZ94Aysu4KBZBCHj/k6RP5CeKBsIFO5yt51k87+KA+fYMNNuJ63ANidkN50YtetPz0iuMP0McXcZO3/SBjsI+QOfeVm1KXDYW18dznPvcp4kmbzkXihhJpkzqH2lCqcxpAHRrPxGLipGFT9SDkqZNAzw1FHwl4NNaOg7LBlJFhn7M0Opb2MDlSD9/wgHbMm0LoOJAcqMqN3TbhE+DDusI8CyQbytnPfvZTxKONtEPc1IOXgOcCPtp0qbNlQ0HOIpBXKIK8ZVLsSsJ8t6FQzvqU0ccPqTJB37CR3Pa2t13m3iMe8YjloNKeddxQZu1ifpAyXhXwJYBdKYGc/vEKjjisI9JW2qi2aDtxY8P5IajLXHCeMaa2GbBo/+Ef/uHuL/7iL3Yf/vCHl4UdPTcLrgrOf/7z7y50oQsttjhWXYiOAsTuPN0CYiNGNiFuz73hDW9YFrD3ve99y29+sVgSL2285jWvubvABS5wittl1KcvGF/6ydT5BNk+8gnKjln+lhfAhv2e60eOhyl1kBMHvoghfZknhdK2KcAGdVmHSLmVqN8EZX/Liw2FKzz6wXYipx484rVPQMaCjmX6Fx1jFNT3CoUNP9ehBL6ob//oD2gTgt/9lle7oTCBuWxlktqYapxGQDQgNxRhI5OQp/ME+qMNxbIHoLEQF7YsYwP7dBqTqm4oxoEesF2gptRzF88FytjTVtbVF5A/2lCANowpJ0QCHmOBXrdgipx8HbCLfG1DkVfbBIwPX7QHGy6G1iO1XehXucgNhfRXf/VXD7WhgK4PyUugaxdADn/rhgKwJSVoOzHRP9g0JjfivEpg0WVBfulLX7psJIwPVxWXvvSll3nMAvwjP/IjJ2t/NbBHv+FPX5D95SKFf/joGH8HY4UcR/mMOWVkjonj1eEDH/jA0p+sE+985zuXPHa+7/u+b3eJS1xiaefFLnaxk7X/4djjaoj5QNz6sg0gYyfvmOUtrwT+ug0FErbVOU270g+gLGX9tIMN6p7oDQUZdUmVC3izDcU6+CI/6h8J/uYfh9yKdNZhTZ4w+K111Ov0k1fz0mFRbWy1ezx8g4PYndVBtibP9CiwZuuwcoCOdFjMbMnjYOfg5ADmgAacNLGZcPuBe+c3vvGNd9e4xjV2t7jFLZbnf+Sf//znLw9q73CHO+xueMMbLpsJtlw8KuGP5yKc9bMQYx9icYWIoS5Kxt6Rcutoh40DP9jm5JN8t5kQE7ECrkyudKUr7W52s5vtnvrUp+5e8pKXLFei1GUhvfWtb7272tWutnvwgx+8bD7444QWu2yS9Bv9twbjrhjxK7bqgX10D4MtflJnpj/S25JPjPhg04aCAY2YdwdLXkJeEnVGshmJTlYp9TLf0UGQ9e2DEYksV3mWZ/zkZX7GG1HqZn5EVUeMeKYjeSfr8oehLXZGOsnP/D7EAmjK8w/AAspZ8pve9KbdPe95z93P//zP7377t3979+/+3b/bPec5z9m99rWv3f3Gb/zG7rrXve5yn5tFmVtIXMVBbk7V14hGmMk6dPpbbBA/oA/YGGgLxKb3gz/4g7uHPvShu9/7vd/bvfnNb97d/va3X2613/e+91021Kc85SnL7TL6jI3LjUXYRknM1iXLSSM+VGW1PCPQxZJU+WvlLSRqGSTPfOokb0Qi84kDX6E4WfbBWh3kB7F7auBrKdZvFOwzHsd77DjLBpxl87CaWxFPeMITdj/xEz+xu93tbrdsEE960pN2v//7v7+74x3vuNwO5crFhZPbYiCvNvKWz2kdLDj2ASltsy3cVrGN0JnPfObd5S9/+d0zn/nMZZPhioxNho2VK5e3vOUtSx+yucyAz9PSMfm1uD4cNuZ2Q8GoOxC7bJ4VCfkAvnmhPpNJqjoJdL3/NwL10YHI68M62id1Mld7lJFhw5jSljBm7VSgS720U30J5MpShzyE3HbNMItHrOno33ZXIFcmZcwJ2179ZbvW4sk2Gw88bQBSeMo7qDPyhTzbBGk/IQ95xpaotiinLRZMgIzbWg94wAN2V77ylXdvfOMbdw960IN2f/Znf7b79V//9d33fu/3HltYrcPCy8LpbaqvN9BP3jbzNhrrjRvpec973t3Vr3713bOf/ezdf/gP/2F3latcZXeve91r93M/93O7t73tbSdb+Yc+9plZ9r1jljyR87EbN5DyCvWRSZ0N62oLVB2hDePu5pzzOm3ol/rI1KlQDxgzSFsJ7aiXoE7nI7E8lKcyl6U8/ONylFcTOWugzEBjJDcZYJnJwcMwHiiR9x6vOknY0RaUoIyvrQ/liTn1yOOb+jzgpMzDMA7W1AP4kpdpxmQ74EsJZBLo9JAxQDy4+uxnP7s8DCMeB8u6+IIAfQiUCexyEKHHQViBnDroYH808OjggwekvM5YbSHPeLCVfW1cpJLtTh3yjJX6+IRnGZCnb3j5g7N2Ymah5XVE46IOsdAu+tK+q8CWC0zXh+SzDDJmgQ5+fGkBW7QjUW1pw35isWQOPuQhD1k2kctc5jLLWfcP//APL3o+HEYfX9/EP/Sp847+oW84lgVXd0972tOWB/j3uMc9jr2gwFyhvxknXibiVXjXGEDKmJAyh0iRO2Y5/sbAeLuwageQt0xK3c4ONpi/PHCnHbzhxhVpzl3qEzMv63CLj1t/zDf0nBPYRM81I+POOCB8IhvNfeqzvroOsXkbD3J90UeAMnJT7GsHHlea2PrCF76wxKu/YxsKg8jriFyW8r47ZR6MuYADKwF4EDz+sYqNyAFQz9RgcIyv1BGU6TgGQn/CMrEYjw0TxgLfT8i6GFR7QF6VGVeND6Rup4c8dYzRM1A26a4/6R8IEDNyywIeNuB3G4pAB7+MRQd8ImchJ570vQVdu0W2HWgbfjfRARObCc5tHyb8b/3Wby1voqhvX9Au508H7B7VhoIP5jQLGmQ9dbUFwSMldl+D5TPGL37xi5erkl/+5V9ebmcBxy8Xym/iH2Af26+AvqJfWbycz2wsv/u7v7uMERsLD/t9m4q3jrw1qA3AGCGn/+Hn3EogwyfHKDZczwR5CVBfG2kLOXV5Uw17rKl13qLDRkjsv/ALv7BslsyT47GhAOTwiIl5qr7QPn0EkEHWI0+/0L/8SwlzmP7mOMn+bq9QeAeeB2H8h+cW8GYKrw0fFgRfO/4g4MEfYCBPC6Bd7OaciR8WDu5hwRk0VyinNtgEmJC8NswG97CHPezI2ngYcKBvnf+CK/Wb3/zmy4bPs4CLXOQiC5/NmwPQheKb+Gq4IJkmOH5YnzzZZNH7zd/8zWVz4eWGX/zFX1z0WLd4meGwOKr5x4kt6xlr6Qgsylyh8E35o1gfZqBd+OPC4TBgPAC22KBy421XbzuUQeQM0jMryqTmIXRZFDw7VK4OfOqzy1IG1EkdUvTwZTkJfQg7nLF4xq/9tAEYSOQAGXWBfuFJ6QdSF1ucLeAPPrC+RH38QBlHyqlDuyAAH17aoi5tgvRffVFGbjyV1EdOPFUuEROgbcZEXeuTokNMXZvUgYgHO8atDepAxOF4pTztGAMHHv5AthEdbKG31i7qoWfMpLaBlPrEAuWYmZrHJ6l541ZHPW63kAL+f4b7/Ve84hV3r3jFK5bNhBMb6rGgfHMzmYP1ZkQsWF6V06fw7nKXuyyvVr/85S/fXfziF18WN06I+V8eQL87dhLjzhxxDNFJguecdeyr3LGXOlvOCecagJ+xUAbIKePXsnbgY5s5DT/96BdfyIjZ40b7Sfrg5Ea7UtbRDjZtX6YQusA0MbwcYNA4yE3lSfBSro55icmQeZB1lJNKyiR9pizryYO0L6xrPnWhyqu6psmTL6XeTA5Spm62Qb2Uy89ypTV5kkhf1resbsoqb00vqZNbFpRBpwN1cyMJuZS8TqfysmwcpJJ6EgeTGwX/X/GCL59hvv71r9/d9a53XQ5MDjyukLX1TRwNuOUCWBh59Zhbi7xyfNGLXnR5XsVzU8bGcaxjOKNuHmR5HwL6BfAsa1e+8VqW0KsxdaSOqfaT4LkBKEe/1klbmU8euiN85WguoNKs4lZ0u9gI6O6jvwVrbTiKNoJqJ8tH5eMocdT9fFgcRR9tadNh2u3ZHGd6HFhsJtzD56dGeLWVF1O4YgNekZwWx/60jC39Rd+zWTMO9DevF/MyB//D8rjHPW6x4W3v44WjOn6wc1qdI9lGYtwS53BDARo8qs47SsxiStla7MiPon3VxtYYjsr/UeOwcR2PNu1jc6Z70Ng4SwM8+CR/vetdb3fBC15w96pXverYAscZtHrfxMHg4jUjwKZNf3OLhtuNb33rW3e/8zu/s7zYwXhw2yaxNu77zAtjON7YEtNB5/PxQDvzCVDijMx7bFVWeSLllZ9IHXxUnpT8zEPGJokun3qSqGXBxEn9GWUsoOYzFalToUx5ljvKPjRf4YFQ61ZKncwnJarMvhDmU8eyac13ZQjbldSlfZbXCKzxhXluZYGb3vSmix/OjI3BN2y2giseUf1VqIsOvmbwnvdhgQ0eunJ7iTN+iLxkeeSLOFjsQdc+eRIb8kHi5oUHYuFhM89U+IfRd7zjHctzl7SnH+eH6Ro5vl2540NAGTAVlnN9AeYtA/LpR6o8fSdP0k7NWwY1P6MRVjcUQb4LVpl5dEAnt8FS8kk5s0s95UyKLAvz8msZaMv6aScJkKaui29XJ5HlqpdU5dit0H/6JO+B4YKZcnWyPCOQeZDylJHWWEyBB0TySfNAkS8lT8jLfCX061xIWdYdIWVrekm0hzNeFil+HoWfCWHh4pYLsoNclXDrhgUbu7YNyrjg85IJuiy4lPHFQj4CZ+7oo2u/JFjoJX1a1gc8bPDWJ8+KOOOHyEuW0augDcThK9L0UQW8JDZkbGX7R7COIBb6hDel7n3vey+v4vKA3n7Tpn0Cwavl1LNvUiY/62ReAplXJ3WBbah1OqJeF0/VUa/GqX3TrFPtjkhkPnHsKJgpayxphpSnPmkGLS/LM7k80fFA8s1jt3ZYInkzGSCvLcsieaO8kJ80s5v8rkxdQMoEcYFgwYLIc8aIDKQdKNHxBPZrnMmr9WZy87WOqLqS9tKuUF5RddaAjkRfsjj+0R/90fL7W/zuFv+nxf8S5MK2BWwi4F3vetfyEJ9Nik3CjSBjg88bZK985SuPLbj85z3PbERtCy8HvOc971nq1o2OfsGPhD2+QcNiTNnbefDf//737+5///svcmJ4+MMfvryuS5k8P/DIDzr+yZ/8ycnWvwL6hH80fM1rXnMyp99UAPPS/2mgb9CrbdoCNjfacZ3rXGd3/etff3e3u91t4cPLOUIKOXekXFTJSymHgLwR6UNkucrUr6h11CPNuLJuxqxupwcskyYlOn7VSSyzDYU62LUScukwqHZIc9JbrvLkiVoeAT3Jcocqr50IMVjyTdPelryoPMqSZVPzovaZadUD8Oy/2o/mu3odRvqUIe1n34GsZz7R8UDlr+mRSqLGAkZ2BHVynDkgAQ99WbDYSFio1uxU8AooZ/0soPzKLt8NucENbrD8L8JP/uRPLmfV9CH/gczGwA9J4p//tOd1ZG6x8cOJLML8au/b3/72JQa+DshPlfALCPy8C5sem8rjH//43atf/eqTve+WRZ6fNsEei+4VrnCFpU1XvepVl2dCxHKpS11q9+d//udLHPihrW6cXJ2x6PPbWjy/4HjwthYbAq9S84/RnMAQL/q0iZ+b4SNd2Ze/8iu/svuZn/mZ5efb73SnO+2+53u+Z/k1YoBN+38r0PctsAc+8IHLt2Q4AeAf8cBsrJBJWc7jpcr3wajuzM5WWc1La1CHtGtnJbA2JqfvFNIIjjhbqXwp+aO8ZW0lX4JPLMptYM1LoPIqP/NZFilLSn9Mfs5OPZvjDC7P7vw/CnQT1oewJ1IvdQDtR7drr/0C8E0+9eDpp/KTPANFps01qvFoi7wxUx7ZUw6lLfNAXuYrod/J5QPKxJF+IGUzUqeC8ecqgp8kYuG+9rWvvfC5zbIPXJz5BzwW0lve8pa7v/zLv1wWUWLmLTFee/UMkwWRqxj+wfI+97nP8olfFmf+B4MvNvK84E//9E8X2//xP/7HxQ4bAws+i+iznvWs5Z+O6XfAIs0/s/Jf2XyLhG+t8FMmT37yk5dXcPHD/3Q8//nPX/L87Dz/qIlPyjyj4OdBiJN6bIq0g2+ZsPnRHr68yW9v8QsBXFXRVn6CnysxPu9MXzpevG79xCc+cffc5z53aTO/bcYvMAP/72QfMHbY5pgk5fPE/KQJoD9zrCX0nLc5b+gzjpU83isp6/S0NwJywPGTazB8yTLAVhcLPGMm7WKhbBvTrkS9pE5GXmS+YhnZbBDQmOjKIyib6YxQ40hUezM/I9/wR7IK9Jj8DASLAAcp77nzM+P89AMHN/9tzn93G7f2Ox/yZjprWKuTPoS+kkTmK2ayNXS+jgraHNnPsRDqdvoJDhxhnjqcbYM//uM/Xn4rip+KYW6s2UuwYHJg8/0TrnD4725+7JCHx9xC4nYaVxWembMh8Eu7bBx+vZGFm42FX6W4+93vvnxMiisNwOvLbCDEBg/i9hS3pLgKYa6yuGCXKwWuZtg8uKr4qZ/6qWXDQI8rnj/4gz849isKr3vd65a5jk9iJD7ajT5n//xaMviBH/iB5croGc94xrJ5EOslL3nJ5ednOF54E46rK/oA0H9sSvQnt/D4vSt+YZgNC2wZrxHcjHiOQjsB48kYjJD+6P8sd/ksiyoDqVdpDZ1ulqsMVFmVr2FtDU77Hb5yBDWwUnZwpQ7yZ/IRdXJR8x0pc0Fwd1U26zCgHhOey2c2lPvd737LQccBw1kh94U56+LWAR9BYgJj1wlLPv1qs0OVWc66VQd0clPbaBnAkwCyzHdkG6rODKnfodrJ1DHrdJKybzPGCnUS8irRF1xBQDxo560h5gDg3jzwdhSYLU4d8AE4y3/sYx+7vCXGLS9ed+Vnefh1XcCizcIPuN3FhnLnO995qcdCz/OK5z3vecvCzmbE754Jrlz44iNXJfyzH1cMbFL8ZD63yZjLbCBcQcDjOQhn8dwS42SJ77LwrIRbYNpl4+A2FnOeDZA+4NkKefrIjYf/Uucb8mxWbJb8bw6bDbfuACl9BtGvtJGN+nKXu9xyhUR9jjN+wh679Ne+fSwcI9rDcy5+gJG2gxzznEeVTjT0uW8MzNutdVKnq1PztX+2YLqhnGi4wB0FtJU2t3QK+kxkNgkOdCY8b/TwfjsHOFco5Dm4H/OYxywHH7+UywHCpPXS+tRGNwlOC3HNcJTjvwX4Y7zcSBg/FnROJDhzZiOhz/iNLv4jm/H2F4Optw9c5H78x398+aVcFnA2Cs78WdSZR1ypPP3pTz/20J6zdhZfzu559uFbVVyZEKfxAc7+0eMqiqsSfgaeTYoybz2xwQDi4CSIr0TyzIJbZfyyMj/OSbvZIHj2wUIM+E0zrnr4IUae8XC7i9tqfgSM217Af+hkQyM+HohzwsUXGIFXDR4ffAqYH0Pk9hSbHX657cZxxdWVV2r79nOC9uCLKzzgCYI4zHw70XN1hqOMZW2NWPO1eUPBkWRZzJykXuY7pP19YJ3OV5cSLxPVyV2JhYUDhAelXJlwYJ7rXOdaFh0OACY7eW4ZsMlw0HGZz8HKZoSNio4nlM109gF2PLsQ+9hGlz5amzzoSQdF1jU/s2dc+pVqe9WDGBPGy7fdPPOlDsRtGBZodD/4wQ8uCyoPdXlWwhzg1gkbCjrYOSiYb8wXHnzzEJrFmKsFNhAWXE5KuKLg7B7w0J8z98te9rK785znPEt92wLIEz+40IUutDyzYGHm5/JpCws/P1JJfX8JmZSFlgf2nBjxthi3w3jAz/MbbjuxUXlG/6M/+qPL1QUbCM86eIZE/3B1g29OuAB9A655zWsuJ2I3utGNlj6jvzleaBsx0dccQ/y0P5sYOrSdKzZu8fEciH4hLuo4VgcBGwhXO15h5vwAzh3za0jdrLsvZnU7Pv0GUmZ+ZuugGNmE53wDlI0NLPKT86tIJ6aJdATUrzTCmhyogy/zWcc8jcxBkD/ST3gWw31dzsA403Ix4mDgeQoHj5sO4BYE97g50Dg4PAi0X+MRxgPZphnUnaEO+JY6iU53VB9f9EOV6xNaa1fKzGcbgPw6pkm1DuPIuEEsTIwZCyln+YwRtngjim+aszhyxs5DahZ6HuRyksDiyDMLFlueT/CLyL4ii899gD9i5K0urnJ4GM3VCs9TsMvDb3zzo5K2hbi5fcVzAK5QvILCt/bU5RYWJz0szFxNcMXDQ+58ccDnH9xaoj1cEVGPZxmAN8L4cUvmOnqkbFTcuuJqgs2Wqx+u1CDa8GM/9mPLRkesAL2Xvexliw9ugSEnZmy5qdD/6LBR8/CeW2hc/XA1wybKLTY2t8OCjYv/4eGqCtB/ozkk7FP7tULdUX2QOvSN+U6XeKCsU5HyhPYg4u10Eikf6WpnJIevjicReWLe91rABlPJvOXkuYhWOfzMp04SMnWrzDrKUzfrkFfXeimHzANT4eLDLQDeWuG7FoCNhIMgQaeyQLmp3OpWt1ou3UH1JQHiSTnlJPXUkQD61WZS2mNBJbVOUkVno9ZJOaQOyLL5JHjUBdpJe0Kd5AH4TvCs50bPwgFlPccM4iyV12AZUxY6rjzYLDjr5hYmMXImzgLJQ3MeIvOcgzeOuA3jz33zAgZvegHP4LfC+FmQuf3EwchCyrMJNixORoiF22u2gzbxcJu3obiq4VnABS5wgeX/P4jZRRqwWQCumomfN7W4pcVVBRsMD9ZdAG5yk5ssGyWLNlcDvL7LA3baxzMbbGPXOc9mxlUT/Ui89BP6bHbEmIsvY8IizlU9X6vk5QHgZgI8aeM5DSdibGrc+uNuABsLVyo/9EM/tLSPcdwX+uF2Hq83++YccTp3TGve+UoKkEnyk6xX9YApsG7qJmod7ViudZVlLJB21VNXnkhbiRG/Aj3mE2sgusxv5svpPv7xj/89BZh+D4UJxD1UBoKJ6kAknEQcWJzp8fCOSVODJzVI5J4lpD38o8MEIkjjUWbqIkke/ymDsEGjOLvEDu3xQKuwboKDgwnIFQe/Hsu9Zup7IHbAJ7FwK4CDnjM/7iFzYAHaS56Dh/vy5PVtG0ntN/oIe5YFdagLn3iy/wByeNqHtJV9aR/xvwKOGX1agS6ofoC8lKkvKOcEZ2HQPyCPjP6lz3nJgVge9ahHLQuXCwl69gfjTx3y9oOLnsAeCy+3lmgjc5nNhLZyto4vrgw4K+fVWcoJYqYPue9OHXzA47hggeQWGLeKzne+851cYz9wAkLbeIbAQs9Dec7KaTspfE5MsM9c4tYUGwD/M8IzFx54c6LD/OSNKOaq/cNco/0s5ryOzPFE3PQR/2PCFTfPbuhjbgOxgfDaL2938ayFKzPio8/4oUX0iZFNhw2YlwjoV25TcRuMW3XMe2738rwEf/hig2Jj5H9QOAbpv9yAGUP6GF1usfGii/8rwvMlrpKoQ7vqvNoCj1n6ijHn5MDjwlTbxOIcBc4zxggdgDx11Tc2UuWAlLZxKxE7nJDQN8oEMaJD37Hx+4Et+kqbgJhB8oC2iNl8Pc4AZeYXdvDH+kQ8ti9togPf/un81b7DFuO1PLPasqHQwAwQGAyB5uKkns5JbTDyzhb+4REYnVxhowgaomyjgCk2HEjs0J46kOhmbNghhWgr7eZ9edrEa5cMMB01AxOQtnFgcgbMP4ZhC1+0l0Fa21BsF3YyRgGPurSRtnVyeE4Iyk7MBDpMOk8CyHvGKGodkP7MJ6+rQ6wQMvyArAMYHxY2NhTi5lYKtzwYR/qEetjgVqNzTnACwD/MMVacMbMJ0M8sdpzx8iorZ+kQt27y9g+g3YwTsL/sO/oHG4wHcRAnxwZn9rzJxNtILlwHAWfx2Ky3dpi7bHLYdbwhNht0iY2FnLe1eF5CP9Gn8E1HQE6fsUHgg/ZUEBMbMosgPtmY6Ef6nzgcA/TY+KGRLbAWUwf6O8d6n/r0GXOG23N8h96ftMcG440cOM51PuLbeYdOlVNOnrFljMipz1gyPvSlfulDgYy+PooNBULWHWfwmcfYISZe9mD8uj5Gh3yNAWDTfqt9o267ofBWE2cMuaFACeuQ5sFnh+mMFB4pcuyQt64pOjSSA4mydc2TMiGcbJRTBmED+5xJuqGgrx7ApvHAt1Mp01bO3NhIuB3BF+E4YJadN2xU4AO/3Dbhl065TaJf7HMQM5BMmIwHn6b2GxMCOTzlAB6Djd7ahqJf/VQQK7f1mFjY0rfIeDo7+q7xVdjPINsFSClzALHQcxsIX7yt1C3UtIvbLu973/uWlDN35h0LHcQVB7dJOKvm7L4u1PjDLnMMv/QB8xFKoIeMM2zfpoIHER+vzXIGzQLARnWYTYX+cbywD6ot+PYt+uQtW8cyYH4RE7FC1IFHH9GuBH3BMeXmjT30OjBO6BnvWpuJwT6ewVtm6LrIHbQ/Accr84lXpjmB4wSADZh1zfWD+PGX/SboL/TcUIBjQCoB65MqB6TYZ7PABhuKY6cOQIYOt/i44mQNpX9zU6Ae/ZJ9mbEAdMx7nMETxocd7t5wZUsb4aUcOL74A/IBPiynf1L76itbVMBKpBIVklIGDEA55Y6A9moqaTfzQBvw06Z65EHWIdVutZcybQEWJTYlwCCqPwL1WOTQ48GovKxnHn71maQeqXpQlqssecYLaSepQ2crqcprvJUnEYt59Jh4HiBOePiARcRnFSxePKDlfj2/JcXtGs7irnWtay23ZVjUeXOJWxk8K+Bg5DYOz0R4hsBmog8OEIBvDjYWG04Q8Jd9ldSBNmID2zzA5y0mFips5sG7D/BFHNhgsSbvQSoyHmLIchcvfU0b2RiwSZpvbSWQo0s/4Hu0mQD6DBvooLsG+3cNxoltx+UgoN/cTJgXnHjwfznAOwz2l/N4RMQCpb6psqSUS8AUpK3UAfLBiJ91zXexIAPqqg8yrfXUzXLyLWsDdHZPz58kBeY1Vid6At2RPPkzG8ikg8K6xg4y38G2Qh4AfP2N2xpcqTHZZzFxhgX4j2LeJnFRrJjFsU/b13Tww3iZ32KzImNdi9sz2xGQ20fYYlK62FCGuFriOQcbCA+g+a9vHubyX9fcvuIMjn8q5W0jrgy4v8//KvCAmsUCHywm6JJSZtzoBxZr4uvaMWtbB+yw2fF/R8wRnn94fLCB7YuR/4OM2fHCaSmWEYiR23NsJtz+5NVrni0xNzgTZ86JrWM+anfyt/TNmj/kh9EhBmkNacd8tTuzVWVVj/JXtsMN6AyYdrKZHMivepVEJ5OUHwYsclyqc6uDs2EeSAImJYsiZ6LpCx5nWNwP51YXr38Cz4oTo9jgJ82wrw5pnTBbUG2MgIw+YQGnj2g3lFcfLOz+HwD9xUNnHuqyKfzSL/3S8sYVKW8XsTDzxg//i8CDZTYPHkAzFtxG9PVPfEGOBwsGiwfEBuICsrUdW0B92oN9wG1R4uHqiduZxN6N+75wvA4b71HhIPPnRIE+Yu5B3NLilW7eFOPlBW6BMt9GV0nUlUTyki9S5tyTEpYrv0O1kXVGfDHSHaHTH/GqLKGsmxurG0oar9Sh00sS5msK1E0a8SFlRwEWQDYV3o/nlgb/fMUiwsbBogHwRWfC44yYN39YGPknL+q66HQxJW8tZuTSVuSmdxisLWzw8cVBS59x4NJuiH5CznMINgZ+zoPbRPyjHQsxr8fST7zEwJUIP/3BW0T89hP9yNtXbEKc9XNFwNknqQu2l95djPAoj+I+KPRH22gz8bPh8WIDGx4bHG0/yJXKN3EweKLH3OMlCW558gYeKTKuhHMe5LwwP6OqJ5I3IvVElacMWJ7JZ6SO6OQg86LqAHmV1rD5CqUzmI5SVvlJyk3XqNOb8TKtGPETLhwQ7/PzxhsLIb9dxCRVxpsy/HMW/5XMP6rx6iQLXm4mkmXTpHqmA6knko9vIO8gejOoS1yc+bmo14US+7SVlzc4qOkn/lObV0bZPHjmwebA/1hwK4p+4r+j+R8GnnmwyfB/Hpe4xCUWe2waLNLAlI0qrzxYzIkL37mpJGU7bYdtkmYyqKLyOZFgEaNPeCuN34y6/OUvvzzbIWZwFFcr30QP5iVzkjnBiQdzjn/ShHwhhvFxPtQxlSfVeWC5S0e6lfSD3LypeWBZXvpKWRLo+JJyYV6bQN2Ol/xRXv2K033iE584xVteDBD/vOVrwxw0HLzI0UtgnIOc+5a8OcAAwwPpVMIOpA5IPRYSziqqH8vUgyhLgjwyYpi95YUOvkiJxauOBDzqaY/XiNk8sEO/0CcsgPjg8prLbK5UmMTYFPjxjJbbIt2v1BqP/ZAHQgKeMbFokSbwQ53c9DqgQ5sYM86uWRz1b338kGch7/qH21P8bDpXINxm4FVdXv1Fl588v/CFL7z8VAjPOPz/ggTjTB/ig4WXecbtQuJigaa/PLukHbTVfgL0ke1NYAue/ZPyqgu6PkIP+7yCzFs32IKnrnZI6SdArDwIZqPkZQF+tgXQl9hagzarj9EYfiODeeOmzavBvG7O7S6+nsl4cPxxjNKHkH1I6jyynKnABuSx7FgIymmjs4OcGHmjinnK/MZm9YV91gVOvnjmw1tpXnElmNfYQT9tGFvOdY6hhHzqc9wRE2+b5jpkiq5zGp6U0J6yLC/p2oZCEC6S6KQDGkKgbih0hDp2uimAn/UT6DFZug1Fm6QQqLbIY4OB5I0r7BA/g9HZ02YH7CDTF4suA09n870H7D7sYQ9b+og2c7ZEPwDqmMcOfUe7qO/vgekXXftHX8i6eJ3c6DNprCesx0QxBtJqy7axYPJ/DPY39sknuLJgLvDGFf91zIsKEJsnGwb/28Grxzyg5nkC9mw7oN0u8vDpK+OmTJ75RT/mhuJmbT30IMog56MgD9EW52HKOyjPPoJHfTcUYko76hIPsbkA8UCYzZWfcSHln/p4uQAwP2gP+thKf6DG0cX1jQz7mLGgT1h0eb7JLx9wlcsVCnLmKouy4w/Qp99J4UlCvn2tL2x4zCUoO4epYz1TgJx1iBMtbIw2FHy4oeT/ocAHzhfXDOe9dpBJAln60QYpxxox8XwpNxTrU/Y4007aSlS+5c0bio1JeFDVDQXUVBxzfLJPiDy2RhsKqHZA6mmDOLlCYUB54yoHUn8QfPQ7X/D0R8oCymSmT3iAzL1+/iueWxyADQdUW9SlTzgA+Gc9rlDwS58pT9IvadqCRx1jdrFNWJc+RBfShlcd1EWHMzomlg+5BRsHxHjyUx38tAZtwxa/y8TPgLBp+LPgCSY9c4XU+QJlHMD2GT99wz/GsaHQLl7/zSsUQNyOFYRNoByQp53AhUdfIG1pR1kCPeLm6qvbUAR2BHLaTr8CfnGX/3/gNh+vrvIaOnCxgGpcoPK6+L6RwJylz+xXwD8q8jt7zEducXGM86yTMePs2/+H68YMXu3v7GNkjCt+sYHN1M/6pFk/7WCD+t3/oSQou6Hw+jtrKMcvdQV+4BELc1FkHBVdTOSxQx+x6dLGlGMnbXU2Ul79HtPfessLGoErAjpjBJ1ncB3w5eXsCFtsMZDYqT+rARhYbOCLWzr7gl+H5afB+VmHfcCG0t3+ES5QLpYdWKyZCG5gCdoEsbBhCx36qLOHDl8CJCbOptlAuPKg3/inQA5W2sizIW6Lfed3fufJNf8B+CEOwGZLPxt/HRfHq9sEAAsGZ/dsKKQ8W8F2zjdsw8MGNBp7xhQ9xr6br449mNkB/NMki9No3tsH2KixYpt+Ya7wwgHPV9hYuKoTjiWLRy4gwBhn8X09gr5zHoHsF17mYNFljeKqxA+LJZjDjJlzrYL+BvTrSMdxrWNSgd7a+PCcFT/15CvBMceGws88cbWP7zqfOF7ZTEYxOV/ALCZss6HwFusI+MPGyA6+koT6qxuKZ5yjAQCzgcQuQZJiZxQoOiwIoysUgA06BTm+qh5yeOz62Ok2FIANzmb5xCqxExd1AWkS9kiJj7Nzbmmw6PIbSEyYPGvowMLOws3VAGes2Ml+Sl8gJ1NF3VCwBQ9gcxQLD8y5ZWXKJKYeY33BC15weZBJX/GAvOszrhjwiw/nAin+PYM0/kTXrtSjb6nPxs6GQspZJ2OTBw9+9A/VcRe5oVQ9Y9H/zA5gk+XAG/UpdvCFjTpmeWKEHRZDbs/wrI1nLN4KA7QVwg51SI1xFt/XE2gvfZBzG3Ciyttb/HAmiy3//8PvsAH6mH6HqE9fcRLAmI0WXuyry/iD2sfoQIx71//Ur+NT9TzG+Rl/0tmJpBsKz9+Ivc59fHH8wevmovEYU52LCWx7FYd+1z7ntFSR/vQJ1N20odAp3QBQh3J3NqczOlfnyLVTgZydeLahuLAgx07qkXcg2VA4OEdnBvhiQvJz4fwoHroZJ6ReAtv8Ax6bA2ft2flVF8BnEjCIPHth0aQ/c2LoD//AyUTZ9uEHHSYWfMaIvlQuuPTnIOT3rfhPYSYrv8VEPW638QyHnzTnv8nh8QxEGD+p/mxbkjr0BbHwvIMH8kI7gLztcG6kHP6WDQW46NZxT2zdUOSTVlvK+WdL5vRBNhRB29FDzhzg41m80MCYsInzy7qcmAh0bQPtd4xpi/Ia79cKiN34Gcvsm+xj/qeLB+z8ZD9zi6tkXinnOR2gnv1RwTrExjMaM/rV+Zjzw5R4kNv/1Q9yU9tSbQBj5JY47WNDUb8CHW95jTYU5gT2aruMB3+2qx43CWxzq5u7SaN4WJ/g2z+pQx19Zh6od0I3FBqb9RPIj3JDmV2hAH3tC371lX++46c39gFnK9xLtc+AfUTKYAM3N8CiT3u6W1zAh+Xc7+dnwPnBQCYvY8ZVFL/cykbCj/s5foKHzkzgnIj2K/EYA7xKtoGxoB+JT/u2CWDDcj1IADZoI/XXNhR8AfxQr8OWDSWBvNpCBx4bCv2DrQ7o2Ue2PW0po3+gPEvl0738FhmvVLOh8k0UbjFyBZvPC2iL7cbfQebrqQ36wXlgnnFOsMHypUa+FcMVHW8H8m0afmTVnzJio6HebME87IYC7HNsJB84f0xBZwMf2M8rFOpUe2CfDcVjVL4pZLtm/YPttSsU1yFkzutE9Su0NdxQWIw5C2dx8kxpqRBBGBS3jeiMw24odNzsoMEWg42NnBCAvAO5doWCDfQcBMi2aBMdN1PipqOxyf1bNpRb3OIWy2LIxKMuelAHFg0mV54Z2JZMkeXZvuBgYuJxNcWX7Ng4uH1Ff3GVwbjxGVl+nJIx6y6x0y9xsqHwVgl52w+QA8vIbBd5SNAnxM6414MAIDM/OshzQ/EZSj2ogHHVGBL7bCjKqi104K1tKMYDRraIhTnkvCcm7NufgP91YjHlhABfvIHDWfnP/uzPLuNT/dM32MA2wK62Mz0RsE8h+gMiD4gDquMIeGmG282vfe1rj11Js1nwkTHmMJuroP8AbepsJY5yQ8EXOhXZRup1NtCh7mlxQ1m7QnF+2T+djj4hoV67ofAbVizGPDOgMblRWFGDyBhIOoPG6MTUAVAXUpZAzw2lNsKyg00ZotHYsowNYqDTOBBpjx0t0Dcm6yUs5+SD6GgmPZff/Ic3v2bKg1f8oEe7iCdBPfzkhsLZKvrodm1Fxi0rPy3MLTYu/RkX+odbJdy2YiNhE6n1iZtF2rixxwFmbPDIc9LQvWJJXpInCfP0iW1xIluPFBmEvge5cgCfPuSsnPvjbCxcoXj1qC428IUfqJtDlOmfbG/GjFyST5o6ADn22VB4ISFPcNBNO5B8gE8g37jr3IBHrLQ7+SyuXHHyP08ssthljPjfHq4yOcZ4w24EFl/HBGDbfsjYKEvpX1DfNgDbCt/jT7ltGy3iPGfkquPtb3/7soFwvHBFwtrCrVee23Elzd0Q4VUdNplXtod8Fy+xwMcPt6NzTgPbat/YbtKEbYTSV9oyT5r1M0992snxix3uTOBbHVLq03eMM7+0wWvDXDkwL6gj0INHLPC1kXHgzzJ9pv0EPPqUk21/9Vwgs45xjvo5ddMHvCUdbShMdnb7LeD1UjrjsKBjuobsC3Z9BrQ72z8oGAAmAGeO/Fgh/w1O5+fgj4Cel5oJFlM+UMQB9u53v3vZCLl9RR/wRhDx80lYNg8WltEV10GAH86Gj6K/Z2BMnYQd3DzYULgq5r/pDwMn/WHBsyjmP2N+aoD/AWKMXvWqVy19xDHJ8xc2FeYDcfF5XeYFV3YsyAeZH/aX40T5IHOCNYArZ57j8ekHysxpFjDmPSdjxM4LCdzS4kp6y7GzD7pX4SvW5iPwWD8s2EyxM7v1zlrFd1v4UmhuqomjmtOsQ1wdMmcOA+KhH80D4zu2oaBAgzi4uR1CpzJBHQCQDTNPhzH5mdTkdWBKffIQ8tRJoMdO3J21W6ZDjAdi4mPLMnl4TGzi8aze+saR/rOuMJ/1sMOBwUbCFQI/teI/UCLXjnUAfOKhzRxgTDDOfCE+CMWVi7fVeNuK13VZLPjOBmc1HnC0m0WFfiYOzuSxjbwe/NgjhrWDlSsmzsDRtb2AvARsE2XTlCeQA2WMlePVXaEANlXOmPjtNNrGj2zSV5wQAOpig3Y5fzpgl34C3dmyMesfu1ICOX2a9+zr2RwgJnTTTrVl3I5TlRsLcStjnAEndJDHC3Oaq0puL3NHgP8SZwFlDvKcwcXLF0ZYxMhz0kBfMmcYb+KgTGwc7/WkCz4+0CEWysSGL8aFlHg4ESLPPCJ+8vQXfY8vjhFi4Bs1/DYbxyNydJn3pGw+9ktSBTEA+hE5/u07gYwxw7d9JrSJT9uTfhOMNUQ70Kl+KBuP9asNdIwHO6xD2kVXm8TKiSa/PcYvJLPhcneBugBdfLlG0C59acN4LOMvfQjqo8cG5rqewDZ+7SOQ7SJP/IwhFx7Vh7rtFQqTlcnMvT8OcoLpQD0ccCblGYdOTG0sRNB1sAV6+JptKDkoUMZFGRmDxFkRHcsBw+RNGIt5bSVSRxAbByRva/Gg+253u9syGfCXdtIWeQaIg4kzb85CuEfM5T4HGhsHNiGAHdrABCKlP/GLDfzAR4e21QmBL2Q5+SrQoR6LBZsaGyQ+8GV7STNf29TpgdSTjy8IPjGDrAPYUDiQuEIhZj6wxSJ1PDcU48yYBXJ8sFATF7YYg6pHTNpKShg3Njo5wAZxO2aUgQsAMvqChYBjw7ki2GjQY0FnPvJsgsWePmRB51hgY2AToj5t4RYqY45dNhR82K/45zV3YmUN4PimDRxLxMQmwGZBysLE21fMZzYvdOBlO/Ht2BGnMvIgxyzr2Q8AXcrMVWIgn3Ly2Gcj5KpSnQS28WUM6MhPIEePeNSptozdutUG+vQtY0LKmDHPK2gPt7x4Lst3foj9MBsKMuqS1pjhMxbExEkGedsHtEvbySOTR6oPYoBol/0Ajul2GwpnQuQhJh4GZmCycpY5ArahbEAHGmNnjoAdgx+BQcJO93B6H9i52X5uefFjkTe5yU2Wg5OOXQMx89tXPPPogB8GGHiGNQKDOOvHLf0D2FB8KH9QEAtEvCOfyJGN5C64bNSMFxtvN+fW2g22zrMtoH84cTgstszpLcj78cwV+4hNYh+wmbCo0Of0vXMcOHeY08hY4NhURmBTqXLqMVbExzgQ86z9a/NjH/AMhcVyhi3Hx5Y1bwtYh7DDOjoCGz/rCd/6YWw7bOkj2gVmOow1JxuztXoL8EVM5oF+h0cenYoyQSTBhzCoMfJMJAAPUo86yCDKqQNpB5mTMeWQwBaLOHpdLPDU0xepdtCjjFyyftoBVcf2cZCYN460oy/9ARYAznYpc0BzFsKVE3xsMBgc4E7itINdiLy+qo55Uvsn+UnYsr75lMuftcs6yO0DoQ1IG1DWS7IufWA8xi9hSz+WU5460Ei+1i71gPrmUw6/2kp7pFDGU4Ge9dAhlZ++sA+0DdxISB1v5hJzi9ssnA3n/Mo4mWc8n2NRIeX1cr+7b56NlNuvbBbGD1EfO+TZTFickOMPX8TCOBIXmxIpMevfNphC1IcqlNs/EOWUSdgDxjiC8dsXGY+EDF/I075ptdHZQaY/yLx6CXTh2Qe2U6KO7de+fO0rty5IG/LwRT2gHWVCO7ZPn0nWqXXBcENhYiSxkFaCry5l86lf86mjLNOORNoxn/XIq2e9Kq+UMvPAfJJAF8CrdioJDjjK3P7iYONKhJSzt1n9TgaSb55USn4SvKwPqg6UdiplnbQD5Hc0kgvzVS7paxQXNIsbWpNDxoAeSP2sbz5pxK9QL+3KTx6pMK+MBZsNgjnEBgMxr8w7vyTqsSBwQgNcUCQXJ+aqOvigDnXJO1/xiw9TfHlSZNymW/IVKU/9lEnIReYrap3MS1VWyzPdlKU/IN+ykCffvKS8pjNZZyd5IO0k0lZHVb9i3PsN1ox1yDpr9ZEfxMdBwUE08rcPHzsdUtfBSJ+kmR9hJvtGwZY+2LefTgv9SgzQaA4J9WZQPtKV75WD5eS7abA5sMGgB68DdTrAZ75vxcjO8YL+Zn472YmOU8xiObViGmHzqGcDZg0UqUfKxJwdNMrXdIC2k+SbVl5FtQXSv/ykDllnBg8wbg9wa4CzPg9YbI9spO8tvma29sFWXxmfsKxsZidlWa9iLR7rjHRSDnU+QPJntjqqGPGFMmPqMLMrgc5GyhPodfwKdDwRqvpZVl71ungqurgrqt0R0JnZUjazt9UXULfqW05Z1akY6WX/VFnWgY6iH70aHekmv5PvtaF0BgBnNCNknbUGr8nBFh0wipX6UkXHr+2uZfU7e4IzPO5vA+5Lc4vAs8FE2ujswZv5QWZsTIyDwPZV6jDiC+OdxZzQXrWrjS3+0On8aUNZp5PgDH3mby2WxMzXmh3lebsh66Rt8uilbgLeWvvRSRoh5VVPGT6kDiN+QlvVRwfavWZzTa6fkb+Ur8W0RWfWP2Im1/4WO1viAVvj6fQ2bygsUEmcXfvwyTIOyJNSlqwj1EvKIKtMuUQ57euDFJAamw+iOjtAe+hJlrUjAf2ZB9qAlFvmaoTFiVeGr3zlKy8/LcIP3/EaKPepHWAf1HMPm3rY1Jb2jDv9VUodCJgmbB+y9JPtlZRVHymTh1xdy4A80EaSoB7ALnxtWjdjqJQxSCnXRifPvDHAIw7zqYtOtl1Sp9JMLh+71ZdyYBmkLfVH9ZOIWT1Q5bM4Jeurl/kkeMKYUq/GS5qknnXgdX4gfZHPMdOOkIe+lHasD9++Spn8zHd2KAP55vUvAdNap+ppVx+WjYEySLvqyUMXAvJHhM3OH4R8hNUNhcpprBJgEUxedrR5YLCdvZHMxiiHUp6+INDlJW2B9KWf1O1sw4OAdYyrswefN28ud7nLLf9rwauND37wg5efMudjXbx/Do//B+D1Qq5eqO/bFmxIPCSFl3HX2LJsPJYzLghkucrlya++kmZxQMYCpU2JsjDfya2P/VE8yKFse5WnLXgje8lLnco3X2kmq2T/ZFxVrj2QMtsLSOHNfKefzhe0Fnv2nT470pf+UmbcnSwJH1InT1IHe9bRtsBf6tb8jLCVtjsdCZCiZ74S8KrBvkg5vmofjfyql7pJyQNVtlZfQqZ+h9UNxQZX4vIyb3XJ6/QSBl31ROVLymyI/OozZZm3nB2ROrSFN1VY0LXZ2eY2lXmQ7UGfqxHfhIHn7S1e02QT4T/B+U2jxz3ucctvGD372c9e/geDn1/gs7H8lpNx8MaOD0edSEBfpEnKQPYxyDzArrESHymUfMvmtZFU46AMgexrYLnWBUxSoVxkPe2rkyTMd7IE/M6W8dNm4bhvIervo5/IcesI1HIC3qh/pMSablLqkt/qhzbVdnW8jvAh6NPOJzxk6oCMD+BLWCfrmz8q0k/NJwH7AVRZAl62qVKis5fUyRKzcUnUMljdUEAatEGmInU6EuSrDdIEZcn6EMiylLrqUAby1al6nazmTQFXDZQBaaXKt+zPTXC1QcovyrKRvPzlL9897WlPW76LwW968RMkfCeDb9a/9a1vXfxx9cJ/LLPBUJfFN30QW3ewiS5feZLIsvmuT0wlyiDLUuqlTJjv9IA2TLu8uvKSlCfJr3og5cB86ltO/iyf9TIvqgxKvnkJXta3nKQeqVAG0k61O+JJ1k9KGejkpkD9qpMkUkc9UqBuyiyTpo58ZVtT81Ity9MXZfOWKz9TbaiXoGzdLi+SJ580bWZZEvCrrNIIX5lhK0hj6azKIANSL/Opk+lW0lZSyoA8ID/rqg+yPCIWa8+g+T64Z66js3YImAJsoM8ZPz65leVVBz/NwH/ec9XCNzLufOc7LxsPz1v47gqfG37lK1+5/LQED/WxY0zayU0G+8BypZRlfkbq2V81TZrJKqGjbSjzI0q7W3wkCfKjOIVl5Kmb+pYrv8rNJz/T6s98yuCbr1T56EqWU546NZ/l5EnpK/NSVy/LVTayUXkdqScoi9Sr5Vk8lrtUqrpJ8ICymjcF6luHsiTffKY138mynLbNZwqqXrWRBPKqT3yl9wewMsg8sJxOTPNSLvMVI34ibYq0LTpeAn7VydhHYLFmIwD8qCPfYU+s1U/gF303FvJchfAWGFcx/OPjFa94xd3973//5ecY7nvf++4ufOEL757znOfsbnCDG+xudrOb7Z785CcvvzyLDa5c/Ac2Nz19HCWwJ4Haj6LqiaoHUqeTHwTYgWqch0FtS0J/6SfbX2UVymY+tiDrd7ZmMYAaZy2DbNcM1k3dansLrF991nJnby3OrTGsobMjr8qIKQmgI3UY8UGVdbrpC5iXnyRfGNdInnmxuqGIrvIMBlGpYouOSJn5rFNTUPOpk7IK5VwJ8AYWC/Yv/MIvLL/syqbCr4Oy+Ps68EGQPnxeAnwAhoxfauVTxXyI6VnPetZyq4wPbd361rdeNhge8L/rXe9armioT5wQZX8SIyfGPugmqDD2rTZHevJT3unCG9kQ6qjX1ak6FfK39FfaGunOZKDKZnbEKD8Deup2dao8yx2qfkLZSKeTpbxiNg/BrG6i+qv1spy6HVJedWayCnVGeilLHfkdHRWqvS22N20o1Wh1VFF1ZuURL0l0Mihlo3wlrw5GUMbCzm0mvqrHh694iM6D9Uc96lHLD/bx66rccmJTWJv4M+QChi0IcPXCpgD4jSXeDHvCE56wvIbMrTBeP37AAx6wu/zlL7+7wx3usHve8563/MYSmx1xs1F5awwfeRWzhln/CHRSz7z8Tl55YKRn3nQriU4mdXJR8/uQ6GQdVXTyLp/lhGObeql7UEokL3UqjeSiljvM6iUPdDoJy8pGlEhe6sz4yTPfQZ3U21I236Ug9faFdQ9iY9OGcpiFMrFmB/lR+Zphqx/P+rki4FbTM5/5zIXPVxNZzG9605suP/XNIs2mQudrd9+BGAH/vPEFiIcrIjYHXjG+7GUvu3vMYx6ze+ELX7hscny46AUveMHyPOZa17rW7ilPecpye44rFjYWYvLWGLbYrEY4irE4bP19sY+/Ex3bYbFPvGtz7yjanjZG9rb6WdM7ing7VLvHy88M+JQ6zGTHC4fxt7qh2KARCfOdfFaWxyJX+ZLoZFDKRvmkyu9APD6U4qrgV37lV5ZvmPArq3zoiqsBvgHBd1G4GvAKwIM5bVc/lpOSb16YxzbxsCmwGfDMhdtxPEfh07C3utWtls2Fh/u8hsxGePvb3355a+yBD3zg7h3veMcSPzZ4EYBNBjtchXW+Ky/LieRVvSxD9GuSehXqC+vK72irHiTWZKYHpYPUz/6BBDLTzKPjGALynOBAjC8pJxASc0ZiDo0IOfrMbUhb+tAf89KYkkQnk4T5Kq98kfLk21/2XVcHKEsClZe0Jk9K3cwnJV+M5LVs3jRpxAMjeVKVW84UZF6c7uMf//gpvofCbZIPf/jDy60cPpjDRGIB6kAdbs3wj3l8O8GzX/Qd2AwEPy64pgCZpE7qKgPYlZ8pxCRnkeRtKM7sWfA5IGbxW9cy9iGeP9D+hz70ocu3vrmVxMeMeABOn9BW9Plg1iMe8Yjlf0z4ah6bS/ojz8HJh474VgMHpf7WgJ7tJjVf6xuzV0l804b4AO149atfvfvDP/zD5TVkxpfnQGyOxJyfAyVO4sOP/z8Dql/KxmY+ZUA5canTgfFhruU35flHUK/KrGe/jcZSf4nkmc/yCM5pPkDGPMp6otpasz/yZx36qdOBT1/w6VZi4UN2jClzHVIOMf5eiY78HSWY03xcixMsQTwQsdKPzENisV9MhWXGtcoqkNu2qosvPvTHOuSYgewH4kooSx3qoacfUOXVdsqBY8KtZ9rfrUPYYC2hD/nGEncWug9sQcz9LEMZR+b1gU6mrkN8C4c3VVnDlCVsOyCFsJ2xJ18cq7O2odCYGqSgDgPJAs4Zr4tsOkun4JjjsIVO6nU6dTKAlJNHh8nkQDLZXWSFfuw44idN/3Q2ByZfD3z605++LMSU6QdtMUFYuF//+tcvVytMCL5kx6AxUQC61GGSMHH458Z9NpRExke+swEfcrGhD1xgAHHwdtib3/zm3dve9rZlkfqu7/qu5dYZ3yfnBQDhGSk27KMO8DO2CmMa6RATXxZkQ2EzZnNmwaQPsa1fT2xyYiew7xzJeqY1DvgjW7SXj8bl4oR+1jcF+gDyc77qJ/VE2nROAnjkGUcWJz6/S1x8V6cDt0KpTz8RO/rU59gE/I8TNhlPxp3nf74dmHFRHzC/8eXXBlmEuBLmeOK7KcTFhgsfO8gq8Mf4CvqBNiTwbfsPCtvFR9GIlzETab/6sd3ZfnRSL3U6O50NxoE+YR0iFk4C6joE6AvGgQ2FZ6LMN/qdtgjqMCakeRx2sYD0kXnqMo65odT5X20BbaQt0fbD2oZiA7ORFXwulc6okwV4YGGfBnSBAeRM0uy0CnQ86KQEcngs3sRLe+QJbUD4Gi0qHKBsEGwYfHTI2Dr85m/+5vKKL7pMnNoGBo+vt3EA1ngEfGgUDyBmdLBP2kE7+jDvOHqw0Ufc/mKzfOc737l8OpaH/sTIP1me//znXw4EgW/6AFvECKWvWZtA1y5kbMBsJGwozD3+oZNYWUQT9Cs29FP9GR8wxowLX4678i4mMZvTwrYnbK++KNPvM1/ZNjZx2sGCJE8dj0Gunj70oQ8tc+rd73734oezc8YTYoxZ4OlPTnrYGOhnTh784iN+OD6Q2Q788bVWFh7jZbNnU+IqhOeFbFbwuFrnhRDyXHlzVUl/XfCCF1zmDR/ooozPDsRg+6C1foaMaQRPbOuGIhwPoF/zwnHDV+fPWEBXH1h/tg4Jr1Be9KIXLbHXdQZbrB/wsl0i4wGzPsIOGwontsZYAV8Qbxcz/tBLv8f64ig2FM4MmDjoYEd7QOeATukCBOgxyem0kQ52tEVnHGvEySky+Pm5VOMRxkOqjVqf9Kd/+qeX39+6613vugwEB3gHDjI+Xct3ofl/kfvd735fpU8fcvDTR/qoYCIhI+6MN8GiQtz0EbqpRz7bpsx2kkL0MePAwccX+wQLEc9cXve61+3e+973LhsqnyzmyoU3yHJzoT3Y0CZ5qAIZ8YBODjiD5Sqqbij0X7aPuGlH13cAX24o+LJu9oN9A+BjK30A5PDoH25VdAcxQE/dDsgc09qWChdwNtGq9/73v39ZxHk1nFuvzCM2CfqDKwXmOOPIxmCeX1YYzdejBIshGwnHABscixVvQ9IeYvzABz6wLJKXuMQllrsF3Ga9yEUucoqrGY4VxhveaI2hD6Ec14TjQD/hL9ue+o4HvBx7U+xUX1nfMTef8tSjPva3bCiM59WvfvVjG0qeOADq0UfYq3PRWPBnftSHoG4oXez4B/DwKdTpfIJjtrZuKKPBBLMNRccQNjLIBHJ8dQeVwBaTAjlUG4wcXm4o8kDGBLRjngOBs+VrX/vaSx1+uJGFlj4ZgTpMYGxf7GIXW/4/hDfCclNh0WTi8LwC3+kXUNfJPttQGWx09JegjnaEdpSRUp++Ycy4GiGP3ZysxM5i8KY3vWm5NcbtExYvfnuMTZYrNkFd24p9xhjgD7K98ityQ2ERevjDH77wvEKxDVs2FGLRl/VMjUXAlxL205YNxbZVG4KxgOwbQV3bQ/8nOODf8IY3LFceXDVyJcBizHMvXrzgDUPO/tk0Rn4BseGD1D5Dnzz+LVcbyOyDTLFjmZixU+sm0Ocqj7bQpj//8z/f/emf/ulyYsJxeaELXWh3jWtcY1k3WHcE9ZhP+HAc7Uf9VhjX2hUKNrAPL+M3tZ0jX8gzBdUGwAZ12VBoQ12HEqwL3vJa21DgZ6ym2CZFlnUrWF8ZC64oaWPGo138awu5/PSbJI7pnagrFFI6t+tUgJyOq7c6Eg429rOxgLyDtnaFAgllTqK3v/3ty+LGWTqbBTF3MWmXg5ZB4AyLA4bNCBtctTg5WCAZSG4pwSPG2g/4hw6zoQB0gOVqi3q0iVskjBn+4OGbsSauej+cheE973nP8rtj1COGS13qUrsrXOEKy3MX5opgDLFX5ws+O3gSkVcobigZ+9YNhbQu4AA+JGb9A++wVyiAfiImbIzipq1s2twy5VYWt5EYF87qL3rRiy4bCBtuB+o63vQvfvBJ34/8HRbME8fS+WIe38jw3x0zzA3mD+186UtfuuQ5VtlcOFm55jWveYorYXzRx9hk/EftyjE7zIYC0IE6X/jJFHQ28EHdLVcojLcbis98qZOg7dSlH9KGceDPdtW6Ccao21DSpscQsmy/OsiShPIju0LJN2ISNFTn2OgGCbvouaGM/KBDRyCHsGV9CBk+6DRi6a5QJEE9Bgy//NIv/7/BT5tc+tKXXq5OOJi7QdKvBxW+0eUtpbe85S3LAQOIh9tHHPz0J/ey0c8DDlvUJ1bixm5CXww2OiyYpPCUWccFxrKpQJ+YckMRyAB1iMeJnLGyyfJQn7fG3vjGNy5XFdxmYXPhCq0+NKYP8Uff1FgA/Yf9fa5QbDMwT2rbGS946Q+5BJSnDtAet0/YUOjrCm04BlDaFcjtQ48hwBzgjJ3biy9+8YuX446Tjctc5jLL4sJVsqg2tJ9+gHEfb+zjB13iJ2Vs6EuPRQCffxbm17d5jsfVGLdjuM3Kczw2B0D7Ido/Gg9i6m55AeP1GKNMHPJNjRc9fGWsALkEqFdtAOoz1qM7JYktVyjd+BsDqX2szgijDQVoF//aso8oq0s+SVh/04ZC50BWSsDjjIOFhMWJxiVsLCCorlMBejSmW1CNDx3tw8MWfPKQE8FXLIk/Ow5dSZB3oDhLuvnNb74QC6eLbS66FW4oEL6YzFylsDjyhhiTgfr80CPx8A+RQL7xUJe2wbNdCeJzsIkXXXiUbb+2QPIT8BnLeoUiyNsWfZDHN/m62HFfn9saXJ1xQGOTzZgzbJ4pJWgzvh0PwOZRb3mx4M42lITtJCVO8uhYzxS5BNSrQA6fOc2GQhzwOjvyIfOmgHiYH94y5Wz0ZS972XIrlecOnJnz69JsyHkVQh36ljicD18ryPZXMIcYf04cyTPeCZ7D8LNG/G4dr+CzEN/rXvdartKoB5gHzH/8JHLM3FBqLIyH9dBHlnJk9DvkPFVfPXVA1k871mdDIa3rkKCOz1DYUIjd9inHlnMfW/oxrowHWLeCehxreacEniS6PqKcsVOWhDZWNxQG34akY0AdZAwkb3Q40NpTRyIoSB3lpnSMjQAjHfiStiBkxMCGQsrlMx1nZ6CbtiQWDX4Ti0X2qU996rHOti62KHdgkGwXYEDQ5yB49KMfvTzQZoHkbP6xj33schbCDz765phXZfiiXM/igDHTPvL0eYdsE6h2ADLiqxuKdUz1le22j02R50LIZKWdfJGSqz0u4Wnnla50pd3FL37xYwsroL20ncWTeZcbCpv5aEOxnHEBYjGmTg++BOBLCeTOaRcn65gCbVUbHiu0zYWNK9bHP/7xyy0QnoVwwvHjP/7jp1j4XEi6Mft6B/OesWMuCq5cuHrjOR5ryyUvecnlt+t4dgQ47uwv+o9+506JJwHYq3B+OF517BxT9JxDkHVIUy/rmwLbMlqHBGXmBFco/EMy7WTeUAdgE1trG4oEUidBfdYhjlHmoDaF7WEsAHnJstAfPP0qb2evSqKWExo2L8hLgs4h4MrPciczTT4YlbfqeSbM/5twhsD9e9/nZwKgZ8wMQCU7Hz37gHoMKpsJZ5+8OYX8B37gB5b75FzSX+UqV1luq7GY8ryCOLRhbPqG5IlaBvAkYb7yK0b1AHljgJywpExI+otbFWwCnFHyA5r81hiLwW1ve9tFh//cv+pVr7r84gAHDve6OWi42nGByHbqyzIYlSsfyMu4R1A+0qv8qkvqOEG89cTcYLPgyu2GN7zh7u53v/vyPITx56qVDZb2syiiC/JEIv0dFNmfJxLV5ywGZcwl+oPjyT7h6pYTL05QeLbCW25sxHw76CMf+chyIsOcs/+wJQnzpNkfVUdKOJ6uV4C09mvNSzN0dWZInVq3wrjXbIK0C1zPKtTbYrPdUFwcRS2nYWTKU09+8jhgoOSTyhuVK08oE+YrL/nYAUxErsL45yM2FP4xkTNq5FDtwLRhHnmWARsUtrkyuf71r7+74x3vuNhj8nPgPOQhD1k2L16vZJHl3jFn5thica5+qv2MCVi2f2qdkX5F+gCUtWmf1DJ5zsTYGGg37aPtbJBcdfBchX9UfO5zn7t8jZJFgls+fOOF24rIuMUB2FioD9iUWViY4B4cxo3PjgT5Gqfl5NVy5UPay7w6qUueOImb/8v44Ac/uLxGzgkKr8ry/0m8fs4VGs+UvKr16o66uXDpD2AT+Rqo62JM/xsfPOpz8uLiK3IupCz5ouN1yNiB5W6xQmbbyNsnnqEL3gZjI+Y36vg/GZ6vcMzS12zEHjee5Ah9k0qWBXnq2F+CsvaUmbcsL/MSkG9eZJ5+3dq3YGSHPJTxgJFtddXPvHWFvOST72yf7hOf+MQpbnmxuDFo3vJionmgaxBd6xAEbwH5doVOTJ0wlHPAlQvK3v6p0Be2IMoSfPPI8MFlHZNydO9SHnWudrWrLVcMLHB5m4J2e7UB6QOQGg8ppA/12EDoy+td73rLf6by/ynExD+I0beATYwDg9sfbDwZr74SxIOvesDpE2QfdbD+7BmKBIwFwq48QB+hR9mYrIsu/Ul7GFP7FXDfmNtiPJTm9WTmHbdZWXw5A02wIALsEatzsQKfLlrEYsy2w7gsj/oYObLulpdIOyDHg+cj/GAnL3ewofKqLyA22wB4XkCZ17ET8BlnfuhT4Muxt++pa7/Dr23hxYnznve8yxVxgjjow67OZz/72eUqM6EfrkJJuaL2eBDaZE5xheYvLnAlyljbB0C/bLo8R+JzDNThdhXPkngWx4kH/3/DVR1zyNtAbsDcTuVZJH33oAc9aKkH8F9fDtIfsRMnZB/KF+jSXgh/yrQF1AHUtx9MAXL6Y8szFNYqbnlxRV+foQBs0X7swNdPtk9CZt2Uw4c4lnyGUvtBOM+soyx19KcPoPxb7nznO9/fApOFA4gHYgweZ540SMPqmQLyTAgWTxo9Aw3IukIejczOFMghG2FZUgcZPjhjIfUBsjqCOPHFPy9yAPH8hDM42q4u7daXcSszzQ4F6prHD7c3+GFJBpKfOGFxRcbAceBx9vWKV7xiOVunLgcYcs9iydsuYoKcWJL+AHKROhLAFgczZ3jEKD9R60G2lzywj7AHCeSUiRNSjj4yxoX/qOZMk98TY/HkP/a5auMVWm4V0X5evWZ8sMEiQX36DTImCTCmwDbJT2SdTg7gs/HP5jTt4eBnzvCVTeYQt2hoB2fS/CAnP9bJgu5tMNrC69cspnxPh3YyH1isubXDQ3p+M47Xzvl/H8Bbg1zVsHgSi31pnj4h9eUI3phiM3ziE5+49Cdt4Ben+eIn9/Ih2veqV71qId7MY9EnLj7NwNtn8FjE9AX8h11ixKdjD3zmhX/I2O9xj3ssY8h6wpUo44wufcbJBM9H2HT53g863NbiJ2J4eYGrWk726DfmC3OADerGN77x8oOn/K8XNjhuuCLjN/WwjR6xEBuUY508IF+kDu1Omci6XQqszzrEOPkafrVHGR3G/DrXuc5yBet4KseWi3/OxWoLwMu6NeW4wR9jIi9TgH8AT7I8g/KvrAITVMM0MpFyYDl5FTOdlKW85jtKWeaTAAsGD4yf9axnLZuJAyHUyzoVIz5gAWQAmSQ8L3GgBBOfA4Czcx7YcnuEV415BsHZGpOQfuYg1g/lmc8R6nh1sJ2VEh1vH9jH9AWLgA/kWQx4aM/zBp6/sGjxn8PcMuQNGJ7B8CwK35zo0De5wdgvnplmnOY7GslHfIl2cJCz2AEWQjYSfLOJsHEwply5s0GyeXD2TLyMMbrc+uMMlrpsSM9//vOXqxPaZz8x9q95zWuWjZ8HvCzq2GWzuM997rPMXXX9Tg/9wUJNH7GAk2ezYKNgsSZ+wJUAv+sGOIOmPscEcbKgMz/R5eE4CzlXBRA+uZJBzgKHDjFz6xg/PN+gHcx52oltbvlxB4BXzdnguCplA8Qfn4Sgn9iE2PS4oqcdbKSAfuYZ1G1uc5tlPnCLmGcpbNrcJuVkjT5iQfYkmOOKuIhvdMzAk28+eYnKT90RpV7mkzqkzOPWtNbNfIfUM615yxXwmVupN9JNbNpQKrYYPq2DA47f4KItnDGxGNV2be3EDkwCBoQDnEt+vhMP0p5XUCw0P/ETP7H84yC/ocWZOw/1PdviwGPxwp6Tax8ctA3HC7SD/qdtbrRckTAG3LLgjJUzVJ418SyChe8Wt7jF8nD23ve+97JIq8/YuajCo5+8UulQD9KDgJjxxYLGlzR5M417/Ny+5FYNtzCJldjIEzubAuPABsmzOq5Ef+d3fmexdZe73GXhsSBStk/4hQLayC0grmJoG1cTnM1z2zR/KZo+YDPjquBJT3rScgXIhsQZPPE94xnPWOYVZ6gAWV7B88lpfhaFX9dmXOxTNi9uybBZcFuSqyV8M69ZuImJGLkCQYerI37dmqtufroHPiduxMVH6ajHxsIJAvpsqtjEJycXXL3xSwCcUAD6gv6jvzgOeGOO45bPMfA8ks2FKxXawNUucdMuTlaoC/8wY31awNrxO5Ov1Z3hIP12oA3lax10FMSiwOLTTbrDDESCTYEDgVtMovriIOBAhziwOVvldgXPdjjwOIDR8czrqGI7LSD7woWUM2AWHs70OWPldWt/1RmwcHO7kgWUhYezY/qEhcS3xlzstImfo+o7Fiv8cOXE4s3rrPzvBGf5bAJchfCMiNuZ8NkEOVvHN1cAt7zlLZePs3EWz9k/CylzhDYDY2QTYX7SBk40WOw5I7/nPe+5POTnrJ7FGKDH4gz47g3PT5h73FLiapC+YL67UZCaxwZ9TUws7FxVY492crXAq/T8X9Gzvnx1wnM3rxC4YuB2DXqMBz87REy83cfmRDz8sya32YiHkybsUo/XxK973esu3xNinnNlyjd86B82Hn6pgmOGfqYuz4Q4PrhCIw6eA3A1RJ9wRc+zK3694YpXvOJyxcPmbH9+EycOww2FAxBiMktZVp66SaM6VT91kp8k0o75rEceZL0qZ0Kb58D1vqQ6UJbR00ba6sodASY3Z3Eg7QH1PCvk4OTskoWSy3huA3E2xoLAWS5yF8pqC2hPSj11IXVNK1V9eVle46VshJS5kHL1wrg4VqQscpztc1bKywwsLCyyLCRXvvKVl42HB7TcSmEhZXOhz7FJf9FvELZG7TIFVa4MG9jma5jEwqvAnD17u4V/8GVR5ZeqeTDPwkc8LHYskCya3G7ibJqXX1icidlnG/iwH7gS4ZYRJxTwuQpi8wS0g3blvMIPJyA8M2EB5hYZCz6bGX1GjNpmw+UqBVBXOyzGPkx2QeZqg3YAriDZ0HhmxMZOO6gP+MdWriqZs9xi4/YteW5T0Rb+Q5t5DvDBVRNX4pwosAEzlsRHymbMvX7ayabDLUL+OZhnJ/Q9fc6LLN5dAI985COXuwHMBcfL2MhL8JRb7tIqNy9VWero03zqmQddWkl90s5OTTs78oS2ap1qK/XkzTDcULw/ymAxUSl7VmOeVF0PXvik8CDqImPg1UcupT56lpMEtpxAxgRZBx6Qb147xkyKHUikX4AtY+98kaaOevAlY5AP5OtHn9rigONAZ+HiwOASn7NeFinvp+OLwc2YRI2no4wfGIN8bKqrfWSZh9JPra995SMgF+oxLvrLlH5hIWRSs5mwoLBQcouFs10WW54tcFuJZ1KcqbMg4YNNigWVuvCIz7ZkCgFS6unfNmGDZxHcdvFnU3jhgk2Ns3QWc65aGCuenfCAnWcGXHUSA//IxsbHWTwnCrSBKwcPWPx50LJh0GbO1vn/HRZVxp8rDuugD2gTGw+bDn74JznssCGxCXCVkYsBbePMHqCPPcCizRUAcMPhthXPuADPV3jGxQbDBsGiT32uZHg1nH9AZHPkdhdXJFzR8AsUXOFwtcFVFz4g+o6XF7hiwR5XPdz6Y7Pi6gMQI1ct9DlvfXH7jrehuBJh3PlfL9rK8cIGiF1s8Wq6J2n0EcT8ck5Cjqk6pMhdq6yXcvjayXmhLoQMIMOPeeXqA3TJq0eqDoTceOUp179y6wLSJIAt6gHj1h4gTVvaT92qXzF8bZjBYLIwqTGYQJc6EA44SJjMBKzMyeuuBhmcsgR6TGD81kAtM2E8iPStPwgZHcHZD3ZoDzatjy46AD710U9olwMUf+QhZaa2ybboXx3qkMcOvnjTh7NXJj58ifro4gtdNxT6kr4ihcfzFRYg7qdzC4XbANxPpz4HAHqg9hGU0B8PeTkQHQ/bATIPtAHfPKlXSsZpvUyNhX4mhaccsDiyAPHmDnFx1sstL/X1hy/heNBfgP7h6gBwC4lf6eUNJh4iU4/XkV3UWFzpL8aBWyjYIB7nJrYhNgluAxEHbUDHseSqgttDLFqARYy3uVgsAc828M8tMTYdNpkHPOABy2JMHTYfnrFwW4iFmKsWzua54mEjYv5ydcHVBpsjt/boBx6Q89wlwXjT92xQvJ7O4svZPc92eAWbZxr0CbeUuOJl0wPEwwbMMxJut7FR8YyEWIgZW4D6XGlxxUO/8iYbVywJ+oS+49Yk/c0baTwnoS7x8tIFGwex8XCejYjbg/jk+Rj9y6u/bEwcJ/+/vfcM2bW56r73nfi+ENuTGCuGmETFLhqjggUV2yNYPoi9BpVYIyaKDWwQRfwgYkdFY4sFCzawIdiwl8QaNMaSO0GQxKiR5/XB6z1/R/Zv+98ra+aYs1x77/vO/nMtZmatNWutKcfM0c7jYv2h7xxzxoArHPqNeNmkGXPGIOHcYvx4u5KNin6lLvOD8ZsdGwAdCJ/YybkK9CG0kbbwwRxjXcQG65B+E/jgOOQ5Ic8M2Xw5HvJYop79iz7AjnJSdCyjk3JBffqTucU6xLzJeIiTsn1OXjm27At4jBNp+lD31oZCUJzN0BGeHbC50LmAyjVIgidQFgDO3Mirk6kNpqPUgQxK/3QcE8XglAFSF10bnzIIfWScxWIHwqYyfBMDvrKeef2x2JAX6iT0ZZ6+wC66+OUgxZeTg4HiLJB+Qq599IkROfacEMYInzyLLve6OUPj+Qrv4XPvHvssVAwy/UPs2Bn1k35ZTDkJkCcfZB5Yv+pkOf0I5MRB/Mwr61gPfcaKxYQH8RxMnOWymNMu5LQBfdpmnUwBPmg3fjgL5gBGjj0WHzYWrhJYWOl7zqLZZLhtgj71iIMxY46gwyLECRVlbOOfs2cWZl7N5ZmOCzFn1Lwuix0WPd5K4pYXbzABbouh4/hz1cmVFJsQsbIhsZhzVs8CzFk5chZ8NkDeAmNR5oyfWzrwiI9bTG4wbCj0Ex9WRMffOPGQm1tExM7ixfMJwBUTmxkbGGPDbTcWaOLnuQR9x5zimR4vGnDrjDaz0TEH+XwH845Ngm+3sfnylhZXhVyBAX64SxtZWHlmwm0/+ogxpQ94VZqH9fjBH1edbDbExNqDLvOf8eBqhA2X23fcTqMOMXCLLn9rY9y8uIFtNkdsMB9ImSvkoZyLgDw+0WH+5XoG1JenHfMCOW1kvDmeGXNjEOjA55jmtiCbMSd41MEvMEbrElPyjYOYzdf1Q5/YJM9JD37rhoJt6uILpAxblKnDMQFR1ie4pc+GcjjQrkgPjTvoXF0dDr6rw9nvlj907pbOcJhUN3M9DgEt2TksrDdzY2AHezMcNrirwwF3s7SOanfPT4fDIrP1HXFKh8v1q8PBe3U4u7s6HCw3NW+Huis4nNVdffzHf/zV4bL/6rD53+Te3jd7sTPeq/7OAXHMYjkcQFv62Z/92VeHBWDLHyb1liZWxiLb34FxOSzuV4eroav3e7/3uzqc/V8dFsirwwZ9a+6Lw0J8Kw5sHg6mLX84+786nE1ueet853d+58Y7bFxXv/u7v7vxDmfnV4cF/epwRr6NO2BufP7nf/7VYQG+et7znrfxvvALv/Dqwz7sw64Oi/M2Nz70Qz/06rCpbjJ4h0X56o/+6I+28uHs8uqwEVx927d929Vhw7j6nd/5nY1/OGu/etrTnnZ1OLO/etnLXnb1B3/wB1eHzenqOc95ztXhpOPqmc985qZ32Bhu6yNiQe9w1XJ12Fw3u8C2AmSHxX/LUw//H/ERH7H1HynjdljEtzXgcNW19Sd9fNjUtraBw9XK1eEK8eqpT33qpvfggw9eHa6Err7+679+m8vE9z7v8z5bWRij8TIWX/ZlX7bp0aeHze/qyU9+8ubDcVLXdYTj47D5b3lB22bzXl97ML4ZmG+HBfxmqQdzgvlw2HS3cmeXmPf87c19QLvo+xlW2oUdYiKVKEO33fLiLIPdnffIeQjKr98PgW67LQRy5wKUOUvgvia7HHaA6SHALQ+xS9ZdX6BXr1CE5UPAt3ZLyLNXy8iwzxkudthJqWPsxgEdOmHT0QYpPM8OaLe+5HXQHn7oOy5duYLg7A/wSiNnXNiGuGXF2zCcmXBGAPCBDQDPmOQBdOgfzmC4sgCceXJbgzd5OAMG2vVsxrZTP8HtCC6xaRvtTKRv6lm32qCP0IOffWRd7GrbtmabAO3hdgRn2KScrXtmh13jp++MpcYBsJvjZZ6UuthhvAV9ydk0Y8U/s+LMljNdPpnD8yr6j6tCwNUcZ8zc6uHKgds52HacjFEQP2eBXCHw/ItnA7xowVUQvzvhzSfqeDbNWT72efZCvMwPfCMnTo5FQJ2u7VypcBXF67bEg3/eLuMKhysgrjq8hYU8bRAft5m4OgB5DOCPtnMFw3gQW22roB+5cuP2Dc96uPrjiso2Eh9n4dyKwia35LiC4HcyXHFwxc3rxRxHzCt8Gicx28/Y4w4KY8maY98kqE8b6E9i4XYxsWPb9tuXEnzrQnkcJoxFGKMpwBfzh1vSgLHEJlAPG8TIWsWVHFdSXHnS/x676Ob8RT/rm6Jj2eMmYwTwsMNVKvOceHIsrYMOeWTKO3v4BPLR2dJuQ/Frw3QEg5ANMU2woXg/XujIxkLIsxEJ5Ey6bkMR2KIjkGMn9cgjc5DoWNpTOw4/lJlo3KdFj05kMeO2CJf9/C6AhRk9ZA5ShZ3K4sFlPROch7UsVBw89CG3ATi4uXdMmY9EYi8HBLI88gU8INCxrdweYTPhtg63I1g86EfsuWF2oB73+rGBTWHelFiMJ+NCbjz4wI5y6zpewHYpA5RdfNlQWFT53QTx54IC8IWfUXuw69wgFgE/49J/2mGMeT7B5s89fW4TMfdZ+NlgOAA5OeGBN7efuIVF3PRv2geZT1S9Wq6g70ZtFdhAz/bObCrb8zvCiu0K+OIUn+eCt+p4dsNmxyLN5gyIxblU42IOQaPjkDZ17Updx47nFYwNjxLqeNpn6PCcjA2F9YN57oYiiJu63TFmPNhHVusmsMNJBi8tjOYX/oF9k+3SV80D9YYzNpUzfy/DRmVHZIcAy9xD5yqCe+K8gspiwVmanexGwibAZsNGW4kFEGKgee2RB66cDfGaJK9W8joktrlfzBkZ96GxCXJgVkHs6uOTszU2Ba5UeGDPA0ueq3AWQnwszLTjWOAjqYP9qLz2s4AvdUj7NT+SjYAOB0qHao9FgwOMs2ViY6Pn9VTmAScA/AiQN4vYpHmAzkbHFQqfzwG1X7tYuSLh7J+DFB/w8Uma/eHGTCycyHiwwyOvvQpsMA9oiz4A+swN7BGDGy3AnrGjZ13yWSalTLzUyXgrkGGT2EnxST34EiAm7ELEhh9so58xjUi5NuSN4GLOyR7A1wxpr7O9J5+h9l8tn4NjYtnzm7Y63b36ww0lK+4ZmcmPsQNWdFZgx2AvCTCxOBvgFgELMg+FOQNl4/BDcyz8PMBic+C1yUq8gcOtElIOHs5mucXBWzS8TcQCD7HA86CUT0fwJpMLiji2vanPpoEtNg5uJXDmzJUib/nwQBg57Thmwolj45ohbZGXEiOeqLIOnc6oHgs2V0GcEJBnXCSuSHjbiZMB3kbi5IDFkCtP+tf6QPtdrMwnHvrnLYx65QWQwyMWbuGkbfJVv4KFM89M0feEhxiQA+YBeeYECzKwLnUgy6SUu3g7YJPYqYtP6lUQE3YhT8SMlXp789QNQRt7cRETJ4S8wAD27Ke9zvaevGJFZ+XYnMVCuuKn4rrqLF+hSJa7FKg3ImF+lILMA8qpl2WQeZF6EgswZ1NsGLypw9kSZ5Lcy85/w8lbQfwimf8ax5s7SfCQsYlwBsTCwS027llzMHE/lDdrfCuCqx8uNVkgiMHBMSZR8ynPvCBObr14hsc3kHiuwi09Nhbe3sEX9VgsEzWGaj/lpinvoJyDv9PVxkjWpSDrmE+q/K4MkiefMWHMIBYhwP1v5gSLHbe9eNuJW6H8JgSsLIB3E11sjCcnQLytlQsyY8UGQ8qxwHFB+5n/vMLLFQS4dHvxL61gVc84aRPPiGhrQju1PVnu8qRJ8sSqTAI1lirvyqYjGRjxxahOxlN15EndeLzKhoISpJGKajR5idRJmsn0K810R2QdkXnAQcMiwZkLxGufnC2xKJPn6oLFgvv6bALcruJWB68tJnFri3fz+XwGVzv6YSPhB1jcYwccwNhjoWIjs39BjbOSGOUFPHzQNu4b8/opv1hmIeQKiQfdbJJ51sgiin5FxqYv80lZt5MnKKNfZZ0ukF8pZRWpdy4Bxos5waLkLRPmC/0I4Hslca+BNjCOnDTxwJ5NgY2QFzF4nZhbo5w8sbHwQNyrFeYnLwRwu49vz/ENLX7EyDMIoN4Mzp9jQb1VWgUbIVcnfvOMuo6vsOzYW3a+1nlrfo9Sdw9dXMD6x1IiyzU/IpHlTt6h/WEjD+VJPVtH7sFTBxQ+k5ZbAXnWZsqAuPh4qZpBpT566UdfyMgjZ1IrQ1eZcmLgwROLJ/dPiV+byPHP++8cZOgw6bi64PYVvyXg6oMFhI2Fd/85W8PmCPj1bI9YyKvPQ34+rOcviF3Q1U2yj6jb9RFtoC3o+TBYWN+UqxV8MIb0Bc8GeNDM7wt4gwk93uTr/h8KoK4Y5UEuMMQMalyWU44diDy3krhVwu8U2MS5wmJMiAsdx5g2YUM7FeqQUtd6kL4kYAzmBXJ88NICJweMmS8OMJ68XMEzFhYpbSXS1t0C84R5xIkQz+44gQJcMfNBRp6xcYuWl1f4cSVvrjGW1GHuc9xzTPODRl7y4Ie02MwTknsZbIwcI2yK3IHgKwFenTNmzA3HH8px5PiBUg7UU5c0ZeYBfUlfcezRp/S761aCOHgozxrBRs98I07XD/Q9ntFlXmoj4/DYBx43lgX1mceMOXdKMh50If0B8pJIvWpfvZNOsTRWjQodp7zqzsrZiMSezUTtiEw5a+GBKz/YYmPhthATgNf3eNsHGZNBMBgzutWZhzyTmdsFPIDntUkOSg5eeEyILubKq/EKyh0BYpA4mJiU3LLhV7H8+I2Hyz7T4YeovMXk4px1JaH9RPoVXTl55qvtWm8F1W5nW3S8Y8FBysHIFSu/AudZFfA2470Gx5UXCLglyy1Q3l7klXU2EH4xz/MhrmL52CSLC3WYu24mXKlwi49fxjOvOT5OGavrguOeBNj4vLLkJJFfygP7RD2Q+Usg47gEulg7Xocqo1yPhVn9RGdrhOGGks7JS6NyTWekjqlkoyWRPPm1nEhe6rig89YOZ8L84pcU4sNyfP+J20O8v85DWc6efcCYxIQ1z8KtD2xzVcBtBF4b5lfJ3Hv3VleF9ThghTzzmWI/SWReEBexcIBx64OP+HGLg7MTfivAQ3vawWLJwkgKUS83yo5Sjm95NTWffGCqToV1OlIukg86PXnHkPUAMXrWyGLMRw0BfM/o7iUYN1cm3I7lipwrQOY/t2v5hTvgxIozYvjMAa7CuI3LP37j+Qm/t2Ej8gwfu91cu5Oocz8B3ysRrszYQLnty+bCWNV6dZwT8KhDmnqZzxQoT1nNJyW/Q+qqk2kny3yi4yfPtgryKRfJ73Db0YyiA2bFaqDjd/mOJ1IuOeAjWcfvSPuCPPWzw1jgua1CymSDOKAgyyzEbkDUJS9Z1q62SdHnu1H8poGF2wMWfgJ9CXS2Uke9moKqgy/IS3c2RTZHFkV+s8JGynvvXEFxexO59dKOeSjjMS/kZeyJrKdOlgU8U6mWV6j6SFmS/itfnwnGkHnBj0i5uuPNL/rzXr1KAS6u/HiQZyF8QJPPn/C7McC4037aRcqnTfjoIpsPJ1e8ncir8FyR+f988vbK3YRzPIl20CaeI3Jlxkkh8XKcgxzTOtY5DzpeN0/kkSbB08ax0HZSx5dnukcdlGXcqZ9lSD2hXuJVTw9vQmUHKw0rMwXJm9FMZyQTnaxS6lXIYyGQ3CQ8Q7cM0W7Q2QL6gexs6nBmiC1uk3AVg1xbHdJOovKzPCLgeAljArzFw4bHhsIrzvxvDhYPQB02WjZT4OKhrfSR9hPynaAi60kVVUcbUspGVOtUcpygkb3kZx6i/7hVxINqHm5zVg9vNr53C8w98LSnPW37dTk/oOMlEV8YYY4zxsxVbvPyWypeieffBPAMiR8FcruWW6a8Ms2VLnXuJdjvtMl5y7exeG7ICRMbPptMjmGi44HUV555Ucug0zeflLBc5VleIdHxR3IxkkvCcjfnt6NKoQq1ggffdQOfl0DaqTYtu/CIbD8wX/kVKcOefUXqAT0CdakjgYypYqaTMnzXmC2zsXAmx1kcn07n1gBvAHHmzRttHHwsMCw06N1LmPXNsZiN6Qj0Kych9BG3M/nSArc3eangXusrQLyMI7+r4VbWN37jN26vtvvjTBZg5yi/v+ITQby8we1aTix4gYMFmU+qsJHQTuxdchxOBTHkXGdes7nzZhp8np1whcZt3YT1JFF5mSYfJK+jhzIYX0A76jGy0rZbOwWVRwfZKQffsZj5X0VXf9YJM3+r8Yz0mOgdMh7ykuVVZN2sX/MSMboYsDiwMLJocI+d/7XBr/r9dT9v+rCpcObtWd9KX1wap/gcjYfYk89APRYobqFwlcfzNm4RcUuI/qKvvL1yr4DxZlPg7S7Gl1fj+YEtyMXWKw+er/AmEF8Qph7f1+KfYHkVe7c3TtojGA+vmngbk99d8TINP0ZFxpgkPBb2sKezZ2fFh3A+Qh1G/MSKzgouYee2Va/rCBYhF6JRR3UyeZVGmHWqqHZmqfkO+KFN6a/WsVz5FWwcIz03FVLz6FiWB7r6FXt9ZH19aNOyPHVYUOgHFg7+DSsP7dHhNUb+jS2vXXPWxyKSsQptjaDvPb2Krt6eDeWj/qnyal/I6+SW3VR40YEzf55L8f9FWMCQ0V/62Ruz6wbjS1y8lsr/0Pn+7//+2/pAcIKBLv8RkQ2Hh/c8P+HWEVexPNzW1r0A+5VX/nk+aHxs7lxJjcavI2E5j5OEcmW1XFF1O9iOkRx046XtpD2kXqevPKlixBe3rRIGntCADR+hytRP2sOeXrVVU1HLFSMbtZ68ygdV1umIHIQ6GFl/ZgNwwEDVZ7WhvyShrnwOHhYJ7zVzW4Qfa/JNKzYWfnvBYkM9H/KC9EVqXBDIsrwO6FXs1emQvrr6GQ95yxXy1B2BW0UsZJzB83keXkHnDNlfZrOpsOl4hXe34JUHVxk8dOcEgfGsYB5AtJk32fjtCa8OQ2xEo5OKOw36k34nFtrG8x02dv5zI/OWce2uomiXc945W8fX8kgu5Ksz00vdDupUefL35Jb3sKevPKlixBePfMYznvFVdCADwX1IDhReJ2TiUYafHcxgeTA6ydD3oS+81COV4GNLGWV1rIs95RJ6EJMJyrpJ1ONg4fIXOa/NslBWXcrZJuumHD/Upaxu1SNfY4VSl7osLFya+zn9ast2UQbIq13rAGwam3qm8gFpJfToY36LQv84HtjnwSbEj/Z4Q40fXfHPkrgF9uQnP3kbYw5m7BgPadeX5EmNCx1lpJL3ufkPh8TFLSQfGmuTOvabPiqlH+yoJ9+6kLAuPPVIscGtH/qnzkd1iQc9xhWw+fIbJn4YS5v4l7kcSyx61EMXEtjJ8nWDmJkb+HSTGcETB+uAbhO6U7Cv6HPi4ASI38rwSjPP/fh9FVfY/gM1T5Co55jmGCbJV7eTjdIRISdOnlNilysmj8skxoH582M/9mPbG2l8icFbptQT6JpCtV0SPPpJWeoCbPNDT56jMcZdm+23TgYpq3Au755yjAx0yAPE/Iyn3eSnPqC8F0OtAzoe6HyMkHqrfQCO7S9jqpTo5JJyU/MjEF+dHNThJALi2QkTi4f2z3nOc7ZP43PA8rsENhUOWDYW66e/Ff+J1DWWCnRGsg7qd3X24kvZTA9g3xMpFgeeM9BffHGBB9+8CcaBi4zF0H69GyAGFtu9zYQ2o+fCPbqiuVNgEWSuAeLgh8hs2rwCbR+ToscJgO3jREDQJsujeSGQcWwA6lDXeWC6Z0OoP8O5OiNZx09eJ69tmvkdYXdDwShE50IMKsTAkSIzb4pe5ZmX5Klr8KTKrMPEzjqVlJGCmk9ykoCMsxL8Kstyyk2JM+Wk9hlloHxG1q28jDt9kU/Keh3ZB5B5U/ywiGCHBZC3f/inYdz64KEurxlzBcHDXcCZUNrTFtS1I8lYRe0jypK8GeETGEOV1RhTZh5fljvfyk0h+ouUzYJ/i8D/wHnqU5+6ffKeZxL8DgQ5Cx6LFYvfyoL06gzmFf3E5satWDYSbmvx9habMxs3v5ehP9lw0KOPuSrM8YI8LnLsUkYKT2J+pOwUAvoBVS4f4A9doIw4IWTAmCDjrHnLNYWy3cA8ZP9YllIneRlTxdIVCqByGhjlwaoegFepw4gPlKXOnn5XJ5E6HVZsJEY62pFmWNWboas74nH2zYHNAcwtMB7scsbN66T8FsMrGt4WA0xacW6cQBurtlKv6lP2AE09UHXFHt+UYwTbHJT0FQsc/4GQt434cSBvg/HJG/5vDQufi59XLWzQucG8Omw2tNF2ktIX9INziYWLfuKtLT4P84mf+InbBsMbibyyzW1ZyoyBrz57ZXEqclzNd9iTi3N09FFJmB/xO+zpyatph5Fsd0MRGEiSZ1rzI14tj3hJopNBKevyCcsc0N0CWOslP6mT7fHMJ1ZkKa/5GW9EI93KB/YTB7v/tZBfIUN8+4xf2vOmDYsCBzS6aSNtgY4n5HU6yTuV0o5IecpMQZVLVQY4i/M2GFdx/KiQN6u4suOsmteN+Ugn9/7R5aqFTRmwqNKP2nq4w6s12k2b6QeuRuDxn0/56jEvCPCMlofv/D6G39SgT102nOx7YF5+lVWa8UHlZXlGwnyVd/xRuaYjnmWQvMoXVQYsZ5okD3hCkFjaUDBA5c7AQxV7bXk4tPXcNjjmjD8HL3lu6/DA+Td+4ze2LzJ/6qd+6nbwc0YJcYaJjnPmUlixdYw/D4rrBg9d+dosv+vgm1r8Dx0e+PMWFT8m5WybH0cSDxuMcXFl6NUL/ckCesn+vJMgbtpDW2wT8CqEKzvkvJjBP6LjFWCejfDWHF8jYCPhTbN8llJPBu/j3sDShsKEcDLXvGnNj3i1POIliU5WKfXMJzqdY5D1zM8o9cwnVmQpr/kZb0R7SL3Mc+CyCPgWEM9UOPvml9R8xuV5z3vedsbNIsFZJLpZ/1xoa0QrOkkj/eRnPilReZln4WND8CUGbh2yifD7FZ6vsJnwgJnPxPNG3W/91m9tevSdVy8suGwo9DsLL3mhr/R5N5D+3fxIvQKhPbTFNjGXeMWaD7FyUsJnUvhAK/9SgVfXefOJt7je5m3eZtuA6D+v5AD2k5KXecsgeStU69TyjIT5Ku/4o7JpJ+v4oON3+ST5ph3tYXdDYeA9A0iDo3zFih78pIoZL2WjfAWy2iZSqZaTRJaTP0Knk/Wlc7Fna89HymveMgsc4CDndxj8szEe2vO/QjgD57P5LoIspmDPb4esk+M1sgUfvVxwK6w7s7OHrFvtWQYs/sZtf7C40m/wuZ3DLUR+UOozAjZpvrnl/7Fnk+Y7W5yVs1GzMNezc+y62dDfEH68NTTrj1XQLm1pG58s9sSdG523PUm9AqHN/FqfZ2/8WJLbWTxX4s1B/iXAt3/7t28fVOU/ob7ru77rZk+btN3nJLWPQS2fij076XvF5yV00mcieaP8sbDuzAYyybmd2P7BFgPPBOH9ZM4geKOCd6IpMzmZxLUyZYwiy3+wxQRQVgk5+k68BHImqBMnoW/qeZBKIOVMXv6BECm/9EY/D0B08GWcxAPgAe1Sj3jIE5M+1BNZVgeYxzcHE/8Phfu/xmM9UgnQR9Q1TgHPBYJ4qgyChw6wzcaRoM2McfcPtsh3tkWWaQubB4sG9775bQu/CeAsm8/2c9WCDu3nXXztUp88KTKeOfDGDikPsFmk7HN1sWPdEdBB1z7MdoAspx3zyukf/qOh/2BL30C7jg9l69eUeoyH8cgHyGgnMs68HS/4XLXgn7N0ynzYER3eIGPx5X+W8F85OVbpM47VGYiTuVzj3QP6EGCeEONeXZ538J8h0eO7YHxUkvi5zcftLvqU2398Ip+PUGI3wXzAJ3PK44Q+IFU34wLk6Uf88ikhxozxAbYXYi3zuE9ST1+Q7QXVl+Wsm8AH9VmHmEvc8mQeVD1kfOaG3zAx1r5okPMFX4wdsbhWacc2omO7so8S1Ge+8ZLDE5/4xNviMaVOrvfyO1T7t2ytbCh2bAIDGM2BpDE2DFkSQBdb2REZNB3HRFIOlFPPwQbwlZlSj/pcShMLA0n86SNjgu8gGaN26Q/qgtmGUoGetgFxu6Hwv0j24iFu8rSFVDhG8OxnQT1togMspy9BmznIc0NJX1lO29UWY0F7GFdS7LKx8NkONhYWD25jPOEJT9gOFGLGH3rkscckpw4bCmOHPgtP9jnAV8bSwbnRtWkGbapf+8dYkZvW/q+pOoxHLhAV8Jj3+EQXf7RdMHfoD74OzWfn+bEpZ/ouDCxCbOQ87GeRZrPhuOX4xSZlbF4K9DG+iZXjjA2EFzPoL76q4A9C+QEd484xyMZBbI9//OO3jZG4AGMPMbe9DVZBP0r2o2WhjC8kc2JL/6ljv3v8QPIkQIo+7YPoM+qA9AXqXDQVjLvrEDaIyZPTBD7YdHhWxD/k44ST8a7zxXXIfoNv+4BzET42UyaIww2F51EZj76oU/unQ+oLdXc3FHfHalyDNJ4NZe8KBSCnU9CRl1jdUG4FHymErNtQqAv0aUzWS8ijP1z8saVeF7dAR7uC9vKgOjcU4skY7A99AXjZD44ReuggS3/6VMc2y08Q0zEbiql5+ll51qNtbBz0OykP67kdxv1x/s0sYHG0jYAx5+qFDQU+nwhhMUodgG/a1LVHODeYZzU++BlrlquM/skrFMcHqJtjAy9TgQ7jUReICm2S0h/0I/UoM585Jl1oHHsWcdr7V3/1V9uizpkuVwPUVZc2sEjB43+4UBe+Z6iAsnPGMnn88oUEjiU2fFLiQRe/HO/Y582/t3iLt9gWKezihzwbWT7zALQNwgZ9jA98Qfi1f0yBcuCcVw6fPHzaxoaSVyhpz+PHOSLfFMIecgh7HkP6MRYIdPUBvl2HaCcx0W71BT4usaGYh49NQAzyAG3Z21AAvixL+hEdn/KWrmwoNJDGWKmCjqPTbHA2kIZJyLGVUI9BZBHKy/8Eeg62saSevuD5tVwme4WxaKfGI/DnQOYZo7CN2ALGQwpsF6AP2VBYoDoYD3WI23oV2EG3HqgCGeNIfdtVbRkXBx8bSjceUCL7OWX4055Al36jbyH+vTL/RhY9PqLIv6AlRurSr0xy2lNveXlgJIyj6x/s45fUPkw9+BB+Aba0B19d85wkMV5d/2QKrJv+gOOBDWRVDrDD2APlxgBhg/pcmRAvt3Hh0bcd6DuPEzZv6tAWrh44TuGzQVCfPH32N3/zN5seZa4iGIds59u+7dtusXCMs5F4NcEnjrgK6UA9YiFlPLBPHe1axie82s8J5NajjjCPjDyfXvHEVigDtNW+0z8g1T5yYsIGOhUZC0gbAhvUZczwxZhlHAlvefH7Guab80Vgi+MeO/C1YQyk6EDkOabSj3rwsMMGxhgbo9COx64x1JjRSxLqLW8o2cgKdj0GsjoHBsogESjUAR03lM4OwIZ2ckIIfMFj8SbebkNBBxv4m8UD6FzQLW7AtgH8dhMQYIdNbrShAGMa+QIeEJz9dCAeNxTaNepHwHMvNpRRzNgCMxvEAukvQX3idTPm3+by8T4+k8HtMNrJ3CJeb3kx9/hvkvDtB/3jZxSrsH/qQSWQ2a5u/iRW+weM7DgeuRB0YOxBF5Pt5lYS6WMe85iNz7ECci7ji7aP5sclgS+Oe2658RwNOOdIaTMpfUB8tV2UIeygMzvGtEH7R+MBuCXIOlTnotCXdmpMAD/06ew4xIbobCCHzzqEH9bREdh03FDe5E3eZPOd8WMrN5QOxoyux1sHx4wroQ76cuxm0J+wH+ZH6E1QMStXIKNRCevAn9UV6sx0U6eSfJA+TYXlbiIk0JM6JN/8THemc0wf7emlvLNrGRlUgdx6mR9hJIPPQcnChw0+RfLzP//z20HG12F52ycXv4xFm44RZaiLV4ziEMpTr6uTeiN/yDqq2JMLZbM5mTZI6TeIzZhbhlxVUJ4tuLSHqwZuqwjtImORgBgziA2aRUgZqTFQJl4I35wMkEJu6C465K1nnVVkXZB5IY+0kyfUSUrI68Y+61RKWM7+qjqiymd6KbOcPvaQul37hLY7u/BmdZc2lL1J0DnuMLOhjxWdFRjTKLbVmFdQY8K2lOUOyd9r20r7lafdke9zYbs6+y5spJz1cPuFMzU+P8KrsfzSnv+ux5UAIO5qx3InG+GU/nkoIOPda+MIjIUksAXB46xUSl3l6Zd4ah9WXurrR17KVuAi1tWrcYyQ/k/BOXVH0ObM9mrc1xHfsbhtQ+kCulSQe52ifE/nUlixtTdRke/FLPZ0Vuzs6azYEHt2VrCnl/3HGSzgrJVfQvOrcR7ifvRHf/T2QJIFy0v6PPs9BtaZ1VvReXXHSt+kzkqfVv17ESvH+6Wx0m+r/XWJfj3Xxm0bStdh8C7VkSsDdo6v1brHdNpIF37KRnlx3W0/FvjKONO3sdR4unLlVSg35eyXWy5sIFyp8Etp/jskVy5sJIBbN9xuSRjrzN9eLIkV3W4cTwG+RnQngb/VNqEH1Ri7mOVdV3v2Yr7UOF3az4o+fbbXb+fKBfGcO0Z7bbq1oaCoMk65xKTsZe8M9XIYaK/SDMfqjFIv2UV2ovWhWbuUa3MFqasP8/qqA6pe6o9wrI75rGO+Pig2T0qseesjZQnkswd4aSfrcp/dOu/8zu9844d/+Ie3/7fybd/2bdu/0qWPeP7CpuImI2oMAv5IBqp8pC9vNvajuhXa2NOd6WAD0CcrdgC6kM8wfA4C+WyElOcpliFuTfr8RDk8x4FUuD4A20mabVZe00THG2Gkm/yZPWQdJbItHVJ/ZMNyyqqOwA9zfaannZQlL/t8D75s0OmmDebNKdh6zcmaxphI3rd0cjpBIWRZFsoyTVJHSl0p5ZBAhk/1Mp+6LmKUOZg8WDw4PMBIO1Jf2/KqjnrmIWJShzwgDm/nYA9+kn6gGbKNIyDXB6l1rGdK/xBj+payfbYj5caNDHuWK9kfGUPagfivdoA34PieFQsZn8fn45MeaDx/sT5IeyM6F4wX8XfAPrFXn1AF8Xd6knb2oD6wDn3rWNFHvG3F1R8bATwXGtpCnjHnAT7EVSBvVJLSz5AvSfCgn1uUpD5kxwapCy0x4Afid1ZuPs4JCB3JsjJIO8nrKOvvoepQT6RN7ZkXHU/IRydJfsqB6ymA3wFdxlFUvbSbsuRlDB2U4ccTOWOX1IEoo2vqPIOA7cr2ie21YQRU5n1pJhQ/mgJMKowg15kgbz2+qMqnuplsqWdecmJbTlBmMcF/DdSyjaPswSLIYwM+B5UHSe0EoB5IPuhiA+hVGxDtV1Z1LHvGR3+qn9AOcBHNGMgTL4sEeiwEKQfWQUcZdWo7lTFmfHYeVFv4kEc9SSBLeeYTacd22U7r0S+8nss/T2Lsv+mbvunGt37rt26vGfNKKp9w4YdY/IYCfdreARlzg1RfFcgggFySJ+gzfmPhYmrM6pF2fQRqf+emJC+BDYh63dgD+PwangWbRR5dF3hSNwXqEhexA15Vp3/5oSgLPpsOMmME/DjRW5D0Hz++pd3YwR583yRj/vLaMnLGgfnDDxhpI7FRH3/Yow3wPf489kltLylyUvi17ZaJBT10WBDhJ7TLq9XEppy6EGX6Bxu2S9sJeMgh+haQr5DX2RDERD9gh/6jDv1huyH6kHH9lE/5lO2VevqS/nPRNx7rZdv1S4oOKbKuH1OX456xdB0V2ne+ItOO9alD//LDZeYcZaGtWxsKlZgsTBp+6MQvXv0f6NnADkzK0Q+cgA3WzghMSgeyAzbsCDqgxoMcnj8Cow3ok68YtUWkr1nc6ImRTdrFgkgfdfFgQzszX/Qj9Tk4RrCvwayP+BEYVwVd3wBtzPopJ3JnBxk6IzlgoePA+tzP/dztwOOHjYB5x9d3+cwIHxL8rM/6rI3PAcGkxp6+AXkXDPqn+kMuWYfUvEBOXU6q+G+VVS7wI9JeBTFhr/MF8JfzzPhIPePnmHQhSPAjNTYIfhzHD0iZ97w1x8bBlR9+6St+n/HWb/3W2y/qsUV/49O5mH2FX1OORY5t9PldGq98s0awPnDyyVt7bPoQv6FgoaHPoA70GW1i0dOvbc8YOlB3T2dlHYL0140H2FuHHPu9eNjQaau/HerAhsLHQH/yJ39yW6+6djIHnB8dqOO4zdYP2kVMnMCNgC8w85cbo7Avb9tQmCAc1HyWgwnkhpKdbwrIQ+jz60sDSEfkbbC7p3wBDx0azM5XYR0PAspdTNggBn68w6LCANn4ilpXWMYP8VCXySW/ts3yzB6LJgc/k72LJ+10ZxgAHmNBXF0fiTzDyD4S2IXPL+VZCEZjZpn61YZl+od4iNlNLusyHhD6KU9wFsec4/9gcMbLDxtZEGkjdv/oj/5o+9/2HJT84v4pT3nKdhaHXcaFtmiTeOR37a6+u7ahg182FM7Wydd6lk21UVNiYczoY8ccGfVSx35EDz4+HRdAH/3hH/7hdkuLDfb3fu/3Nj4bCH3HL9hZ4Jnv/LCPD0jCYyOA2ESg2SI5A/Eyr9i8mMtc8RDTX/7lX27ziDaw2fzJn/zJ1k6uFPgcC+PJlxH4GCTx1Y2GdjOWgI2PdldgGwL2D8gxIY9fNhTmtGOmDnUg+hhCVzuk6FnGFzqelGhHPW2aAusKbFCfY54+Z131uIcE9TgZ4NMrbCiMGXr2gz7hka/9Ywz4Mz86zqhPf/tLeftBmajrB8BW5pE5JvrRRnuF4oZCRxBEDqQpMI8+B192FsBmUjdhBHImFwtJ+kg42MjxVWNBRqx0Gr44wNwQO1i/84ct6iLrDkTiNYXQkypoF5scG0oXD/UdICdEB+qiN1sYjLn2jzBWFgJ+MTsas8SoXUw+4qHPc2ytjwyi7mjsWZhYTLhCYQH6uq/7um3Roo20xbZ+z/d8z3YrjIOPt8PwycbDgkkeP8xVfLsYJGyXsdmm2i7k2GNDYbzIV6SttNHZog3YUM86ABkxAzaGxC/+4i9uCzSfTeFqkrZyFUBf8dVhNlbGj9skq2C8PH4quthN6c+uHzpwJfXc5z53G2+umtj8+OowiyUbIpvdu7/7u994r/d6r1f5xTbx0Se0UeCfsSUdzSH7lA2FxdKxtw22jbY7H9VRljoQvuocAhkPdWp9gJz+YrNg/rKuYhN7qQc4KXBDYSxpf20nc4S6ziNg20iNCdmojwB2iIl+R79rnxuKseov/SaJW3rdFQoDwzMROgIH2ZA0bEAPtQ0FX+hbP+0IbFEX2d6GItJm4m5sKKMFwLbfyxsKPDaK6pNxfeYzn7n15Zd8yZfc+KAP+qCNjz7zBr/eQqt1bZex2aZOj/asbChCG50txgMbyjiomVuMs2NNH/3xH//x9tl/vtSMDmP89m//9tt/xeQsn2Oz+5RQAjt1PJPXyfeQ/QUom097ye/A7Ta+J/brv/7r2zj+2q/92nbVwm+R+N8vbJCUBQ/6sZ19N5pD+r7uDUV72NBnrQ+QE3duKHUeiDu9oXiFkmOXOHdDeVWLB6TiCBoAmR9hRWcF2bBTgY3VePb0asfuYWTvmJhm0IaT/qEEY6/9QFu43cIB90M/9EPbl4shHuT7TIU6HnirOLe/j+lfYuNgZePjpI3NhAWHDfKDP/iDtw2S/4PyER/xEdsn/H/hF35he57Ed564VcRmwkLHhgl5cpHo2g7POI/pG0EfZT+R7+ypQ0y2lU2BzR4eiyr/Opp/rsUXpfmf+uS5YuGrCZ/wCZ+wtfX7vu/7Njv0kScGtJe2ryDHJOMW8Do+uM7jZeRzD8S0V3dFZxWz/lnB8gxj8kA6TKejIFK3k1es6KU9dbvUyW7cSertAT2IAesm2zETkLMLYGzGUelcpJ2ZPfyfC+zv9WfGswf1ah3y3IplYWKh4rViznS5onmf93mf7b8eosNizdWgV2n2s6RNZaSdHujOJoX1Ut7psggSLwsssXG2+md/9mfbZ/15RZozc84oefmA/6fOjzyf9rSn3Xind3qnmxZun2PExCILdWfQI4zacSpm9oiJdrJhsim42dcNgTsgXGHyHz5pO2PIb5H4vy/8/xT4/OsDxtLXnNlYPIMG9o3x5PiJjJX8iDp5RfJTryNALF1+hqqjPUkkT9sp76Cu+Q7aqSRquWI6I2cVE0z00YKb/FoGlpVVOYDHYpKy1E8+oNNyAU+oiz0mOWXyErz0VeUS/JFMShujgdSOsF4lkPkK+NZNG8qyDEZx7JFtywUCvv2WvqE9uToJY1OedYDPTr7yK79y+9exP/3TP73dNviLv/iL7UyexYxFPJH1Mz+a49joZKM2yhNsbMTgmTb/Q54zcL5fxosGvLXGWTr/5pczd+arVx+5aD4cQD96PAr6inZ6BcMbh/wPeb6awKvjPMPlf++z6dJnPIehHxkX+og62M0+9xjroF7OrUQtj3BMPXx1c6irIy9TqJtrIHkjfodZ+/El0k7HH2H6lpcP5ZHXwdIw/PzfEXaANs1bh7zlBPU8k6ty7ZgH2kmb2ODsiHvs2OGeLJM27VU7xJ92jB+kbfLdQWFnq5f6yMhz0PB6oP9gCx7I+uSF8gRxUpeFmQML/bQjAfjo27YEOvC538yY0aZsM6i2OhumyEwr1AMp1yZyxpwrDZ6hcCbqW16MY/pJED8LC33hmHzjN37jdruEVzC//Mu/fKvPQ2DmJLrY0I6xjGKmDnOah+DkMw7q0F+5odoewBk1MtoEuHXFCwWM/6d+6qduCyRXW/exD/qS24B82p1+5H/NM7Y8+6OPeduM9Yo5wJzwzUXyOd4g88CxhMhbx7Fl3LHb2fB4yXE3BciZf9zSxI5vm1YwL32G8uM//uPbG3psls45YzMPTI1FuUg984D2cZKDP9Yhjjt4gphBtQXBUzdtJuSPt/QDNK7RJPk4cjDkady8ddBz8JVB2pBSppx65NOusloHGI++pUTqm6Yv9ZO3QoDUthpfF4v6gjodaWePV+2NYAzoG2varJRy89RjImb9JHSr/ZSRIhP2iUCmDWGeAw9wn56F5Qu+4Au2g5JFhUX7l3/5l7dFHX02qLQh7IOkys9yAnvatC0csCwG+GUB5PczPAf58A//8Bu/+qu/uv2AjQUQvWrvPm4HCzB9yQsJ3BLk9hcnUjxj4rYgv63xYTeLI3CcGI9KjBVz1c0g0c2NDo45lHYznwTSVycX8rRVj42UdWR9jy+oyu0fbaVN62hHvjLzykeYbigiDZhPBxmIZUkd68irOkkpg5hYEDJsVZ0sHwPjMu60Tb4bAGmE1KEOZOwV6Bi3dWyr/I6MMYk6nPEYZ8JJbSqMsdqC5Fe5ftIXfHk1duuP5BmreW1C+pCUewXDlSj36dk0+EU9Vymf8RmfsT3wJUWHq23qYOscYMP5YGwQ7YLPRkJcn/mZn7ktgmwkP/uzP7ttJJz1cqXKAoi+bbmPHvQRiz+bBScPXC3y8P6XfumXNtnHfdzHba8kc7XHJu2JjfOF1DFynmWfq6euPPMpS6q8nAfkJQBPVLk6Ql1l6uNPKIM8jkzVp9wdg1Bnq6uXPPUk7aStxPIRlkY6Y8olDjAoZR3UWYV2rNfVtwMz35FxVQIdHxKdDBKZJ0bl1f8l+6ja0l6mUm1/hbxOBmYxdbKRftpPn+hD5LPPst/Uh8emwoLN66k83OU1XH77wAN8fr/iAcJtMOuObJtqf5QH3srANm9nvcd7vMd2K5H/7869f86q8Yl/YmQxxP597IN+YoOmD9mQGVtuH33Lt3zLjW/+5m/e3vJjY+EVZPqfzSfHBljGVi6Y8HOcySc/yzMCph1mshm0n3EkPJ48TlagrYpR/VW7iaNmto2sjQNd52dHyMv8KolOVin1zNuRkjLQ1REpE+pJHU9+B2Q1lkrqjXgjpL56HQ9kP1Sd5Jt2ssoD5I9pl3xgnrTGlykgn8QZKgsPZ6wu8vwPe15R5VbYJ37iJ263w3iu5m0PfZAmAfimleRz5ow/Xl3+tE/7tO2DlvyO5iu+4is2GVdN+OHKRbv3cRrYCPLV6Sc/+cnbm34f+7Efu73g4L/Q5QqwA/1fx3GPwErZdCQDmV8B8wZKeyOsykm7ebhX/xicNMtXdq4MMhtUkTJphJRlvQ4zO8A2rLSlgwN+LvbiBCs614U939cZW7Vd+zvL6FIm5SoA8KyCHwbyhhWf/+D+Ow/9ATosTGwuK6i+OBvmioNvI3EVxPeReEOJ15h9qYBbMZwV38dlQL+zsXDiwEkDmwdjymbyZV/2ZTd+8Ad/cLsFynO1lWNzpHNO3RGO1QfUSXoo4GKnTR78ph32OuVSHZcxkO9IeOZy3dBHjeFO+O6QMXS4G3Ht9UnlZ9l5kzwWF+/Bc/vpZ37mZ7ZXi3m2wW0SF3zOeqkndYCPD1L03Uz4USIP37/ma75mW+BYzLhq8Uzw/pXJ9cCTBl7I4IsCfKqG52eMA+PqWjJbT2ZjvYcVnXsNxGzcs345B0uz/bqcJ471of6onh23N/DntO2USVXrrPg/tW/2cEr8qzinX0eoNinv+eFKgY2FTYVPTnz/93//jc/+7M/efpnORye5XcWmwvOX7tXOBGfHbCbo80ooz2q45eItLuQ+IDau6+iHY4D/bFctP5TBOPADSU4a+IQL/1aa1+G5zclGzubOHB+NQeVnea/OSH5JrB6f58ZyybYsbSgOigQyn0g95ZlPVH6nk1B/Tw+ok3WSZ8rB7wIgX1ReLXu7RL6yUTnznWwPx+h2sdX65pPXwYld64OOB+SP5GKlLlRjgIT5yhfU9TYJZ7T8VoXnHSz+7/me77n9x0gfmNtvCWzC97VgNo/3fd/33ezwNhmbDBuXWF0IKvBRCdukp4C4iYV22TeWRddfDzXQ99xm5HdM/OKe/y3yAz/wA9uVog/qbX8SyFTK/k6+6PKpV3ki5ckHllNmHPKqjmVRyyD1ap1OltTx5YFunk83FCvQMIwwuaWc7KRc7mfe1Dwyy5U40CF8mJdSTh5b2q5yCBvqAfWzHjpQ1y7kknqdb4j6UpVZTuriqdS1ybK+9FFJ3RpTR+hlPv1pp/Irj7x+Uk8ZpI8ql5AJ89ZJ0tasbcrSt3mI+czGwVtXLKpf+7Vfu53Nfvd3f/eNT/qkT9p+28BVBjZYiEg9BpwLgK8d8+kUvieGLc6GIdpzDrSTRDykx4JYiZ0NlNt85CHaxedfhO2jrVylcVZPO9g0IfgV9CubK0QdrvIs0x+U7Qv77LrB5qGv5zznOdtbYLxWzGbj69q0JeeL5FyB0MEOPOdnEnLnk/WyvgS0BapcHWE/p5y61ieFV33VMjEbW8qy7dqSUh89dbO+ZJuMq+KRz3jGM77KSeVZGv+chzM6yhh1MoI0RJ7Jjr7//Ee5gaV+8ghOuwZOvgaddUy1ZZq6xMOEJuUMFNtAHQEfHUiZNrSdbU4/EEBuHjuA+KtdfHGgcnmOHMBPm6K2Xz1If8ozzXpdu5KQ8bFFxoy89ZGRT7IOeW2iqz4xpa582wKUp55EmVtS/BCQufeBH/iB28JU40cPXuVLCfyil3FSn7x2WCwZk7d927e98cmf/Mk3nve8523/HZJftL/3e7/3tvAC5wCpcfK/77lfz/EBuGoBLP4A3aQZjJX/d/LFX/zF29eG+e0KD/h55mNKTPgjfojvgVGPlwFYRPQtiJ+42DDZ+Bjr5z//+dvvONgQeduNNvOJfG4FcqzQ/9Bv/uZv3viu7/quGx/yIR+yxe/mgD9TbEPos2jzuxte6eVX2JTdmNFlrmGTf8yFPzZuvqzMa92uG5cAsXLsEwP+aQOvFXP8GQ+U88U8dXMuma/lrN+l6uDPdYjNrq5DEP3HldWP/uiP3vioj/qorS/Qc87Y3+gC+MwXUvO1PZZNtUEZ28TE77KoC9CRsIleQpl5YyOVD27xZ59e6T5fL6xDwPy/Bl7Zc9AAsnQo0o559LIDqi9RbVZb2GCC83kBJjWvGcKrenQs7WJAa9u0n35A6gh0Mm4HT1AHYvHinw5x8KOPHnWSEp0voK5+tJ92IPkjO9Q/jPutT4vYBlBTkPZSLnVykPmUk8qjb5hzfHqFOfesZz1r4zF+Qj/AuiOgZ/+k/w7Y4sBizgD6hMWWjYYDnMUIG8TDPCEmnpfwOxN+vEhd+ALdvfgqWPixywcS2aR4Cw3/+GQhYsHhthobCwuOPnh+w7ev+D4YupwACnV4UP0d3/Edt36x//7v//7bQs4/KuM7WU6wPw0AAFmtSURBVP/7f//vG+/8zu+8beIsNHzWhH+M9RM/8RPbK9a8Cs0/zuI4+vRP//Qbb/mWb7nNFf7J1wte8ILNLyeTjBufvnm7t3u7beOjH7kdyP89AZS5GuTqhQfo3GLk80h8VoUvSJ/SbyO4yALaxQc33+qt3mrj48O5Tl6fmUcOyUuingTgmSoH1Gde0HekrKPKTAHzlBc7+PQKfZ6fr09bEMi5BjqbxmJeGb44UWNt9NM16iWqLaFd5ElC3dtXwAKNJAgMSlnqKO/0KNMpHR/KfEfqW1dKHTHSlae95MnXDp1Op8lLqvUsK0seMJ8pVG3RP/ZR+iIV8pLUFZ0OlLCsTBuWkyfffE5u+MbcjW8n73QEeXVSN+tUOcRYKe904GlfcjPhBIMDjVdP+XQLv2FhIWcR5MqA+ly9cIbPogmyD4D2TwUbBlcLfNKdLw7z/1j4NhX+vWIiTtrJ1S4LOah+PRvmh4B8Fp428GozVyVsIGxUfFWAKwreeLMPWNjYSLDPV3/ZcNhY+dQJmwkx4It/nPW7v/u72//WYJFiA/Q/RAL6xUWQWOhXPuJJ37Kh0EY+kMkC6uJ9KeibNtGH+AT2CcCf88E0KXVy3oBOT1QZSD1Im9AKrFfrm5/JswwynzIJnptErU9+BUut0vjIqEFUqJ9BmhqkKYSe+REJG5r1Uz5D1e3qwWNiGlMHfAPtjfRWkb7Spm0E6iQv9U5B2ktblZckcmyTMj5RdapcdPys08UlRnNImK98FiBOIFg0P/7jP35bUCmzED/72c/ezhq5iuBsnTPxXKDOAW0B3B1gYeYKiasfntFw1cavwZmHyABxsEG4uFcQMzo8N+ANNP7PO78sZwPi1hN++M4Z8t///d/f6tBn6LGBYJuNjW+Pwf+AD/iA7YeZ/AMowSdtuCLhConbV2xcXK3wA0PeoGMz5vc/gPax6QB+9MmXhPnCMpsMwMel+lJ4dcsVFm0Fji/IOTBCN39PgcfHCPiQ9jDTwQ+kzp69Tl55tayPGU5bgW5C4+lo5DB1RtiTJ47R7WBnjeKCh87Mz7kxJEZx3KvoJuQMx+pX2DczO+f2IWe3LEYs4Cyi3Bbicyo8r+A5BGfl3BICl1oEveXI7SG+pssVBQs2VyW8LMBrzjy34UqFtrHQsTkAr5AyFm5pYA+7gPZwa5PnP/CwweZBXXiABZ863Nbifj4vKLBxcmXCFQpXLnxqX39sOuDzPu/ztnof/dEfvb1GzReaAbfP2PCMFz/Y4seHjB+39Xg+wxUgt4Ltg0vBOcJY0Tb++yZx0E978wO5dElc2l7ikvGmrVNsnrWhXBJMAmkFq3p3AvdSLPdxPlh8WBC5KuD1YJ4ZsCjz5hBXLOCSZ9X4YxHmF988n2Eh5NYTn73nFVjO7HnNmXlGXCy+5F3gOfBdwNmMeKvL21i0AdtskFydsFGRR87GwC00boH9yq/8yo2//Mu/3G5j8Sr1X/3VX21XMXztl6sVrizwh1+vAOgDYuXWG/5ZuAFy2oQuz1f5SgEP4/lUCv9xk378kR/5kW0z4UUEcMn+FLSR5xc8pwCnLJAPBVxy/UlbI7uzflzeUDBSSYzK8lIGUp46IxI1n/LMg8rvSHQ8kZ060kt+pZRn3jKLg3nQ6SVPHCtPEuZHsq6cvA7Ka7tE2pEqRvLKrwQYr042ohE8s2bBZbH8nM/5nBuf//mfv72NBVywz4W3g1hweQuKxZ64WMx54E2Kf8GiTmzERQpoM4s4GxKL9Du8wzvcOuPnf2zwzIdNEXv8AJA3rthceGhNO6jP1RF8Nh+eIfHfFN/rvd5rI2wbJ9DvV3/1V28P/tkUiBsCbiaA22G8FMDba9hHlwf6bEJcofAKM7bdpC4J7NIfXJGBnBsg885Xy4nkm0/q+MkTKe/4o3yWTTt+InVSbn4mAymXEpQdYwFvd0Opxizv8ZNEJ4McTALMgU3yAAGdXEp55me8JPwYg0jeCoksZ5pUMfIDX3Q6xgiqrFLqZH6V0hdInjoJ5coqqVPzx5J19WX5WALaYMH1+QULtYt7PZjOBZsBD5H5H/N8qZhvgpHn1/z8Z0pfBHBh55YUt8IAD8NZsHn+wqdHAIs6t68gXo3mNxm8bfXggw9uz07YOHjTittPXEVwJk+buMXGVQkP67nd9ZSnPGWzh1/6BLiZ8oCd50rcIiMGNiLALSw2PvqPPmPj4M0yrhT4SCebM5sK7eIlATZunsFcGjwzYrzcrEZj5pibAvK0d3XeVkpZ5pNA2hep05GoPNJRvMprviPRySCReUD/Ll2hdI0G8uSTzgYAWbWVfALKsnIepsmzLqTcvKjyRPLTnvbTjxMQ/1nPtKO0Cakrkld1pYwhdcVITpq8jjpZosokYVl/OWamGYskX5kwr575hDKo1k8or/NFkHcslUmWSdUVPo/grSRedQWXOqNmMeV1YX4T4htkbCSczbPY8xyFV3/R4UeKPvdg8+DqgGcRvA7MMx7+XwhXHSzOxM9VB89m+G7ZO77jO263znhQ/aQnPWl76P/Upz51+7gib39xy4m2szlwVcFrv3zKhMWfqxX+BQCbFP3n7Sk2J6/ceBDva6+CucGVFODWIVdhf/3Xf70t8lz58CzoG77hGzb5Ja74cszAz//8z2/PnngBgCs9nyFVqnMBwJPkpdx88jqkvsh856OmElA35aZQtZdIXubR95gB2qo2RnyxvKG4sK5gVTf1yM/KoOMdi1lHJFWc41efI98jVJ8ZW+bvNezFdW7cK/VH/QMvbxMlatkDB+Lsm0WQ335wps7vKIAH4KnIucHDf8CbWTz8Z4HmLJ9nKSzCPO8gRngs2rxazDMJzv55eYBbWtxaYmFg00GX20pc+XAlwa/H2UhYYHkO9G7v9m7bc6G3eZu32Z6ruGnySi8/pOQ3KWxO/NtiNjbe3gLecgP0C89QeP7CRzKJSzuCjYJ+4uqFz6LwjIgfW3IVxvMhYqT92D0XtJkYvNphnHgZAGDfMXZcZ1DX9LqA/VN97LXhWIziqH5GMaO39D/lczAS1EHG2x3cq2Xy6DxT80xEyHICnhOy+jK+3HnhqWeeg4n6vHHCGSSX8fDUA+pBxiM/4a6NfDTZjQkYQ7VDmQnOvVwO5hoPNiQw6yPqws+DFlvqkmrfdnVwzFhQPOAT2NEmtjLeBL6oax/VWNJOlQvOHHkozCuynLHyAzj6i0UxdfEziwVd20E86mqDVNLGqI/gcwwwXvYPbSXPLSFeof3pn/7pLXYW43OQ8dBu+gk/I6hPPMC56Vjk8ZNzwbYDyuhC2nNOUUebM2TcgCuRWdydXTZneDmfzwV9yEbHiwncUvuxH/uxLU7bC9knGb9QBzlUkf1ofVJIPvVpE2/c0T7/B0/qAOyj4w8b+S0P/Uhd/UDWzX5SBpAL/FU/AF+s5fir61Dqy5cq1CPNeuqOV52bqIYtJ7/yOko9B7MSwVWZZdO0kyTftOZXCT/pC8iTP9LfIzDii5Et+CJ1gPKVOESWU75C+hLyqp4YySVhPtNjyDr6spykbC8eU8HBzIHLcwWuFridwmbCL9nPAX44keJA5iTIxQSeLwSw8JJ6EAMWDtoAj7hcmDNu5diBTxly0UCfTSAXKuwAbErYqNAPcSKfbSYAu+jhW5ucNKTvSwA/tPfpT3/6jXd5l3fZ4vSKBdgH6CGzX0whgNzyCmV9CMgHmUqjsumIlKffjkcqKRcpg9DXjqg66inrcLuFARj8algSNV/lFakzo0SWq07mQeWnnNSDpJMn1BNVv7MjunzVyzyo/JSbgmPlScL8SNaVk9dB+UhXfpJ80clB5VcCs7maJEZ8UMeWxZNNhOcV/PiQV2vzO02ngkXVBUCwoLFIs8lA3YJtXKODXHmtW311QEea6dZNbAb0XKhX6xwDNg7ayrMirgr4FwWAKxb86TPTygOZr5jJOlS7SZUnOlknF3WNErO6nSyR8qpnvvO7tKGMMGrIqcDepW2O4KTW37G+1cVORR2A+3h4gIWdq4X3e7/3277p5W8oWFS5grgXMZqfDydwxcOVIhsHz3P4dL2fXBHZ5tmxvrcOzGTXierXNQZyLcs2ngps2AdeSep7xf7ShnKJQO812FGXGoT7ePUAt2l4dsIPCHl7iIfRvHbLZsMBeB93FvY5V4q8Cce48LCfKxVufQEXxIqOz7G8dzyP7IlX5/XgrCuU+7iPV0dwJsymwjeyeL2W12r5bQdnitz+ur+xXD94FsNVIX0O8VVh3oz7uZ/7ue0KMh9uC/I+wzGtBD+f80Apr+WOqK+/VzcMNxQ7rkuTROXbuTVfdVMn+Uki7Ziv9UDmq7xS2pMHzCcPJE//Mx9ZB1Tdri7Isjp7vlKmbiVkwrx1klK/UldHVH7SSC7M63fkP/lVh/KoHrQnh4TlrGPKFQkP5/kgIq/t8hn5H//xH7/1PMQfQ97H9YBFmzHgUzFcJfJpGn5vw4c7uf3Fs5o6bnUMZzTSpQxmOpA6NY+u+vJB2q266qs7kpMKy8m3HrCeOqDWMU1Sd4TbNpRU9uEZB4gHCTwvCSHKABmXmPDIK4Ooy8BD6qeN1EfHcpLQFr7I6yNtqGeetNqDlzaob4ocIINsl9CGddTL+kkAG8gBqbK0YR9ZRx31SFOnI/Twpb8RAVL8gmpD2ahd1rEPSYU2IGVQ1kvKuuZto361lWXrJ8/+SXnq7bVLPUDeuFOXVFt8aoSDjB8X8noqP/7jtyD8Hwxevwc8c/GM9T7OA1ckvrHFOPOjT36YyS/7eWZCn9PX3P5yjBw7iDrcsoQYW+dBkjrI04aUc1ob1Q58QEoZYCvnD3lAXfL4BdRRT3/I5APSqoNcv0C5KTBWQD346gBSfUHoSOpqC1gvcet3KBwYvBlBZ/o/ERgYBgg55bo74QjwjSB0KaOjPnBXg2gMOvAqkDNh8F9h4MRiPNkRQJ/Y55MLTC6ovoFjLMRAHalCHYDNPZ3OFnl0uPzmrInf9hg/QAawoR0njjIBDzvo0UedXF/0jWNTgQ669BH/DwPoGyDvbEMJdKinPccj69ou+E72apsFgh+7fdEXfdE2/vwjKBZk+0Gb2W8g8yB1mGfWE+QlgFyqgEf/MKexhd1EtUMb+M0T48Iv2DlT5l4+X+P1AGZc7IMRtCmMLfldvA9X0O+uKbk28BsT3uB64QtfuN3m4lf4fEqGT7twjNW5T5/B83YkZeZr7W/KEDrOv5zjVT+R44Ie/jjmiRnCTj32uXXK/9jhP4Zyy47jwF/0C/SIm3o5r43FvOU8ziD92Y/4cx0Cyl0zmKfayliREwcxs27U/lP3th82clBwEPHLXP4ngj+0UQ4yxSgN4Ls8/kiu03NQ6BAbphxgHx0nTfq7FeghpUEOCr5TBiGjwXyjCF98CoIzRHX0C1nWRqL6FpbTFnHLg4gLaIM+4fYHPyjiHybRxrRb7RA3NiwL6hyzoWCn06E+ZyH8cI8JTHzpy3isSx0JdPLMC/KMhzL8wMNX2mJ8+C4Vn+8gLj7FwQkKefTsT9qVSF8AW9i27cjh6R8gp2xdbVcwR3nQzg976Wvakbra1TYy28rBygcP+XfCvFb8KZ/yKdv3uGg/cPyNMaE9oTz5tc7DFRzrjDn9ZN/xL4y5CuS/TvLpmC/4gi/Y1ixvcbGhuNgB5zVlKDcUqfY5csj5irzq7I0H9Zk33I4jJUZOOohBfWzQNhZ4vo7ACwV+Ioa2AP27BqMP0j95CdhXyQP4JgZ+9M0/V2Me2k8J1w9lxkubsEdsEPK0r167oTBwHEwMDgeKDRyBKxo+2aDRChvXNSDBgNtpI9CwPTsMEjFzcHfoOqICHXwhn/lDB6A3skUf8t0j/6lQB2Ma2QDGNBuPlf4BLJj8S+JZ+8Esnr22I4eQjWJ2zPkhGuPF/yZfmQcd9DWLeRX0DxvuSl8mOCA9qHlQzz+i4oyab2jx3Svt0b/Mi26RELYjZZdo270MxpA+ZCEWXIlwovE7v/M720creW7FySL9x8LISST9wjHGmM1AX+714anzr4JvomHHrzB34OSJzZF/8cxXkbv4Vua1c2SmQ1+xybFWj4AvMJv39A9+unl5Wy2ZHPwoQziALCcso28gFWljD3s62vJssEIeclH1KM9IkN+Lu+pnOcEAzDYB6hHzXvv34gErOmIU7yqM+xw7Gav5Ln76UF8dUQc5eiOk/h7SVtXXn5R28wyRjzPyPanv/d7vvfHbv/3b25d1uaXHByY51nIz8dfw5/bnQwm0kz6m3baZhYzNhMWYb4pxhcfXCdg0+Bgmn1PxzgPHFLrWxdZs/B1TyHGrUIe0gzGnjWoHPpjNIUE7kFnHNAGv4wPrznTEnhxgL/ugi9t5221e7TbEoFKpq9Bh1Fn3AmaxIRvJlc3kYqQj6Mc9HbCicyms+prpIZNOxUrdS/g5FvjyLG10HNR4cpzJc6uTLwSzkfBxRh4i88VdzrD5L4d8F4yrF3RZMFkcyXPbIxfZhzpoR7aFxYrbL7SRdcbbm4DXfvkKwcd8zMdsD9r5V8L8Uy4+UMkdE/qUKxjqZF8DyuY7IKvUYSTTH/NiVDeRbZ7pr9qbIX3NsKdnH0KjuLTR2bptQ1EBI6ncVVzFqh1k5/g5BbNBVDbTEXs6e31w6XbP7CkjnZ31ZDrDis4lgJ+VsQB3Ku4uHnnYZ4PwDJq+9oqFf6fLgsmzSh7e8yVevsDLrWbOWLnt7OZCPc4UWXwhFlPoEvFfJ4gboj1skLRBHpuIGyi3p3/2Z39222T5z478u2X+f8uznvWs7c05Nhe+rExf0Gbq5RlyHYOVfskxSlju7FbsyVcxiiWx0qYVrLTrmD7o0N7yqg04xTA2OpphTyftVFJ+LGxb7cBT2iy6uDIv5CfNsKeTsj1bI+jD+pmvSJ2EdZI6jPgjOEYjUqdDjUeqkJc2j0W1S5mzPTYCNgXsfuRHfuS2aHLvnK/N/vEf//Gt/z3CG28sstzvph4LqJsTt9TgsVDzOxjP9C+1yWBDWgWbhFcdEhsIcRIzb1vSBsoQn+fn4Tr/P5/Xfrkl+GZv9mbbG3L80zCep7H58uYWD9xzQ6pjkuXVuEc61dYMq/2j3kx/zy886RzgR1/05R6qP8rUm8Wx+/l6Jmre/6+NZ4LwKXQehjFpdGZqABB2IGUCm+hxYOTlL8g8kwqCh9+qhw3s80YVdnh7yIktjAV0fkyxRdspY0tYt6YAXSjtQxwQvArLQ3nswhPowoNAvl2SgEc86HGQdnJ46Hjgyk+gg4wXKXzLK22Rr7az/4A2GS/ioc/z2YGp7UK/ygULI2edvGLLw0s+Xw/PPqcuNmiXi1IH7Hq/Wl8J5Okbu7VvADr44EEwn/n2bFhop9rKFCAnbuZfndMjsBDjl39sxb8a/tM//dPteQFvB3LVwhk8Cy8vU/CKfwfnLL6BKZCfsdBWyrYn9QF8dZDlWgBfWYfnPve5W/0XvehFN375l395exsUcNuK345wO+ut3/qttx8jCvTtO+xC9CE8fKcv88bIukXf0N/whHrY0e4obnQgxr1bqyh3ttOW/dR9vj5BmTfTOKHgR7H8CxDnuXJ8cZwRb20/MB7t1/ma4LjiLS8eymc8pthx/ji2FfqD0CMFt2xd4v+h5OJEoMpM4ZE6SOok4DmQ1ZdlB5tynRDksUH92f9DIQ5jA8iqHYh6Ls60C16t29nKFFCfA4gNhYHMeKxL3PZJ+krAIx709jYU8vRzB3ToIw8+/KUt88mrE8v4RxuKdW0X+ilPMMn5gi//D4UNhS/FsrDWDYXNAj/dJAfYpW9Juz4kn2XktiOBDn7oH04A6KusBygTk9BO2lMHqnM69Wk/8wOfvKqf7WPO8OoxVyr8EpyrGF7P520m5hLPFLg9RJxsOPx3RjbnOw02QfqLDZC28t8niZ2rC8A8Y+MgZv4lMDEneM7k2DLu5BlLYR4+yL4EjhkbFicB2KjjAzGH4ONHXgW+IOYQet3YJ08bacsxZx0iLt+Wrf6w7/9D4fYeayjHFHUB+vjKY7raMB5jGh1n1OO4IiZOSjIeU+J2zZMSabOzv6UrGwpyjVsRUIdGMqGYNB58kjoESoocfeX6TYKnD3zCA/AcbPipZ96JkBsKk8jY0w+o9TNPvbqhANpCfmRLWKa+VygcUMaTdUmxC0aLIby6oejDPKmTz7Ho4Jh5EgDShgTgSQC+8eOLPscXhI5jDTJvu+w/gIwFlTk32lCAvojb+ZM2yJPSt6Q5XimXADxJHUAeHyxOLNTYsk6mErCu9hxL5OSdfxXI1U8b2macE5zNossrzfx4kuOUfudKgLei2JjpN8903+qt3mq7OqBMnisdj0FS+p7Fjjz+iJPbaPQjYKMjBmwc1ontuIKHDpsaY89rr9TDL/8gjf/giC/mOpsIZ+f1aorxBfZXbbt5YX9mP2Y96jhmeYUCqQfRLvs6ST1S5Ogx7vpLuQTgmZoHuQ5hg9eB4QHtkCJDxw2F2BkT6gp085gG+sp4IGBdeehKrENsYGworkPqIifVF/1pvZRDHZBv6cqGguNbFW6mgDo49grFiQmcBJTJkzqZyUP6Tb3Ol7oMSk4IdJVByPBxzIYCmTeFqEfnUrcubqadLcraAtS/xIZCHa8I6kIj0MvJlzYSjEHdUAR1JGC7sk3Ghy83FO0Qn3UzP2rX3oZCHezgi7idPxkPgEffkuorAV8CyKUEcnycsqE4z4gXHnL6B371I9BBv9Ox3fQvVylsGNwC64AfxpSF3/Glb9kM2AQoO595EM5GgD/mgCcoyNgo6H94tN92erXGFQC3kpnTrBFsGk984hO3fAfaQBzYoD6U/QQhI5ZsvzxSdEDtI/PoOGa5oQhtMz+wZVkS+nJOO9cg9Myra91qh/rMm1M2lHqFQjx5TKcfY8k+tK4y9UlHG4qgjr5oO6n1AXL9aF+ot/QMJQeyOkDWPUNxElC2wTlIwjwpjXRhAukTOYOCLcoQvuFbRob90TMUdCVgPfOZUs+2u7hZD4xsQalHfTcUDspRPPbXaOGlzsqGQh9Sv/ZzAtkxG4rxCuOjf2gP46qdrO+4g1G7WGxYKFeeoRA31AFbx24otV0AOXyOARdRYd3OFqj2iNvxRke9zg6y9CWwQZuZP7QrF27rCXS7NlU4t7HrnDIOYsAGNJpngqsiTtpmYEy6dgH8EQupfUReWCY+oI4wb33GbLShAHxhi3KS0Jdzmv5JOyDjsW61Y33WIeLiKlC/wpi95cUzFG5nMi72F/rUcx0inrQBjIcUWe1r+YATBfxxYkuM2BTpi7y+rAuwBZlHZlm9/dl3IjKYzFcoS3mn3/FOhXZI7ZAOXQwVo5hmdsWoboV6pKM6nUxeUqLjrWKlnjozP6f6H2Hm6xh0Nka86nNUTqrodCDBwc4iYD4PbACPExeuRtgk2JQhyvBZKODzvIKUzYIFhWcvbOQQt6xYjF1MqAexEPHGFbe6eC5Cmc2EKx0wmuvwiWsGdLJ+13Yhb+TvGHT2T8EszmNwTjyzuit2j/G9p7u0oWBkRCnP/IhGOoCJMpKBTsZBkeXUy7yU+qCrDzoeSL6yyoO0m/LMW67+5Xc8UWXKO35H6ooqr1R1xIy30q8p6/Jd+ZI0sp38itQbkaj5SvJnSHnWkQR5NgI2BIgNA+KOA1eAXN3I5yxWfeACTcq4Qci0AbHx8NIA9njwr02QcRyDrNcdB0mJvWMm85ZB8lao1rG8Fyukbs0nVf5eeYVmSJ2uTvJGlHrdxn5tVygdDKjDTNbhWH1wTJ0VXXSkDh1/xe4IM1+Xxqqvc9tzDC7R9tV2rWDVzqX8iUucoVdch81L4NJ9N4O+VnyeO/bn1j8Xs7jO8bm0oVxqss3sXNeE7jrnkr6wdaq9YwfuGF9OjI5Sfh04xq7tWWnXqs5MT/lKjNfVPyD7P/MjVH2xV28F2l6hRC13OEZHH0nJXxn/FaTdRM6LKgPwOv51wvm61/aVuI6NvepT5upshmu/QsmgZg1a7bhjkfbIe/8570OD6pdy5VUo39Ob4Zi6KzGB1Ykz0qv8VXuJY/sk27ZXN+VdPXmWE51spncKqMf84pkHNLJDv9q3x/Rx2jOPP2zMYkaWlEj/K7Ggs7e46KPzB+Tpr9NBpjzzI+zJgfFUf+mnk18HRrEklNW2ZV1phtSpusrwoZ+R7gzLG4oOK4FcnOXD6yh11MtyR0Ib8MxnffLAAxnAs5y6yUtCZr3Ks26SctPkQ1kPpF6VS5VXbY9In50sSfsj/9rRVrWZdZQJeearjryObz3SHJ8cp+QlH9IGJPSlbJRPe4DUvHqV1EmSb4rN1M+8ZFlfqQclH5BmvFUmL2nEl1JuPnlJ+hG+XSchy740Vnmk1CEVWT8JfaiTJWlDn+atC8gbQyX1UxdSX3nWzzpJ8ECXz1Q+ZF909gBp1p+1oyOgjnlsVDsAfctde2d45DOe8YyvckfyQRvvqPvgjYEXGEwH5KnL2x48tAPwUq8GpEy+ZeyQ8jAw60CU0XMSyk8/6lGf/7aHPeLnjRb01IFPWaQsCV+8GYOcOvDSX9oQ8PLg0hZv2/CWDK98ahM+tgAp9eABZdZXT5/Eo76kTeyTgpRL2KL+v/zLv2xjZtv0RyrVetkmyvgiDgE/20HeetWPeXR4WMw3nHhYzLeseIuo9rn9BrSpHW0p58xZuf6UJbJe2gG8pstDaKAN7ahnXXmZCsqmWZe0EqgyyrSHOQ14KF7nNET/GA+ARz7tKcceJC91JcqQdbM+xJzmjS/eDss5XUn7lSfJm9VPXfScG841ZCDnNLJq0/mYPAgeuunHNG1UWZVLyF2HkDOPah+hw3ynD/kNCt924y07xxbQDuuYUi/zaQ8+dchLypExZryp161D6qhfeZlCFfgFu1coKOalLR01IjqIFP3KMy+xcalLGT/6Uj/rdPxMJWyYr3Uo2xnkoc4npF/L6lomjy1SQd5YtVltZJk8qPxK2tTXTH9mp5K6xpr8jtBTl3KmWZcUJL8jbQLaZr7TTao+JWykHWNVBtSB4BuDepI+aoqu+qM4IGPQT1LarHnLSemPfOpQ9s2u9KWu5eTVPoBSt4tBPnoQeevju6tT48m8b50ZT9VJXfmuGR53M33IWKuOeuaxm3oAOXxtWSfz6neUbcp+kOADZABerQNIJWXGOosBWep28sxbrr7UkexTY6t4pWQCHWioEjDf6SVPW1LyE/KVZXmPsn7mk/Rnvso7fnZmEnozGynTZ0cjG0kzX0mjWCXjGNlL3oq/Snv+k7AvKJueQtVWRwA9qdNJvvmR7ojQF3t+SJOqHsh81QGZ0v+dHXiikx9DaauTQ6vzAFsz3RorulVfHdKqfwxl/S4mZCvtyn7JfFLC8kin8o+l7BOQZfvTdilLnaQZ5tKb8IygI2F+xAepU9MZVVTeSA8kX73Un+UzBVWvK1e+qXmQZQbIcvJrucNMLl+dpOSbN00+WJVVOPE6WdrJtNMVykc6KYe6fpWqfiLLnW5Sh+R3+pWXpNzUPOjyezpJe7wZso66NS9qPssJZZWUdamourN85dXU/Ow4zDSRsqQOVVdYrvJaNp9pInmpZ7ssi8wDylUveaDyu1tfSxtKGu3QyXWa+dRLmWnVqUh5p19lwnKSMJ880clqXqqY8Y+FddJm2qnyTmcPVTftzNDVE+Y7Hqh1BfxKiZm8litmdSpvD1lPkp+p6MqVB5K3kgeUkyr2eFm30irUrXWznHyRZfOztPKOwazuyF7yyUuWK1KW8lF+hrRV0yR5IvOJqiMJ88mvOjMsbSiXQrejJZDv6ZyD67Z/Hw8dPNzmQbbnXmnbahz3j8l7E6eMyx3dUB6uGHX8/QPl4Y17bXy9zXguXh3mbdfGY9p9/9jucUc3lL3LpmMurU7BMfaPiWOke51tuY8eqwf6JcbmXhhfY6Dd5E3PwaXatWrnUv6OQedzL46U342Y7zROaePShsIkvcSOfK6NS9RftXGM7gjH1L+EP3AJG8di5vNS7ToGK/5Sp9M/1kaHFRuXwl57jsGs/jG2V3XRG+l2/FXdzu6oLpjJQMr3dO9V1DZIInnJX8XuhpLG8wczkD8eIvVHQ/xgBqJsWmUQP+DJ8ozU1Y62OwL6BOqTSmmn5rVDnrbxY570n6RuyjKPXepbBp0d9OzjKh/FmySfuvhLWS1DdczMJ2ErYyFfdbENso3WSV/I01bqagOgD6oOKXZGsUrpT/+Vanzk0zYp9ZO0n/WklCnHB6lxVB31zIPqJwlknrqSfOrTDohy199QrZf90ckty8v+JYVGx3K11+Uto4+dStpJnapL2bZrE559Yn346lg2n+VKM92uHjxAShzmOx2uAiB4AL4Ej/rJG5W1aX9A5uE7VhDIMqQ98tmP8iV46Ixw9i0vnFdUnp0GDBiQ1vyoXBtR5SDLyV+5dLMupC/ey7ausoqsB9nWFZ/qkHL/O++Bp6+0aZ0K/Rtz7a8VGyN0+vgyZijjBZSpl/Kqs4esY7vkJQFS24a/LuYO1sl6xpwyqaKT1/rCWEXWS70RrN/V0ydkv6S/6rtDxpC2hTzbRgq0XX0m0la1C6zbEcg6VQYyLmE+de0jZMprPSGvyrI8qzdD1cm2iORVebYJYA+SryzzyB0z+8GySD71tLuKpX8BzC8mZ4b5H9f8978aXDYGzGygx6cB+N8LVUcbaa/aIs8iSgz8721+hZv/3S6RMYEuJnSwh6y2S2Q8YKRHu/iUB/9NrkPa6GIRnh3wC94RMqZRPIB/FUs8nU7aIJ5RTLlp7dkZxcJnVvjMD/+xkU9PPOtZz9rmHOMntAFGsaBjPGw+HYxHG7O+pn/4j40zGNesfzir2zt+nGed3Hi7/9hYsRcPcs5Y6Z9ZH4mRHYAdYuK/DBJ/HV/sdLaqTfoHPfqow0o86OB/tA6JtAU6e+gQ094xBmbxIKN/6OfZf7VEx38BzP/+5xivY0Nf06ZuzPCV7Rq1HdAu/uXwaB0CHkO2rbZRX+ilX/XG3g+wQlY8FjpasYFubQBI/jmxdOj8CXyt+pvZAXvyFV8rsTjQe/4qtG0clTrA5wCo8qwnJSxX/gi0pfNT0fnqsKoz01O+qme+Qt4x4zXy59iP5GB1nq7orcRsLBnTLL4KfKivz+rXcl3kOuzpKBvppHxm5xjU9lTsycFKPMfopF7m92KZbigJjNYJm45GUP8Y3RmOsbeCkR34s8mXMZgf6YI92V59saeTMa/YA6nfkbIKeHt9VOXmSaU9rOqBkZ42lGc+sScHylJedVNHGvFnfdhhpJs2O52ZTCib6YA9OdBXpU42wqrOCqqtWi/lVQbkVT35wnLln4oVO6s6e7Gpk5ToeInbNpSZojINznRHWNlpV3EpWyM78mftVOfcWKh/ap9eAl38K226RLyrfbfia0VHf5do38xG+rmEr8SKvRnOrX8KzvFJ3dXxP6cf92JM+TntORZ30lf24Sl+b9tQ7mTgDxVcd58cexBcBzr/dzumipVxOGasHmrtu5ePzVFs93LM4F6bA/cCcsxO6Z/2CoWUy3BBWV4S97VTbh6ZvCT46iQv044EOqmfZXmpB7I+UDfrVB7o+JXUmekCU+CzgCTqS+pWOUidjlI20tMWecevotaBkj9DlddFJcvkU9/YfD3RFPL1R/mVRnxJO6Ny8olJOTGZh4yjEnxlqSO/kvIk/Oov/QLqmM868KhXeVDy5Gfe8khfUi4Zg/lRe0Z8ifodPyl19J9yKccs+xEZeeWUa9oRMqmT7xGwvnliMDbS5MMD8kXqKzMPX7IsLCffsnlJXmdDHmSsM9z2lhdvI/APav7mb/7mxqMf/egbr//6r39TbY4XvehF0zcHVkHQs7cUVsE//OKNiNkbMXcS9C1vc7zBG7zBTc7p2OsjfNVFvMPsLa87CSYpY/X0pz99m3tf93Vft9yG68SLX/zi7Q2mewWveMUrtn7xH9ndC+BtykvM6UuBN5je6I3e6Gbp7oN/sMXc9h+1deAfXn34h3/4jZ/6qZ/a1tzrBBvd3lteK2AeuvGQBx6vtzYUFB772Mdur+2+4AUv2BYayhzwyKE80DVE+vKXv3zrDDpPRwBZEnLIcoJ6vC7avTZsmQ5Bz3iIETuW9fHSl750e+2UmHhl1/qg851yMJJ3etk/UgWvxkK8Fpv9A/Qln9cVsVHjhMcZH3r0URcjPHToF17DrPUpk2KDTdcThhrTCNQF2Kn+gXKBXQi+r2FmXVLkb/iGb7htKOh8zdd8zbZQMY7V3jGodbuY0el8wKN/GC9eac7+QWbcto3+rraYF86NKs/27wEfzGX+4yf2iInjIG1JyUt/QB3zwLgAqTpQ1k87gDLzjMXQOWRbhT5EtZW+LI+QdSqQ2UectLF4O/drvVofuTqkyFM3ZSlXp5MDUmJgXYTPOkT/5DwCHMcs8J/0SZ9040d/9Ee3V57/8z//89Yr1NpkXWSsPCb0A8hDzkXrpg6gPjrOa/WF9plbjqUESOETsxtk+rilV69Q+B3K85///C3l33uyIOMMdEESBJ3Cb1ZoDIGmHnl5yNGvOviH54aSyAZlY/GdMoANJhb/wpjFiZg4EDN+SVg3kXJQ/Qj08AmQSQnazNklZyssnLkYAOPRTm4oCXjHbCj0cwd0kHl2ia6+BWXtY9f+M25lGYOyBHYgZN2GAphfnFV+6Zd+6Y1nP/vZN978zd98GzP6LfWORY2n+kXexQzko599UZF6I3QyfUvHAP20aX7kJ4FO6nXjmnL5XYy1TucrUW1Zb1T/HGgvfQHnYpWnngSqjnx1qjyR+kD9hGsDx8aP/MiPbBsKJ54eu9rgmCaPPqh2JdAdZ9Zl7eTfJHOh4CYF0EOHsr7IkwJSdKiPfa6SWYPoT3FLt7vlxYbCj2zYyXQ2wwtf+MIbT3jCE26WTgcBjxbCY8AuTIecewmZm9c5oOO5Lbj3Q7kVrIzHCrjldYl4aNsl+oc5xC1KNlzs0U5AW5HDZ26MfDnhST2oEvC1CezD2pfocPD9/d///XbLC1tZTzsrtogn465yoC3k6FXbtN0zWXQ4CWAxSFvw9QUf6vzZj8hcnBLVt/WrHeqz8HFF8PjHP/6W3wR24ANkI1vqdPEAY4LQsX7Gqewf/uEftpOTOmbWwRd9QDn7J2OiHyHsOR4Jyp3ttOGYveQlL9n8cCLpQp3ADrqsuZy8j4BerXsKaBcxzW55rfjCjnr2hXXaX8qzoXApS5kzSDr2VoWbqYaQcYuMxYlBkA/IJyGngy0n6Ni9W14ONuWcEIA8MiYTnYYv2lAne/WrLFOIek4CrnqUZ33yxA2sp54gTi5jWRDYdLELD2gLG9ohfmx0cRIPepe4QmEBZ2J58Gkv86K2yzzjRTzYww7I+rYL/ZQniNXF6XGPe9xN7t0Hc4iTqnNBe7PvTgW3T+jnc5+hXCoe7HCVy2J5r+BSY3YprDxDAfSlx0mCMvw8pqsOdbO+x3MFMo4z1qE3e7M3e5V1kTz1XPPw18kzX3lgeGrpokc6I0Eeo1VOJ2QZrOglod/V6QiQ3mpgke+R9aq/LoaOVwmYgirvqLOZvD35HgH1M79K6Nc6HS9pJNe/6A4GeG5eI6DDwQB1QE59ifLIF8AfB12HVVuc4Ggn9ZLgIyffATnADgQ6XXi0HVueQVY9bGHj3D4C2DCeEYjFeKpNSTuVL1GH+tgZAT1g+0fAjjqj9jlmyDsYk9TZsO5KH1m3HhcQx8VsXewIeKwlAeWAPLaltJHUyWeYSy+A2tl3Gum/G/xTcawdB/U+Tscl59Ilbe3hoTb2K31zJ/tvFefGtFc/5dfRR+fGfy/gtg3FBnEA1MblTgdG+Qpl2Jt12J4c7Ol0cdQ43WH3fGW9The5dAw6fXl77VuRe9Z0Ko5pk7oj/T252JMDdVb6oJPXOGpZyBvJQcrMd7rJ6/QlcM6YiWqzQv5ILvbkYOZHqKNel18h9RPdOFedDmmzIvmdzp68YkUn27Gnvyf3ymgFI1vwZyTId3O2vUJBeSU4HfhspMIg1OsCOAbZ8ZXkm3KZZr4jUcui+hoBvdTtAJ8+Mi+0La1grw/3bCnzMnYE2zWzR33sVLl1IHRG9RN7OsqNaQTjHmFPvoqVtqmjXqcLbxaTdUb1E+okVXQ8kXXMz/T3kO3OvkqbyveAjv2UfZX5PTv6qpToeImUm6/6Wa6yhG3ZW2vRGdmBvzcPBTq5LlYoH81XeZWfGK4oOVDAM98k7jcCHKS+cupI8oRleeY7P5J6aVeSD+RlXvJ+rvqWU5466c9y8jMPdYDvIFQ7nb+OurojWrEF8AtSRt2sn3l14VE3ebZBqm1KuTwIIIPMVxvJk9KGJB+YCuUi8x2QG5P2hbakKhepk3oj6upkv2Q+5RI2Kg/qdOUlpTyp6hkDBODVtqib+dQT8kZQnvF0BMxXn/DyuYk8KfWSOjsjqnoZD4CPPUnd5HWQX+XW0R/pHlKns1fle9RtLI98xjOe8VUKHvWoR21vNPHaLT/o4o0vO0QjOJWUoe+bDPCrHgTc+eyAKofPmXzKM3jtyrMsj3rssPwOBX3i58FY6oGsAzq5MkBeUq/qgNQhFuW8KcdvK3wttuqkLeKXlwRM6cfaRwI+6GxIgDHjjSH6KWXaSpvwM1YJnnEgSzn5GqNyU2Md9Q/I+sC5CrQpqUf/KK/1E7Yp9eBRn/f1R/2T5eRVGbZ8SFz9pA58/OCXPLyUMyd4ywsQU/bRjLCZesajv9RNv9apKXIxGrOktDeySV1S46FO2gKUBXoV1mfMWIeybdQ1Dkkf1Y8ySCiH1Nde2khbyBkz3vIC3ZhZV1hOuaBsqsy8ZfW7OQQBXhDwR+ijMXM8oE6urzoOloe3vIT5TCECp9MStV7WqVCeemIkoyFgT59NidjIk0LJg+wUiLZUuVAur8orRnpdPnmg41cd+wBUGehsJgHbQ5vJC+UV8NUzT18B46GsXe2kvZQDUngQcRhL8rQlZQwddZjJajxJxkCKnpS6mU9Ku8Jy6lmuyD4hj07mMzZeE+UkkDIyfFuXctaVL6Ud65GvpD6+0EseZdubVHkg8yLLyuVVmb6qbXnGb2zk4RM3r9pTRl8d09quUSplucrk4ceyMZLalgp4SfIS2kidiuSbzzpS8rGb8YHUMZVE5sVtG0qnANKYZBAGkmV58s0nL/VSp/O3Z6PWp8ygZl49J0CWq1zSntAHpH7lpazSTAeeSHnWSaoy067+HqXuqE7yUz/LHY3k1s14AanjQeoB6ngos34lYD71zKdcvmRZHXlJyevkErIkeVXHdqXPSqDLS1mv2ra/ZpR9WmWV0M0YMq/vjEF+yuWPZJUHOHHJOknwQMpJs+3yTCut9FNnd0QZD0i/GYuySikHlW8+y8ATZfkpl0DloUe7srxno8MjUiEv9Tqg1zlSlmnqJSnr+IC8dUd65lOufoV1hPpJwrJ25dU4qtw0qepkHlm12ZF6nX6Vadu0ypNSJ/NQ2hDk98i6kHVqqo89X4K89bI8Q5XXOrP6Iz1trJLIdpqvlPqg2ujyNQWdTMqy+UyB8o46JF+92q6OX+Xmk1dReeqN9BNdXTGSkXZ6nTz1RCezTrZffr3roAxkHiivNJNBykWVgU5uvDXmEbYjFQWeN3j2UaHxzlCVjfIVykYkRmV5tQwYIAcp7/sBUzsoZYm0mx1aqeomXyQvZfKTROYrOpk87YzqV72K5JufUaKTJ1V0vBEcA1FtJ+3JodF4QiDnRaezQiLziRH/Uqjz2nI33xN7clB1urZ0/WC55muacnyZF6mTesa10oaKrNPV35NXpE7GCTJ257Vy+ZlfJdHxZ3JlNZ+osq4PHsG3gfhECd/t4l7sHtKoqLwsm09eotPLcqKTp07m90BnzCbFiq0aw6hO1clyRfKrbpcf8Wo5+RWdfKafmOnJT7n6ozozHHsQz7Cqdw6yrR3dq1iJrdOp7bLc8UWVZ15QvlPjtYpjdBO1fbSLk95zcOm+yRjNj8oVj/B+IDg1MOqN6h5jc2bnTqPG0XWgOisxj3RGA3Mfrx6YHZwPVWSbzjk2Xl1A++2zU+bCKXVmmI2HspHOYSd55SJ+6aA6rAQ6Q+qYX6knUtf2dvU72+SrLja6+hXVTuKY+qQz/RVbq9jzJS4dz6jOKbY6YOdO29rTOTaeTn9k41jbYKXOTAfZKX5FrXuqrWPrreirc2pMI4zsHRPTHs6JOevO7PzPTemCaiDfQ/YSjXySvHxuUUkdU14ESHmSdtRNXs1L6maM5NWtqTrJSxKVj27GXsuQyHLKIepVv52efEA+69R8JWWSNsyP9JJmtjp+8synbscDpDMSlqlr/dSpsvQBqh6pJL/mobRZeZJ1LHf1kl/Tqpf2zFsmlZdl8lLKklKWVHm1DrBsPvWEPFJ/F2E59eXVtOpIHR90ZXVreZQnTX7KRD3uzScPWDafuubVBZWvbi3v6WhLHiRPpLzLW+7k1u8uQh74v//3vzYdhFTgney//du/3X6wxLMVPnmcD0M1qD4y/rcGn0Ln9pmOkAHKBuIroJbRU1defUAlUk9ZTZHxvvmDDz64tWP0vyMoMymSX4EtdNC3DgQfzOomqMs/0eGHhHzinx9aWrf2FdCPMoEd9CDaRmwJ62ifvh6BMeD/ffAPfbBFPWHeNGMwjywJvqScvHJgHyoT8Pm8P59C57Pa2T+COrQbXVDlAB3H1Hf/0z/o7AL5lumfv/u7v9v+HwrPFasNynXMMgWpM4sb0GbAWFRggznNvyQmLj4X381p2s6P0uDb19WfMSGnjzJGdFfaRZ763ZhRvyLrAnS0QeoP6Vw7EpSTiJl6ygR56vMvGRwzbOqbFCJO+fpPOUCuL3jks08sZx2QeeSOGX74Hy31q8PaBqS2SyCX5/zQh3zjqnZGcfn5+ic+8Ym35kqC+vjChnZSB7k8+aTywe2tKDDQNFKdkWcwyZNSBlVHyjJ5IE87Mz19JFXdlFXSluh0OrJeliH6KPsp66xQraPd5MlPX1We1PVRkvZNU7+rC88DLGOTX+tQTtvKs66UujNa0UNe52zKEylL3VqnUuqOSJ1s+zmU/vZ8Q+p0uhXy0V213emNfHXjQVrR1T+VTrFlfGA2h6DZfJZS1ulp37TqyFMHwPc4qPpVppw066qT9STbtUfaBPaVmF6h+A+24OFsq1CMUfYKBWfJ1xl2ybP4VKhDip5+QPoC2gHIUk4eOTH88z//8xYz/4ESXrWDDXZifHUxAXTYxbGXMQnjJYW6zhb0IVconD2hqw55U/PaSD2BHXzyWZzOD/AMo4sZaLeOWYXxjPwAYgHoVD3rZ7tG4OyNs13i6doNHMdZPPQPZ+qcodL+1MWu4wWQjfoI8N//uILbm7NAP9WfZNtHsXsGOrpCoT6fFSFlTmOz2oLnWaft6nS840AfdXJIKK96IMesg/EA6uOTVFv68cy9xqOc1Hk2OlYFY+Z/2eyAnbzrAGrbkDMe+JqtDZB1qw3HjH8ax1h0Y0YZX+hCucYmkNFHyLJd1BeZt10dsMMVCndKajyCtsPv5pB+SCWh3th7QOc1AMtpGHRBjJB26TyQvAp09mzuQfsjHwI/M1/W37MD9mKuvjqbxrzibwUjO8aS1AG+tyxE6pu3fAnMbM36J/mkswNvD539CnUuMV+PxUofXRIjf/TxyJ+864gHnNPns5iwe6nxXOkDZVWeZeJZmWfI2cSuE8tH1SzYXFDOwTEDNdNNWZdnMPYWFHQhB86yNoSDLY0wk6XtPRszOehi7DDSsX7SCDMZQL460dXpdJXv6YBR/1R52kvIG8mBspE8saK3akes2qt6lJ1DtZ+OsQ/QWdEb+QPwPA47OdDPzJ/8mQ7o9FLf/CjeWi/zHVJnBH3N9Iwldcynj5mNik5XW1KHEV8sbyhdB18Se51aMYsnZTVveVYfKM+Ysj6wnLwOOUCZB5nfw4qvlOur+lzBiq8Op9RJnFt/D6e2q8OqnT29Y+O5VPyJtLlif1XnErZWbIBVfyOsxKHOip9L6KzaOPb4nmHmcy+ei1yhXALH2t/Tt+GkSaKWK6r9TledmlbAX9W9FDr7XRwjpO6dxMznbLxWcck2rdra0zs2pku2ocOK/Uu1fQXH+DrH317dlK/4OScWcUk/l9Dbs3HUhpIkT9T8iBKdvCNReVnu+MBbLknJ7+RSgvJMF1JvxMv8jDq95GV+xhuRurTHfKXkZ94ymPFqX4nkye/ylWaySjNdZaLKlXX5VRJZTvmxlPUzP+JleW/OnkJpP/OVZvPrGEobmU+q/CyLlKes40NVZnmlT9Wt+RF1OqLy96irU9HJkjei1OtO8I7aUGpHUoYwTBnsTSJl1Zb8jqrujNKOSLn8ypuR7ax87ZjuxamedEy7Lk1gNd7Uk2da+cdS1hMpl4gBEp3OMaS9TrZqf6Q3s11pRS/9iJEc0r9I2Qrt1RHmq1wCs/aBjr9HXb3Ksw+S19GKjqRu9dVR6mS+I+WrMVeyfs0nyU8oO9avyLzY3VDchdKY+c7giA/kp7zjVSBLqrwZUt7l00bljUiMeJl2yDozPaF+JTGSjfiCSSSqrNNPXk2FOlLyzM+wJ3fiA+3WOlnuZDP9PVTbleSLGb9D6oMu36WVB2pfVSSPfOomdaj8LHd1u/xMLlkW5HPejpA2sn4i+V2+poB8p5voeGBPt+Yly5mCTtbxTFMOqk5F6ptPXoejHsq7uZi3nBjxEynf0wXalMRK3URXd8STRC2LyrPc6Yq0NdMT6o/qVZlIfifPN92qrEPqmK/1KCclz/w5yPrandnsZJU3q1/R1U2SJ1byCfirdTobq3VBlXfl5M1Q9WrdUV5UudRhxE/s2QAp6/I1BeQ73UTHA3u6Nd/JRvoVVZ9UElWnIvXNJ6/D7obiblQNQr5njg4pyNcAK6XMuis0s1kp9TKfNOJ3hG9+5EN+r95em2r9Y/pglbC5Yhes+u/0wKw84lVKnczPaC/uPbl+RnrKTyXs7sUgrehlPJkf0TH+T6GMIfPSdfoe2a5xpN4snmNiVbf66ih1Mt/RnnyVZm3poIx6x/SDyLzY3VBENQY63nWh853pCCN58vdsAHRW9O4ELhHHXnsu5ePSONem7b6O2Ea4E75GPu5kO68Lp7bhutp+nXar7Uv6uq64E0dvKFJF8qpuUiL5K7trJ6uUeplPSv7eziw6mXVNOz0wk3fU6SUv8zPeiIT5KpdGcYsZr/arSJ78zNd60jF9uKoDRrIuX2kUq+hkHY3sSGkLdH07Kx9LK/GsjseerWNp5K/ysyxSnjLzx/TrSh91+RF1Oh2vo7245SU6meXVMeuepSxvKPdxH/cKZg8FAZP9Pu7joYQ7MWfvhI92Q3EHkh6OYFGaLUy0O58N7S1iD0U8lNq0N16Jh+NY3Ums9N/9Pr4snN/26156r2J6heKGwiUQDbnXG3MM9gaoyu0LN5hLIH1Uf/JSdmlcoi3XGV/FarzdOMkz1k4HyOtkDweM2g2UVeow4lc4PyqJzL+6wr4c9Y/lWSqJWr5TmF6hAD7h7FtOo0kEn02nQr40A7r5NlWHtAWhKyk3lTezB0by9NNBv/pKnxXqguzL9GF99cwnT70Zqq1K1lenQp2kTg+kbgJ+tTND6nS+4NFv6Gi7YsVftTOD9jpUX5Q7e1VnBHU6yM94OlvKJcpVTxl9MIJ2Oh8J+xF0umlHv5ZTX36FerVuB/mktq3TTVvaq3opr1A/dUY2TJVVHcr2YdoyVT/lKUvdlAt1EslLXVFtzeqP0P4/FP5b3Wu/9mtv3/H3W/waMjUgKvN/CB73uMdtm8/oh2cQcupZTlDm/1nwn85q0Jb59DJEuTaYPL75vwoveclLtvSxj33sFn+nx/+FIB7aC894zEP5P1PkIU8dyHpQQh7/3e6lL33p9v818j+lWZd4IFDjEfD8VDx91Mnh1f9nUIEOMsfM8RDkJYAtSaQv4sGe/6sh69ou9OlD6yXwz1jwvyMe//jHb+Pl3BLU0Y5UkfEw9nV+GFe1U22hQ6z8R0v+0x62qJPQFgRGtqjHmNE/NZ6EczT/34XABuPN//hBh/+imnOaFNIXeX2pI4g357Q89bJNQH6145jx/1D43xo5p4W2sr9B6pEnHvTo54RxUF9bxOzcUA6UMaf5j5b0o36B/j1+Rv0DkLPGYAM9faNrvqLawQZjxv8eIS7GjHYmsJNt00ba0id1yTtmxgXSDqjrh/YYc9YhYnrSk560rbXVF/D46/oIP5SV6QOod2tDEXQmA0Ol13zN17z1/XwDTxAkhv71X/9124Aoa4xUssHI1YES6NCY1Q0FsmMt64N4HvWoR20xMYkS1be2TVehjWpLO/CNj3b9x3/8x/ZPy4xfHUDb7ds6IYC2csGsQA5or3UzHqGMf0v8Oq/zOls+gTx9g7SjrOp1vmwXfBfLahugQ/8QD/K0Qx457WJsbWcF9ehbUn0B/ZGaB128Av7LX/7yG6/7uq+7lT0GRGcrU2HcLAQjf9qiXehRRz76pMxl4mEe0UfGoz3rMT+wo6/qD1vo0I8uTvoxDwn51Q5lYvj3f//3bY3AXucLIi5kI1vO1xyzhDbwR8z4qqDN8Nng6Cv7Q78QPGxAOYeMU5g3Hvs6YRtq3QTx0D/8MzzWNNqZMVnX+to0BerVDUUd62LXvOsHPKANx4h/1Ma8rnL6BCJO8/oRbEiMN/9aHXv6BOq+yoaCoec///k33viN3/jGox/96JvcObii4f8Uj4ADg56BjhtNLMEAE3xnCx92Gin/cbKDDa4ddgpWbDFIL3rRi7b/vz2CAzzrI3QgJ9Y54EyFibE3JudipV2cLb3sZS/brghGcGzvFPj/5E94whNulk6HG8q5YLxe67VeaztJGoG+po/25qKLyznAF1dNrBPnYmVsOe6Je4YXvOAF29n3DCu+aNsljgv+Sytj74nJqbhUPIz9gw8+uN0JGMENt/ZR9psnLq59QFkbJZ1AJYxzaUueYCB4EI2E1DefwCF866kDX4JHihw9y0kiY6ixaANQtoEpJ7UOlHEp1yf5Kk8d0rQlwZfQA9jxYEAnbVFGLllHHfVIU0de+gGMlWM3IsC4csaLPetA8Fjgk+BByNWnjA3OWrQlX4IPYcPY9SMRvwRME7QPXWPvoA5+7Y/sH1LqGwf5lJGaBxww+oOXBL/a0p6ELeWdv6RZ25AD4sHOCNS3T6H0SQoZC3J9q0NcVS9lSUAbQJ5QT1va1VbaNN7ODwTfmEnhjcAxhs4I2Tb9VaCTbaugTm1PhXVJM4+u+qTw0lbqpJ59lHxgmfq2awbsuy6ST2AHnnayfaQS5dnmdkuCI5UlBijLSQYGyMOrgK8sdeRXWfKTBDqpn2V5wnqpY75S1s88/aGNqkOaNOIJ8/KlWoZAltVJuzUV5FO3krpMDsqOMSknBhJleVw1QuTRtaw99LgNV/Wsn7YqoQc4YIDlRLZnhNSxjfJIpdRJXpYBY+/4q5PU8ZJG8pGtEWayRLVNXhrxqqzyLFcSLmDJA+pl/VF+xks+qfkRHK8R0m5nJ8e7g3Oi1q9+LZNynAHrWI/UNmUbq15F8s3XdATk6uAroUzKWDJGUOsmxpIF6ODhCCePu3JFx7sXcGxcOXkEealC3p5O2hzpPVRw3bE712a4F/vvXovp3Hm2Vzftz8Yr7Zjfs30qrsvuDLO2txtKXWBeHdFNiocbbBfpjKpORfI6/Sqv/JTfKdwNnyPcS7FcGpdo23X1z7F2cyG9G2N2N+cJvlf8txvKyhnTpXCqH+tl/c5WlSfJ65Dymc5M3uEYXWGdPV+n2O6gn0vZ28OKn1N1Ko+yNMOeHKSt1K91LVc+qHXvFNKnMcir5RFSv0PaSJ1Of8/GSF5xjF7VHdXt+PL2ZJ1cVPlMF3T2Ot4Iq3rnYLihjJANyHSljvcTgbykRMdPXkciyynv+Jm3LGoZpK7yypNEllOeJMx3MpGy1OnyHaU886s0w55uJ6/5ipmsInXIdzSTQSnP/IxSz3yi6kjJ67CiA0Z6lpMH9vgi9VJmCjIvUl955kWWlXekvEPKq05X3iP1atpRJ0ukTiJ1u/yIxIg3Q+p3utXWiGbYvUJJQx3Psm9G+NYCD+zgkaqbbyPkWwTyuaSynnLIOm5I2rN+llOe+T1KW4CyvIw19VbKoMujp27ys63yVgloF8jroCzrr5IxkmfM8DeLe08uAfXUTX3GwbnSkXq86UUZXcrV5ywGCHT5jkTl49s3c2yHfmveOh0h175525b9QSqyvsgyqTFYPoayjnnjkCir0xFyX8QAe/0gjfRA5m0fZXxBK+0V5GlH9TfyX0kbNV8Je8bWyWfU1bHvq82MAeRYSamXdUd2ultgS7e8armDOknJN29wlkXlkVZKdHJoBVWv2kgiXnWMPTs4qev4U1HtJMkTVbaCOhlW66pX9ZPf2erkMz1Q81DOn4RyZY4bSFlHx6Dqd7ZqGVjOOdLlSZPgZX0gv1Kilis6/eRZrnoJZZ1e5dV81Rfyq7zWyf7JOkmJ7EvR6QllVWfluJGXdY03Y055xYzfkcgyafpM1HKFdmq8e2g3FGBlOhDq3trJMnJ1Mq8OIM/roymT4AHrdoSeqPWliuSNdLOc8uSDEU9UecpEyjp5trXqVhIjmekKqm7aScCr41F5yTcdybMMKq+TpZ0kdZAzz5I3ow4r/LQhJZ84ROpUUm5aSZhPmf068iVqGf2R3HzyOoz0pUSWydeYhXqZVkp+hyojz3wAuSiO6gNkxtjpyZvJEvCkxIzfIfmdTsbckVjRASMZ+W6DGW4ogoo4F2m4S3MASCWAzA1Fkp/5rEOacqA8Sb6pedCVRd04E5aNCV31JDDj1TywvNemER2rX2mlviA/GhNgn6iTfQXIJ7+SMJ/8TLsYRvnOl6j8jlIv85VmMmMQ5lNnxKukjqgyfNU2Ux7N7dTraE8n5aLy8Z/ljtQBlE2TxKic/C7fUcprv4mUdWVAfkQpz3yllNXxWiVBvrZHUm5eUKYOZNl0RiP8z4hOYEMT1WhX3nMOql6WO55IXlJF8lLHfPJAymtqpydmdTtUWVeWRpjJLoVRDPKrLHmkta+Uq5MY8Tr9yqtyod4enYNZ/bRf08TMRsWo/sjGObJjoH6t5+LWAb6U5YoR/xhoQzsje8mf6afsXKSdU+2eYqPTW6m3h0c0e8WrQOdJ8k1rvuPlLpgkz7PdSqKTQSkb5UfkpJdE8kZk3WpDElmu8syDyk95l5/xRpS6mZe6PqnlEap+hfyUd/nKM50R4J5vJ6skRrIufwqdWx9KG5mvvATlOo6URfKPpayf+aQRX6rodI4hbdjGKqtIWerKE1W2SsD+B1VeaUUnx9N8+kioJyUv85UE+fRX5SMcev9/Hrh0VyJgxD8WMzvICHjV1yl6NQ91D6yAvE4mtDHTqZjp7g3Ysb5OhX72fK1MsBWM/JzSVufQzOYpdjvM7KTsUv6ORfW7Gsex8Y704a/Yms2jVRviGN2KvboZy4qfVZ3Um9Xp9Kx/7LHY2RJ7x9AMh03old9ZYjeCQA2O8rEBn4JjfMx0M97UM5+dtaebvIT1pBlSp9NdsSFOGeRE+pnFUmmEc+UgdVJ3lB8h7YDaV4671GHVZ/U1woreqh0x0teX8qpHeXRGm9iTg9Qh39WRr2ykM8NefZDykQ5Qnjo1D436SHmX75A6FVVmvurnXB3pj+p26HS7PGnyxYgvHlG/KksqbAxn8WBmaAQDcLPKDhKW0VE+0zklDqEdfZxjK6GdY+ylLu2y/SOMrqbuFog336YS2RfnjldixQ79k686Voz4x+CY9lyy/XvQl9RB2agfRvWOxYod/KNH3HcK2UcdZjKwJx+hq+MYOF9nOjNQ75x5pn1jSFujmEZ44M///M9vSanM12JpIP8Lhf80xg9eOuPkMcwXY/3vduQzuExFZwud1Ks6e7YAeeLmn9m8+MUv3trhf0rrfMHTXsrtTH4YxAZLHlupD8wnzwNDe6QQn3jnPxLy/1AyHupmfZH1BXnGgjbyZd9aDzk87BOHr0lWoMM4/e3f/u32HxtpW7VFOXnYNhb5tQ7IeEHVUZ56xMk/1+J/a/if5LIf1WUs4Cur6GLOVLk62Kk6ADn9w//WeNM3fdPpf2wUe746PwnnBGNR4Xgzp4mL/2GTfQQyFpB+Mo+ebZFf7aQtddIGoA5zmjHj/yDlDxSFtqoN01VfgJiZ+7S/G3/s5JyuY6af9Ac6nxnXnhx0OjlmxMva2K1Dpsk3n3zr1pO3tJFQJ3WJg3nD/9Wp65CodkC1ZTry+Qj+Le0r6U23f5bzJm/yJtvgAJSsmIZGNJPTyaSiyiEW8U4myGunyjseqHzbAVbalJS6mT+VBHna1bVNAsR7bMyVat1ariSybEq8/iIXqJNku0bySp2eNio/KWEfkabc/pv1YcfveDMS5OmfKj+WtGUeVDlInvzKy77s5Ktk3ZqmHOyNG3L7CFT5JUlfGVP1mfGsUrVReV3eOQi6OdlBWUfEDalneixph/zIBsj4Ew/8+7+/IqJ/5f9DefDBF23/ZYwzfHY1Nhg3mQ7/9E//tG1G6OAQZzo2OMhnNQn10cMX/zJT1KCdDPAhbFlfG/D4V6Cc7Y3+46TxAH2YCnyxi2OPs40KbeATGENtH+CfTPFfJDnjNUZgDPC0Qx/WWATxoMdV2AjGPLtCwT7/kZCzuTqutsvYbFcXE77opzo/unZ1Z9+Cs13GjP8kh37tQ3j4ok2QbUjA4ywW2IepY5uMDVk3Vtoe9Q+otrRTY6JvIOd9lQNs5JVwhf1L/5A+5jGPafsIO+hiRwLpk3r0EXX32jWyIThWuULhf8p3MB6QdiDtA8YV0PbOD7rEbT/sjRnH2GiuYQNb6OZ4mOqLPsLGyBc6gHrVBsAPY07/kD72sY+9Kbkd2MoUpE2AL+YHdmi/sqyLjuXZcUZfc4XCvCZG2kc9fZL3TgD+aizIk6wD1NteG75F/3278ipWdTs9eZlKFclL/VOgD6nDzHatL+1hT2fFxh4cQwf7FKy2ZwXHtLnTlVfTDs7dkY4yaNY/o/oJ7YygbMXWCF3dU3mWO93EnnwFI9+gi2PkE/5I1uEY3YrVunsxKduzl3Jt1jpVp4P8kbxD1hnVn5XJd8fPYQuGKY1x7gIF9uq7Y95JnOrP/riT8TKIdZBHyPiuM8bVeGbI+LpY5a2045j+OReXsLGHWX8cC+vt1b8T7QL42ZvT6BwTzzmxW3cUT9pe8bMai/5GfuWf07aKri2k+Br5szyKE7zqNV2Bdb2ski6NY+1eMobraM/dxLF92WHVxkjnGP+zCXppnNsviTsZ953EdbRr1u/IRvI72cfH+LquPjplfp5SJ3HJtgw2FBwkHddY9ap+DRx53ag6Ep3uKRtdrZu8hwuOaY+6I6o6tSwP1HzV6XjXhepL6sY9Sf4eVnQeirhku7JPO+zJ7ySOieMSMWMj1y9Ry0L+iGbzeoYq39OfoWwor7qRbGnYXwkQpI515GV+ZXc8RncPGYPIfAK+JGoZpF7S3Qb9JZ2Dri0jm+jmxBarMcz0jmnHSv+fO0bn9usKOh97fkdy+afWPxa1fylXWsExuufEnnU7O3vyitVYsj+ynSP+CKv+wKwtljt+5VU0Vyi1wgOH/YQHMOMJUfMuKLn7doS805Gf8hGvyiqQV1gvKW3IE6l3LFVUnv5mUJ42s07H2xv4tJVtz/ZDlquO/CqTN6qThA4wBZmvSP1Kouarv0opl2agjqi2UgYqP+VVV2QdSZhPXkXWqXVHfNMRjaBspJM26NcsJyUsm/pm1gpm9kSWRzLSTk9+yk0TnWyk15Hz0LK68pWlTuVX0oawXiVlozSpW2N2n6G88uoEA68apIGS4kBeOs2y8k5nJEt55WVq3ngyn/Isz3jmgTwmd+p0pFwdoMw8djxQqj19qKNeR52csjarHQkop07qy5M6nZRpS578PXnqyAekxJipQFdepaorX1+SqPwk62qv44+IODrdjLu2QegnSXnqkqYN9CxnPXjVV6WsO6KUkzcGyLx+07+gbJokyGu7SztdbZCHqow0466ySqnbEXLqQiNd+MqAfPPWzxgqL8tQosog6yjvbMiXgPkqWyHqANPEzQ2FnYYrkVfFIZztdWKvXDTKu9qQnWjg6SwdsptRVtfAqh5IPpS6uStSNjUP8OFvEswba7UBrA/hSz3fQ6csz/Ybk7A+esq0pX/KxiFfHevzrjjvgltH3RmhRx0oY4GAPiTKIHWyjjxg2TpAeyD7CH7WTztVniTI22b7JqHfjqjLuDrPgPYtV8DXR9XFpmMA+Zsb5Mr0Xcnx62TJ17Y+gXOzxmM9yuatrz9ktEe+/UU+9bNMu9CjLrwRpa5lUuOphEzUYxaqSJtJ6DquwDjTj3rKU0a8xM3vZtSzj7TTtaum5pPf5aWMA5iX0KmgjlQh37GqJPSPHgSQ22Z9Z0r7LWtP3dRLucixBQ+8/N/yh43/feORj3jkjQcffHD7UeBjH/t6h4HgRzV88oKKqN5ugB/A/OM//uP2a3vyQIfpOGEQpOiQ0uD6w8ZEbQhIOwAbxPCSl7xk+zHi673e62085QAb8EhZDF0QE9UPSBuixoSOBN86r3jFK7YfNvIjMAZFvnWrP+XAPKkTnx82Zp2RHdpGPfikmedzOfzAqRuzase61u90APJEZydTQD5/JMfEdUyQQdhh0fTHVh3gUxddxt56CcrOhxz31CVF9nd/93e3Pr2SdshLwphMBb6IyR+kVblAB3Q/7mO+0G5+kEbq55Ay/owlMYqHuv4Azro1Bdavdqjvp1f4jId9KsjDcwGi3I0dMuY0GP0gDx0Ie9jIdiewzZxmHaK/9Wt9YJzKjMcUEDOEDfwB62c6s4Ef6rMOYYPP5dQ+AvC0RbvQ1Qe65NFxzLCZMqkCuZTgOGMe8QNibKZcO6Tya1/rr6t3q87VIb164BEHOjTuxmFiP8DOiZKB/k/ADxz0qCjZ4ekgkbpJwmCEHTZCZwuqeNSjHtXyEzN52pY6jPTsdCYDqL+6rXWQJVU5BOjvnFTSqC5wEghjqptS1pvFAMhXnVEdaWaTOPz1fyeDaHvKKgF8OCepU+XAvG23XHWxk19ISD38dJT1SR2vKq+kDBiXkI8O89p81l8h6xETqVCmHjJJnpSgbF+DjLtrA7yqA2m71qnobAh59LUbU2fTNpkCU0GZdslPG1lnZkNgxz6qsXTl5LnZgBpL6lbfqZsEsOmchpd1yUM57jOk3cQDL/33/zhwD2dQNzhT+P9uvMZ2hfLPNx7zv7hCeezhzPD/3OzgVzpKI+QJgLMVzwoTo6C6QPaw0kBAPOy+nGXUs8vVeFb09nSQM4BMclLOsOsifgywZ13aSD5joCzPfOrJA4wn8cAnvrQNUjd9aE9kHqRu9QlSLuAxVoBYyFe96qeD/sxnWXSxwKvtQuZ4AcZPe1nPOvAqP8spF/KrvrwEPM4uWSwZu4wn61Z0dqxbMbIBqh3AlQVjxSbn+I2g7S6ejL/zkzLy1qm6lBkz4qGNwvozaKv6qj5mtjpd1iHAOlSvCIDzbs+fYzbTSVQdwThhiz7q4umQtkYxAG098NL/+M+D9HDGcsUg/NdhQ3nEjRc/+ODNDeX1tkF6xCPZcP7HmIYFeQJVNmrQHs6pC6zPwgSc6OfYPBX2DykTBziIp8SjPeqSt9yh2q8+KRsT/DwAgTL0HNdjUX12QEdCV+ogH90Rsm7dJGboYs3+EfqGV/Vnce0BW7P6yGa+a1lUm9ZNfub37FjfPMeZvJR1wEaVJ6+Tg/RtHmQ9UzZbF00BHxrZhl9t6avW6WxVG0DeK0/Ebz+Gqh6Al3mxJwfwIXVIOx3AnIa6E4BaRyQ/fVXo44F/+bf/c4jk8EfhsKm8xiMfOGwo/3jYUP7XzSsUNpRDxxw2HY3dqnxICdCdWL4YBVn1RNquGNkS1LO+eWLLjQ5UO52/zlfV63RA1XNhoo/Ij+qtwvqm+ku/yDo/6MA3Dsv0UY3bctoxX3U7aH8F2nW8VuvNcGqs5jnoPDEZxaSuC4e8SwK7EDE4l/RxaV8rsM36po+IDbpbqH10N2MRGY8b3d0YL2D/AMePeORdAtp64F//7erqP//rXw+XZYeD4uqBG//PofEPPvhPhw3ldQcbylZvAzbqBLubyDhs4N2My3guEUvW5SE/hN3Rwbzq6272z72MnEt74P9dcDvK8bDuJfrWuZPoeHcKtssYzCfvkujsVl4XTwIe2OOfYmdkO6GtzqbY8zeqq05ipKedDrM6YlQXqPfAc//x6upJjzssUv/6shv/72HjeI1HvsbhCuWfbjz6Va5QPPOn1va35WdB3g3YMGO6W/Hpt8ZzDlys/u3f/m0jz6A7HOvvbvTRQx2MBWPCv3qAgGNOav4c5Lhg61x75yLblel1odrf89fJ4YE9ftbd8yNGthMrtkY68mc2jEHsxVKxF9sKtPuIr/2hv7jxFy85LFaPeO0b/311uAphq8B++H1l9jCRNsEr6ZX5ywRzSRBPxnS34tNvjecccOnMw1legsjXLPWRxADvUaKT36c5ie4KMdGNzyqB6u9egLGZXheq/T1/nRzeCn+Un6Ha6LBia6Qjf2YDWdIMVXdP/zjcuPH/A/GKusNwPGWwAAAAAElFTkSuQmCC;" vertex="1" parent="1">
                    <mxGeometry x="30" y="60" width="404" height="399" as="geometry"/>
                </mxCell>
            </root>
        </mxGraphModel>
    </diagram>
</mxfile>